<?xml version="1.0" encoding="UTF-8" standalone="no"?>
<!-- Created with Inkscape (http://www.inkscape.org/) -->

<svg
   xmlns:dc="http://purl.org/dc/elements/1.1/"
   xmlns:cc="http://creativecommons.org/ns#"
   xmlns:rdf="http://www.w3.org/1999/02/22-rdf-syntax-ns#"
   xmlns:svg="http://www.w3.org/2000/svg"
   xmlns="http://www.w3.org/2000/svg"
   xmlns:sodipodi="http://sodipodi.sourceforge.net/DTD/sodipodi-0.dtd"
   xmlns:inkscape="http://www.inkscape.org/namespaces/inkscape"
   width="29400"
   height="600"
   version="1.1"
   id="svg8"
   inkscape:version="0.92.3 (2405546, 2018-03-11)"
   sodipodi:docname="ScriptGlyphsAlignedWithEditExt.svg">
  <sodipodi:namedview
     id="base"
     pagecolor="#ffffff"
     bordercolor="#666666"
     borderopacity="1.0"
     inkscape:pageopacity="0.0"
     inkscape:pageshadow="2"
     inkscape:zoom="3.1608187"
     inkscape:cx="28442.307"
     inkscape:cy="367.59121"
     inkscape:document-units="mm"
     inkscape:current-layer="g1111"
     showgrid="false"
     inkscape:window-width="1920"
     inkscape:window-height="1026"
     inkscape:window-x="0"
     inkscape:window-y="0"
     inkscape:window-maximized="1"
     inkscape:snap-intersection-paths="true" />
  <defs
     id="defs2" />
  <metadata
     id="metadata5">
    <rdf:RDF>
      <cc:Work
         rdf:about="">
        <dc:format>image/svg+xml</dc:format>
        <dc:type
           rdf:resource="http://purl.org/dc/dcmitype/StillImage" />
        <dc:title />
      </cc:Work>
    </rdf:RDF>
  </metadata>
  <g
     id="layer1"
     inkscape:groupmode="layer"
     inkscape:label="Layer 1" />
  <g
     id="g1111"
     inkscape:groupmode="layer"
     inkscape:label="Template">
    <path
       id="h_0"
       d="M 0 300 H 29400"
       style="opacity:1;stroke:#ff0066;stroke-width:0.5" />
    <path
       style="stroke-linejoin:round;stroke:#000000;stroke-width:2.0;stroke-linecap:round;fill:none"
       id="!"
       d="M343.85 240.01C343.85 240.01 316.32 282.69 316.32 282.69C316.32 282.69 347.0 239.75 347.0 239.75C347.0 239.75 343.85 240.01 343.85 240.01M308.17 295.58C307.53 296.17 307.18 296.94 307.51 297.89C307.64 298.26 309.64 298.57 310.7 297.77C311.54 297.13 312.72 295.56 311.76 294.58C310.59 293.39 309.03 294.78 308.17 295.58C308.17 295.58 308.17 295.58 308.17 295.58" />
    <path
       id="lv_0000_0000"
       d="M 300 366.666666667 V 166.666666667"
       style="opacity:1;stroke:#00aa88;stroke-width:0.5" />
    <path
       id="rv_0000_0000"
       d="M 347.0 366.666666667 V 166.666666667"
       style="opacity:1;stroke:#1b46ff;stroke-width:0.5" />
    <path
       style="stroke-linejoin:round;stroke:#000000;stroke-width:2.0;stroke-linecap:round;fill:none"
       id="&quot;"
       d="M639.95 241.52C639.95 241.52 647.53 228.76 651.18 223.59C651.88 222.61 653.71 221.07 654.47 222.08C655.19 223.04 654.46 224.5 653.84 225.23C653.84 225.23 639.95 241.52 639.95 241.52M657.5 241.52C657.5 241.52 665.08 228.76 668.74 223.59C669.43 222.61 671.26 221.07 672.02 222.08C672.74 223.04 672.01 224.5 671.39 225.23C671.39 225.23 657.5 241.52 657.5 241.52" />
    <path
       id="lv_0000_0001"
       d="M 600 366.666666667 V 166.666666667"
       style="opacity:1;stroke:#00aa88;stroke-width:0.5" />
    <path
       id="rv_0000_0001"
       d="M 672.32 366.666666667 V 166.666666667"
       style="opacity:1;stroke:#1b46ff;stroke-width:0.5" />
    <path
       style="stroke-linejoin:round;stroke:#000000;stroke-width:2.0;stroke-linecap:round;fill:none"
       id="#"
       d="M949.94 234.07C949.94 234.07 904.23 298.6 904.23 298.6M964.08 234.07C964.08 234.07 918.37 298.6 918.37 298.6M921.53 258.57C921.53 258.57 956.76 258.57 956.76 258.57M912.44 272.84C912.44 272.84 947.66 272.84 947.66 272.84" />
    <path
       id="lv_0000_0002"
       d="M 900 366.666666667 V 166.666666667"
       style="opacity:1;stroke:#00aa88;stroke-width:0.5" />
    <path
       id="rv_0000_0002"
       d="M 964.08 366.666666667 V 166.666666667"
       style="opacity:1;stroke:#1b46ff;stroke-width:0.5" />
    <path
       style="stroke-linejoin:round;stroke:#000000;stroke-width:2.0;stroke-linecap:round;fill:none"
       id="$"
       d="M1250.22 251.24C1249.62 250.42 1246.61 252.69 1249.38 253.53C1250.52 253.87 1253.0 251.69 1252.5 248.57C1252.19 246.62 1247.36 242.59 1241.12 244.69C1238.54 245.55 1228.3 249.06 1233.13 263.26C1240.07 280.05 1223.74 290.97 1214.25 283.68C1212.96 282.69 1211.57 278.02 1215.13 276.79C1217.44 275.99 1217.35 276.95 1217.43 277.19C1217.56 277.54 1217.7 279.58 1214.82 278.97M1255.8 233.48C1255.8 233.48 1207.59 298.39 1207.59 298.39" />
    <path
       id="lv_0000_0003"
       d="M 1200 366.666666667 V 166.666666667"
       style="opacity:1;stroke:#00aa88;stroke-width:0.5" />
    <path
       id="rv_0000_0003"
       d="M 1255.8 366.666666667 V 166.666666667"
       style="opacity:1;stroke:#1b46ff;stroke-width:0.5" />
    <path
       style="stroke-linejoin:round;stroke:#000000;stroke-width:2.0;stroke-linecap:round;fill:none"
       id="%"
       d="M1561.07 233.84C1561.07 233.84 1514.46 299.46 1514.46 299.46M1537.59 233.3C1518.76 235.92 1507.76 267.69 1531.16 255.98C1534.91 253.97 1545.27 243.49 1542.68 235.98C1541.86 233.62 1539.9 233.06 1537.59 233.3C1537.59 233.3 1537.59 233.3 1537.59 233.3M1556.4 274.09C1537.57 276.7 1526.58 308.47 1549.97 296.77C1553.73 294.76 1564.09 284.28 1561.49 276.77C1560.68 274.4 1558.72 273.84 1556.4 274.09C1556.4 274.09 1556.4 274.09 1556.4 274.09" />
    <path
       id="lv_0000_0004"
       d="M 1500 366.666666667 V 166.666666667"
       style="opacity:1;stroke:#00aa88;stroke-width:0.5" />
    <path
       id="rv_0000_0004"
       d="M 1561.9 366.666666667 V 166.666666667"
       style="opacity:1;stroke:#1b46ff;stroke-width:0.5" />
    <path
       style="stroke-linejoin:round;stroke:#000000;stroke-width:2.0;stroke-linecap:round;fill:none"
       id="&amp;"
       d="M1818.42 297.96C1818.82 296.4 1848.07 257.04 1854.4 251.75C1848.33 257.99 1840.05 264.2 1821.0 292.28C1821.26 292.05 1831.34 270.66 1824.6 265.01C1821.16 262.12 1811.94 261.04 1812.54 277.26C1813.25 296.09 1835.44 302.04 1845.59 289.24C1848.39 285.71 1847.9 281.11 1847.58 280.54C1846.87 279.25 1846.16 279.29 1845.58 279.96C1845.17 280.43 1845.67 281.29 1846.61 281.47" />
    <path
       id="lv_0000_0005"
       d="M 1800 366.666666667 V 166.666666667"
       style="opacity:1;stroke:#00aa88;stroke-width:0.5" />
    <path
       id="rv_0000_0005"
       d="M 1854.4 366.666666667 V 166.666666667"
       style="opacity:1;stroke:#1b46ff;stroke-width:0.5" />
    <path
       style="stroke-linejoin:round;stroke:#000000;stroke-width:2.0;stroke-linecap:round;fill:none"
       id="'"
       d="M2139.93 241.45C2139.93 241.45 2147.51 228.69 2151.17 223.52C2151.86 222.54 2153.69 221.0 2154.45 222.01C2155.17 222.97 2154.44 224.43 2153.82 225.16C2153.82 225.16 2139.93 241.45 2139.93 241.45" />
    <path
       id="lv_0000_0006"
       d="M 2100 366.666666667 V 166.666666667"
       style="opacity:1;stroke:#00aa88;stroke-width:0.5" />
    <path
       id="rv_0000_0006"
       d="M 2154.75 366.666666667 V 166.666666667"
       style="opacity:1;stroke:#1b46ff;stroke-width:0.5" />
    <path
       style="stroke-linejoin:round;stroke:#000000;stroke-width:2.0;stroke-linecap:round;fill:none"
       id="("
       d="M2451.43 231.43C2451.43 231.43 2395.89 255.0 2415.36 308.39" />
    <path
       id="lv_0000_0007"
       d="M 2400 366.666666667 V 166.666666667"
       style="opacity:1;stroke:#00aa88;stroke-width:0.5" />
    <path
       id="rv_0000_0007"
       d="M 2451.43 366.666666667 V 166.666666667"
       style="opacity:1;stroke:#1b46ff;stroke-width:0.5" />
    <path
       style="stroke-linejoin:round;stroke:#000000;stroke-width:2.0;stroke-linecap:round;fill:none"
       id=")"
       d="M2745.31 231.37C2764.77 284.77 2709.24 308.34 2709.24 308.34" />
    <path
       id="lv_0000_0008"
       d="M 2700 366.666666667 V 166.666666667"
       style="opacity:1;stroke:#00aa88;stroke-width:0.5" />
    <path
       id="rv_0000_0008"
       d="M 2749.44 366.666666667 V 166.666666667"
       style="opacity:1;stroke:#1b46ff;stroke-width:0.5" />
    <path
       style="stroke-linejoin:round;stroke:#000000;stroke-width:2.0;stroke-linecap:round;fill:none"
       id="*"
       d="M3030.57 243.57C3030.57 243.57 3029.21 235.33 3028.71 234.83C3028.71 234.83 3031.42 233.44 3031.42 233.44C3031.42 233.44 3030.91 243.35 3031.1 243.54C3031.1 243.54 3040.64 236.91 3041.46 235.46C3041.46 235.46 3042.78 237.61 3042.78 237.61C3042.78 237.61 3031.77 243.89 3031.39 244.14C3031.39 244.14 3039.12 248.47 3039.82 248.59C3039.82 248.59 3037.54 250.93 3037.42 251.24C3037.42 251.24 3030.95 244.65 3030.95 244.65C3030.95 244.65 3028.52 248.53 3026.37 255.1C3026.37 255.1 3022.96 254.84 3022.96 254.84C3022.96 254.84 3030.22 245.25 3030.22 244.68C3030.22 244.68 3023.15 245.37 3018.92 247.2C3018.92 247.2 3019.74 244.09 3019.61 243.71C3019.61 243.71 3029.2 244.14 3030.57 243.57C3030.57 243.57 3030.57 243.57 3030.57 243.57" />
    <path
       id="lv_0000_0009"
       d="M 3000 366.666666667 V 166.666666667"
       style="opacity:1;stroke:#00aa88;stroke-width:0.5" />
    <path
       id="rv_0000_0009"
       d="M 3042.78 366.666666667 V 166.666666667"
       style="opacity:1;stroke:#1b46ff;stroke-width:0.5" />
    <path
       style="stroke-linejoin:round;stroke:#000000;stroke-width:2.0;stroke-linecap:round;fill:none"
       id="+"
       d="M3310.22 275.99C3310.22 275.99 3338.38 275.99 3338.38 275.99M3332.45 262.1C3332.45 262.1 3314.96 290.83 3314.96 290.83" />
    <path
       id="lv_0000_0010"
       d="M 3300 366.666666667 V 166.666666667"
       style="opacity:1;stroke:#00aa88;stroke-width:0.5" />
    <path
       id="rv_0000_0010"
       d="M 3338.38 366.666666667 V 166.666666667"
       style="opacity:1;stroke:#1b46ff;stroke-width:0.5" />
    <path
       style="stroke-linejoin:round;stroke:#000000;stroke-width:2.0;stroke-linecap:round;fill:none"
       id=","
       d="M3607.27 297.71C3607.27 297.71 3606.52 293.41 3610.17 293.04C3612.72 292.78 3612.7 303.14 3598.18 309.83" />
    <path
       id="lv_0000_0011"
       d="M 3600 366.666666667 V 166.666666667"
       style="opacity:1;stroke:#00aa88;stroke-width:0.5" />
    <path
       id="rv_0000_0011"
       d="M 3611.45 366.666666667 V 166.666666667"
       style="opacity:1;stroke:#1b46ff;stroke-width:0.5" />
    <path
       style="stroke-linejoin:round;stroke:#000000;stroke-width:2.0;stroke-linecap:round;fill:none"
       id="-"
       d="M3917.68 276.07C3917.68 276.07 3934.29 276.07 3934.29 276.07" />
    <path
       id="lv_0000_0012"
       d="M 3900 366.666666667 V 166.666666667"
       style="opacity:1;stroke:#00aa88;stroke-width:0.5" />
    <path
       id="rv_0000_0012"
       d="M 3934.29 366.666666667 V 166.666666667"
       style="opacity:1;stroke:#1b46ff;stroke-width:0.5" />
    <path
       style="stroke-linejoin:round;stroke:#000000;stroke-width:2.0;stroke-linecap:round;fill:none"
       id="."
       d="M4211.02 295.71C4210.36 297.12 4208.68 298.26 4207.28 298.26C4205.88 298.26 4205.28 297.12 4205.94 295.71C4206.61 294.31 4208.28 293.17 4209.69 293.17C4211.09 293.17 4211.69 294.31 4211.02 295.71C4211.02 295.71 4211.02 295.71 4211.02 295.71" />
    <path
       id="lv_0000_0013"
       d="M 4200 366.666666667 V 166.666666667"
       style="opacity:1;stroke:#00aa88;stroke-width:0.5" />
    <path
       id="rv_0000_0013"
       d="M 4211.29 366.666666667 V 166.666666667"
       style="opacity:1;stroke:#1b46ff;stroke-width:0.5" />
    <path
       style="stroke-linejoin:round;stroke:#000000;stroke-width:2.0;stroke-linecap:round;fill:none"
       id="/"
       d="M4552.86 233.57C4552.86 233.57 4502.32 305.0 4502.32 305.0" />
    <path
       id="lv_0000_0014"
       d="M 4500 366.666666667 V 166.666666667"
       style="opacity:1;stroke:#00aa88;stroke-width:0.5" />
    <path
       id="rv_0000_0014"
       d="M 4552.86 366.666666667 V 166.666666667"
       style="opacity:1;stroke:#1b46ff;stroke-width:0.5" />
    <path
       style="stroke-linejoin:round;stroke:#000000;stroke-width:2.0;stroke-linecap:round;fill:none"
       id="0"
       d="M4852.91 276.78C4874.03 241.9 4859.48 233.22 4857.54 232.6C4844.42 228.43 4825.44 248.59 4818.52 263.31C4813.29 274.42 4808.98 290.27 4815.99 298.66C4818.93 302.17 4839.77 298.48 4852.91 276.78C4852.91 276.78 4852.91 276.78 4852.91 276.78" />
    <path
       id="lv_0000_0015"
       d="M 4800 366.666666667 V 166.666666667"
       style="opacity:1;stroke:#00aa88;stroke-width:0.5" />
    <path
       id="rv_0000_0015"
       d="M 4851.77 366.666666667 V 166.666666667"
       style="opacity:1;stroke:#1b46ff;stroke-width:0.5" />
    <path
       style="stroke-linejoin:round;stroke:#000000;stroke-width:2.0;stroke-linecap:round;fill:none"
       id="1"
       d="M5114.62 273.01C5121.98 269.23 5138.2 255.99 5155.53 231.95C5141.2 254.76 5127.92 275.99 5114.32 297.7" />
    <path
       id="lv_0000_0016"
       d="M 5100 366.666666667 V 166.666666667"
       style="opacity:1;stroke:#00aa88;stroke-width:0.5" />
    <path
       id="rv_0000_0016"
       d="M 5145.96 366.666666667 V 166.666666667"
       style="opacity:1;stroke:#1b46ff;stroke-width:0.5" />
    <path
       style="stroke-linejoin:round;stroke:#000000;stroke-width:2.0;stroke-linecap:round;fill:none"
       id="2"
       d="M5444.71 255.9C5444.71 255.9 5436.6 268.65 5426.11 267.5C5425.2 267.4 5416.74 263.04 5427.75 248.16C5457.49 214.35 5473.13 239.94 5455.71 260.21C5455.71 260.21 5443.37 275.98 5419.42 285.95C5419.42 285.95 5405.14 292.05 5401.86 300.67C5401.86 300.67 5410.49 289.96 5423.43 290.56C5431.37 290.92 5427.57 291.89 5442.18 297.55C5445.29 298.76 5454.37 297.1 5458.69 285.5" />
    <path
       id="lv_0000_0017"
       d="M 5400 366.666666667 V 166.666666667"
       style="opacity:1;stroke:#00aa88;stroke-width:0.5" />
    <path
       id="rv_0000_0017"
       d="M 5452.78 366.666666667 V 166.666666667"
       style="opacity:1;stroke:#1b46ff;stroke-width:0.5" />
    <path
       style="stroke-linejoin:round;stroke:#000000;stroke-width:2.0;stroke-linecap:round;fill:none"
       id="3"
       d="M5746.82 244.89C5745.89 252.7 5735.63 267.02 5726.15 266.16C5725.87 266.14 5714.98 261.56 5729.27 244.74C5753.45 218.98 5772.32 236.65 5754.26 257.68C5754.26 257.68 5745.7 266.3 5736.71 270.33C5732.31 272.3 5726.74 275.68 5725.85 278.66M5737.15 270.03C5737.15 270.03 5750.33 266.55 5750.84 277.62C5751.0 281.14 5746.63 297.77 5727.19 307.67C5725.05 308.76 5715.29 313.62 5705.02 309.6C5705.02 309.6 5695.06 305.58 5696.4 302.61C5696.4 302.61 5698.63 299.93 5699.22 303.65" />
    <path
       id="lv_0000_0018"
       d="M 5700 366.666666667 V 166.666666667"
       style="opacity:1;stroke:#00aa88;stroke-width:0.5" />
    <path
       id="rv_0000_0018"
       d="M 5751.26 366.666666667 V 166.666666667"
       style="opacity:1;stroke:#1b46ff;stroke-width:0.5" />
    <path
       style="stroke-linejoin:round;stroke:#000000;stroke-width:2.0;stroke-linecap:round;fill:none"
       id="4"
       d="M6058.46 233.74C6058.46 233.74 6028.26 271.07 6021.12 273.3C6021.12 273.3 6008.54 278.62 6005.36 273.3C6004.75 272.29 6007.04 266.4 6021.32 269.08C6021.69 268.78 6041.44 274.01 6045.82 275.53C6045.82 275.53 6064.41 281.34 6073.63 272.71M6072.0 252.03C6072.0 252.03 6044.92 274.34 6030.35 302.76" />
    <path
       id="lv_0000_0019"
       d="M 6000 366.666666667 V 166.666666667"
       style="opacity:1;stroke:#00aa88;stroke-width:0.5" />
    <path
       id="rv_0000_0019"
       d="M 6065.4 366.666666667 V 166.666666667"
       style="opacity:1;stroke:#1b46ff;stroke-width:0.5" />
    <path
       style="stroke-linejoin:round;stroke:#000000;stroke-width:2.0;stroke-linecap:round;fill:none"
       id="5"
       d="M6370.41 227.87C6368.3 232.81 6361.15 235.33 6359.57 235.55C6351.45 236.41 6350.19 229.27 6334.75 239.44C6334.75 239.44 6338.22 232.81 6338.22 232.81C6338.22 232.81 6321.71 263.63 6321.71 263.63C6317.65 266.68 6315.42 269.73 6312.55 272.78C6327.62 251.95 6347.7 259.25 6344.85 277.2C6343.14 287.93 6336.01 306.82 6312.98 313.49C6306.03 315.5 6288.57 316.25 6286.89 308.33" />
    <path
       id="lv_0000_0020"
       d="M 6300 366.666666667 V 166.666666667"
       style="opacity:1;stroke:#00aa88;stroke-width:0.5" />
    <path
       id="rv_0000_0020"
       d="M 6361.61 366.666666667 V 166.666666667"
       style="opacity:1;stroke:#1b46ff;stroke-width:0.5" />
    <path
       style="stroke-linejoin:round;stroke:#000000;stroke-width:2.0;stroke-linecap:round;fill:none"
       id="6"
       d="M6665.76 241.01C6669.99 243.03 6670.5 236.61 6669.02 234.6C6667.61 232.66 6657.54 227.67 6641.68 240.28C6629.5 249.96 6618.53 264.12 6616.43 277.23C6610.46 314.44 6639.17 298.61 6651.64 280.3C6665.49 259.96 6652.35 248.56 6638.18 261.39C6635.49 263.83 6630.94 269.12 6629.52 276.05" />
    <path
       id="lv_0000_0021"
       d="M 6600 366.666666667 V 166.666666667"
       style="opacity:1;stroke:#00aa88;stroke-width:0.5" />
    <path
       id="rv_0000_0021"
       d="M 6658.84 366.666666667 V 166.666666667"
       style="opacity:1;stroke:#1b46ff;stroke-width:0.5" />
    <path
       style="stroke-linejoin:round;stroke:#000000;stroke-width:2.0;stroke-linecap:round;fill:none"
       id="7"
       d="M6927.48 232.84C6927.48 232.84 6927.03 243.85 6915.58 255.01C6919.83 250.77 6922.92 246.07 6925.32 241.1C6925.31 241.09 6935.55 231.65 6941.68 233.74C6948.26 235.97 6956.41 244.81 6969.05 232.84C6948.39 252.05 6907.25 292.23 6932.39 325.96" />
    <path
       id="lv_0000_0022"
       d="M 6900 366.666666667 V 166.666666667"
       style="opacity:1;stroke:#00aa88;stroke-width:0.5" />
    <path
       id="rv_0000_0022"
       d="M 6956.31 366.666666667 V 166.666666667"
       style="opacity:1;stroke:#1b46ff;stroke-width:0.5" />
    <path
       style="stroke-linejoin:round;stroke:#000000;stroke-width:2.0;stroke-linecap:round;fill:none"
       id="8"
       d="M7238.37 261.85C7239.54 261.65 7245.27 262.07 7251.91 256.95C7256.29 253.57 7260.36 248.2 7260.39 242.21C7260.39 242.21 7260.01 224.74 7238.74 235.07C7236.11 237.26 7226.17 244.15 7235.99 260.36C7235.99 260.36 7252.5 281.93 7242.54 293.09C7242.54 293.09 7232.27 304.43 7219.03 298.15C7218.4 297.84 7206.69 289.82 7216.5 274.49C7216.51 274.49 7222.79 263.08 7238.37 261.85C7238.37 261.85 7238.37 261.85 7238.37 261.85" />
    <path
       id="lv_0000_0023"
       d="M 7200 366.666666667 V 166.666666667"
       style="opacity:1;stroke:#00aa88;stroke-width:0.5" />
    <path
       id="rv_0000_0023"
       d="M 7253.28 366.666666667 V 166.666666667"
       style="opacity:1;stroke:#1b46ff;stroke-width:0.5" />
    <path
       style="stroke-linejoin:round;stroke:#000000;stroke-width:2.0;stroke-linecap:round;fill:none"
       id="9"
       d="M7561.3 251.74C7561.3 251.87 7545.0 274.57 7533.22 271.62C7533.22 271.62 7517.34 270.15 7528.49 249.22C7528.49 249.22 7539.42 229.13 7554.47 232.49C7554.47 232.49 7567.51 235.23 7559.62 256.9C7559.62 256.9 7547.94 287.51 7534.48 295.29C7534.48 295.29 7520.98 304.05 7512.08 296.34C7509.72 294.3 7508.4 291.82 7508.92 289.82C7509.52 287.56 7511.66 287.93 7511.97 289.93" />
    <path
       id="lv_0000_0024"
       d="M 7500 366.666666667 V 166.666666667"
       style="opacity:1;stroke:#00aa88;stroke-width:0.5" />
    <path
       id="rv_0000_0024"
       d="M 7555.05 366.666666667 V 166.666666667"
       style="opacity:1;stroke:#1b46ff;stroke-width:0.5" />
    <path
       style="stroke-linejoin:round;stroke:#000000;stroke-width:2.0;stroke-linecap:round;fill:none"
       id=":"
       d="M7806.94 272.73C7806.49 274.11 7804.99 275.23 7803.61 275.23C7802.23 275.23 7801.48 274.11 7801.93 272.73C7802.39 271.34 7803.88 270.22 7805.26 270.22C7806.64 270.22 7807.4 271.34 7806.94 272.73C7806.94 272.73 7806.94 272.73 7806.94 272.73M7796.42 294.55C7795.97 295.94 7794.48 297.06 7793.09 297.06C7791.71 297.06 7790.96 295.94 7791.41 294.55C7791.87 293.17 7793.36 292.05 7794.74 292.05C7796.13 292.05 7796.88 293.17 7796.42 294.55C7796.42 294.55 7796.42 294.55 7796.42 294.55" />
    <path
       id="lv_0000_0025"
       d="M 7800 366.666666667 V 166.666666667"
       style="opacity:1;stroke:#00aa88;stroke-width:0.5" />
    <path
       id="rv_0000_0025"
       d="M 7806.81 366.666666667 V 166.666666667"
       style="opacity:1;stroke:#1b46ff;stroke-width:0.5" />
    <path
       style="stroke-linejoin:round;stroke:#000000;stroke-width:2.0;stroke-linecap:round;fill:none"
       id=";"
       d="M8107.14 272.73C8106.68 274.11 8105.19 275.23 8103.81 275.23C8102.42 275.23 8101.67 274.11 8102.13 272.73C8102.58 271.34 8104.07 270.22 8105.46 270.22C8106.84 270.22 8107.59 271.34 8107.14 272.73C8107.14 272.73 8107.14 272.73 8107.14 272.73M8094.07 296.58C8093.17 296.97 8092.28 293.06 8094.82 292.49C8096.0 292.23 8096.93 292.64 8096.82 295.1C8096.67 298.95 8089.16 307.51 8083.59 308.71" />
    <path
       id="lv_0000_0026"
       d="M 8100 366.666666667 V 166.666666667"
       style="opacity:1;stroke:#00aa88;stroke-width:0.5" />
    <path
       id="rv_0000_0026"
       d="M 8106.61 366.666666667 V 166.666666667"
       style="opacity:1;stroke:#1b46ff;stroke-width:0.5" />
    <path
       style="stroke-linejoin:round;stroke:#000000;stroke-width:2.0;stroke-linecap:round;fill:none"
       id="&lt;"
       d="M8433.81 265.1C8433.81 265.1 8410.04 276.04 8410.04 276.04C8410.04 276.04 8430.34 286.35 8430.34 286.35" />
    <path
       id="lv_0000_0027"
       d="M 8400 366.666666667 V 166.666666667"
       style="opacity:1;stroke:#00aa88;stroke-width:0.5" />
    <path
       id="rv_0000_0027"
       d="M 8434.11 366.666666667 V 166.666666667"
       style="opacity:1;stroke:#1b46ff;stroke-width:0.5" />
    <path
       style="stroke-linejoin:round;stroke:#000000;stroke-width:2.0;stroke-linecap:round;fill:none"
       id="="
       d="M8716.23 269.29C8716.23 269.29 8743.16 269.29 8743.16 269.29M8710.43 279.11C8710.43 279.11 8737.36 279.11 8737.36 279.11" />
    <path
       id="lv_0000_0028"
       d="M 8700 366.666666667 V 166.666666667"
       style="opacity:1;stroke:#00aa88;stroke-width:0.5" />
    <path
       id="rv_0000_0028"
       d="M 8741.25 366.666666667 V 166.666666667"
       style="opacity:1;stroke:#1b46ff;stroke-width:0.5" />
    <path
       style="stroke-linejoin:round;stroke:#000000;stroke-width:2.0;stroke-linecap:round;fill:none"
       id="&gt;"
       d="M9029.91 269.56C9029.91 269.56 9050.21 279.87 9050.21 279.87C9050.21 279.87 9026.44 290.81 9026.44 290.81" />
    <path
       id="lv_0000_0029"
       d="M 9000 366.666666667 V 166.666666667"
       style="opacity:1;stroke:#00aa88;stroke-width:0.5" />
    <path
       id="rv_0000_0029"
       d="M 9049.64 366.666666667 V 166.666666667"
       style="opacity:1;stroke:#1b46ff;stroke-width:0.5" />
    <path
       style="stroke-linejoin:round;stroke:#000000;stroke-width:2.0;stroke-linecap:round;fill:none"
       id="?"
       d="M9327.01 249.95C9326.03 250.61 9327.82 238.58 9341.14 238.05C9346.56 237.83 9357.68 244.25 9343.67 257.09C9338.95 261.42 9320.17 279.55 9319.28 284.01M9314.6 296.45C9314.15 297.84 9312.66 298.96 9311.27 298.96C9309.89 298.96 9309.14 297.84 9309.59 296.45C9310.05 295.07 9311.54 293.95 9312.92 293.95C9314.31 293.95 9315.06 295.07 9314.6 296.45C9314.6 296.45 9314.6 296.45 9314.6 296.45" />
    <path
       id="lv_0000_0030"
       d="M 9300 366.666666667 V 166.666666667"
       style="opacity:1;stroke:#00aa88;stroke-width:0.5" />
    <path
       id="rv_0000_0030"
       d="M 9346.61 366.666666667 V 166.666666667"
       style="opacity:1;stroke:#1b46ff;stroke-width:0.5" />
    <path
       style="stroke-linejoin:round;stroke:#000000;stroke-width:2.0;stroke-linecap:round;fill:none"
       id="@"
       d="M9639.99 283.42C9639.99 283.42 9642.22 277.47 9641.48 275.76C9640.73 274.05 9628.5 273.04 9618.87 287.44C9618.07 288.63 9614.43 296.69 9617.97 299.11C9618.95 299.78 9622.4 301.55 9632.92 290.63C9641.43 281.81 9642.92 280.48 9647.28 276.13C9646.87 275.93 9633.78 294.0 9633.0 295.32C9631.82 297.3 9634.48 301.86 9640.88 299.04C9673.19 284.8 9663.02 249.0 9627.72 264.75C9581.52 292.71 9608.14 329.3 9643.78 306.55C9643.78 306.55 9661.78 293.25 9649.66 285.13" />
    <path
       id="lv_0000_0031"
       d="M 9600 366.666666667 V 166.666666667"
       style="opacity:1;stroke:#00aa88;stroke-width:0.5" />
    <path
       id="rv_0000_0031"
       d="M 9655.54 366.666666667 V 166.666666667"
       style="opacity:1;stroke:#1b46ff;stroke-width:0.5" />
    <path
       style="stroke-linejoin:round;stroke:#000000;stroke-width:2.0;stroke-linecap:round;fill:none"
       id="A"
       d="M9894.08 292.71C9899.58 292.69 9894.13 287.03 9891.35 292.03C9890.8 293.02 9889.87 303.49 9907.86 298.24C9913.54 296.57 9927.21 286.24 9951.3 261.84C9951.3 261.84 9984.43 230.08 9990.85 232.81C9990.85 232.81 9937.84 299.08 9937.84 299.08C9937.84 299.08 9945.31 284.67 9940.78 273.73C9940.78 273.73 9934.16 254.58 9916.27 259.32C9916.27 259.32 9900.32 265.63 9913.75 282.04C9916.05 284.85 9925.32 290.14 9935.84 289.93C9935.84 289.93 9953.38 289.62 9963.82 282.46C9970.58 277.82 9973.28 274.15 9976.44 265.84" />
    <path
       id="lv_0000_0032"
       d="M 9900 366.666666667 V 166.666666667"
       style="opacity:1;stroke:#00aa88;stroke-width:0.5" />
    <path
       id="rv_0000_0032"
       d="M 9976.79 366.666666667 V 166.666666667"
       style="opacity:1;stroke:#1b46ff;stroke-width:0.5" />
    <path
       style="stroke-linejoin:round;stroke:#000000;stroke-width:2.0;stroke-linecap:round;fill:none"
       id="B"
       d="M10290.84 232.28C10287.4 232.32 10271.02 233.61 10241.82 269.52C10237.01 275.43 10230.05 285.06 10218.52 293.58C10208.77 300.78 10193.55 302.85 10192.28 292.71C10191.97 290.23 10195.63 289.34 10197.01 290.61C10197.83 291.36 10196.59 292.92 10195.01 292.71M10249.71 238.6C10249.71 238.6 10247.36 258.7 10226.67 268.36C10226.08 268.64 10202.15 277.66 10213.53 254.69C10215.64 250.41 10228.57 234.81 10249.29 231.13C10249.29 231.13 10277.06 226.08 10280.0 243.01C10280.0 243.01 10281.9 261.42 10263.28 268.47C10263.78 268.37 10250.68 273.25 10249.39 268.89C10249.1 267.89 10255.27 264.6 10262.44 268.05C10262.44 268.05 10273.69 278.67 10255.39 294.55C10248.42 300.6 10234.77 301.22 10233.72 296.03C10232.26 288.77 10244.56 278.57 10257.81 277.93" />
    <path
       id="lv_0000_0033"
       d="M 10200 366.666666667 V 166.666666667"
       style="opacity:1;stroke:#00aa88;stroke-width:0.5" />
    <path
       id="rv_0000_0033"
       d="M 10274.82 366.666666667 V 166.666666667"
       style="opacity:1;stroke:#1b46ff;stroke-width:0.5" />
    <path
       style="stroke-linejoin:round;stroke:#000000;stroke-width:2.0;stroke-linecap:round;fill:none"
       id="C"
       d="M10543.8 229.23C10540.79 228.41 10515.4 229.1 10508.21 249.76C10506.8 253.8 10511.69 266.05 10528.4 262.73C10533.18 261.89 10557.89 258.98 10574.41 239.54C10574.41 239.54 10582.41 227.55 10561.05 234.49C10556.53 235.97 10507.79 258.9 10510.04 292.14C10510.29 295.8 10517.14 305.99 10538.12 293.5C10546.18 288.71 10552.27 278.86 10553.27 271.83C10553.27 271.83 10554.85 259.0 10535.81 268.47C10535.81 268.47 10511.24 282.97 10521.95 312.13" />
    <path
       id="lv_0000_0034"
       d="M 10500 366.666666667 V 166.666666667"
       style="opacity:1;stroke:#00aa88;stroke-width:0.5" />
    <path
       id="rv_0000_0034"
       d="M 10558.75 366.666666667 V 166.666666667"
       style="opacity:1;stroke:#1b46ff;stroke-width:0.5" />
    <path
       style="stroke-linejoin:round;stroke:#000000;stroke-width:2.0;stroke-linecap:round;fill:none"
       id="D"
       d="M10896.07 235.76C10872.94 238.18 10860.96 263.59 10844.95 279.72C10838.75 285.51 10830.13 295.75 10822.65 297.39C10795.52 303.33 10799.51 296.03 10799.51 296.03C10805.5 290.24 10827.07 297.71 10827.07 297.71C10843.16 302.34 10859.38 296.48 10864.83 290.98C10890.34 265.23 10875.77 244.59 10875.77 244.59C10860.22 221.26 10818.86 237.86 10814.13 255.64C10808.98 274.95 10826.04 271.52 10826.86 271.31C10853.29 264.49 10855.47 243.12 10855.47 243.12" />
    <path
       id="lv_0000_0035"
       d="M 10800 366.666666667 V 166.666666667"
       style="opacity:1;stroke:#00aa88;stroke-width:0.5" />
    <path
       id="rv_0000_0035"
       d="M 10875.89 366.666666667 V 166.666666667"
       style="opacity:1;stroke:#1b46ff;stroke-width:0.5" />
    <path
       style="stroke-linejoin:round;stroke:#000000;stroke-width:2.0;stroke-linecap:round;fill:none"
       id="E"
       d="M11106.23 245.01C11106.23 245.01 11110.01 258.79 11134.31 259.74C11176.18 261.23 11181.9 224.51 11148.82 233.65C11142.12 235.51 11124.54 244.69 11128.42 262.37C11128.62 263.27 11133.89 271.62 11139.99 268.99C11139.99 268.99 11141.87 263.5 11125.05 264.37C11122.97 264.47 11094.77 271.92 11100.55 292.66C11100.98 294.2 11111.17 305.39 11127.89 296.34C11150.91 283.53 11137.74 268.93 11123.26 279.93C11120.35 282.5 11106.64 295.78 11115.9 313.28" />
    <path
       id="lv_0000_0036"
       d="M 11100 366.666666667 V 166.666666667"
       style="opacity:1;stroke:#00aa88;stroke-width:0.5" />
    <path
       id="rv_0000_0036"
       d="M 11155.89 366.666666667 V 166.666666667"
       style="opacity:1;stroke:#1b46ff;stroke-width:0.5" />
    <path
       style="stroke-linejoin:round;stroke:#000000;stroke-width:2.0;stroke-linecap:round;fill:none"
       id="F"
       d="M11474.16 241.01C11474.16 241.01 11456.07 242.59 11442.08 268.89C11435.43 281.4 11421.74 295.14 11413.05 298.24C11411.9 298.64 11396.47 302.82 11394.06 293.4C11393.29 290.38 11396.8 289.27 11398.03 290.08C11399.24 290.88 11398.85 293.29 11396.43 292.56M11446.71 240.91C11447.49 251.23 11424.18 264.76 11420.27 257.55C11411.41 241.2 11449.66 228.95 11466.38 233.44C11467.43 233.73 11492.06 240.13 11501.51 224.19M11410.84 283.61C11410.84 283.61 11415.26 272.78 11439.66 268.36C11439.66 268.36 11463.64 262.16 11464.06 261.53C11464.06 261.53 11460.28 261.11 11460.28 261.11C11460.28 261.11 11453.02 273.73 11453.54 274.88" />
    <path
       id="lv_0000_0037"
       d="M 11400 366.666666667 V 166.666666667"
       style="opacity:1;stroke:#00aa88;stroke-width:0.5" />
    <path
       id="rv_0000_0037"
       d="M 11476.25 366.666666667 V 166.666666667"
       style="opacity:1;stroke:#1b46ff;stroke-width:0.5" />
    <path
       style="stroke-linejoin:round;stroke:#000000;stroke-width:2.0;stroke-linecap:round;fill:none"
       id="G"
       d="M11700.41 262.89C11700.41 262.89 11715.03 274.25 11749.32 251.85C11763.31 242.71 11772.46 229.66 11759.21 230.39C11751.35 230.83 11717.42 250.13 11716.5 268.47C11716.48 269.04 11716.31 279.12 11733.86 270.15C11739.1 267.47 11750.8 258.96 11758.16 253.85C11742.21 266.69 11723.56 300.67 11704.62 299.81C11704.62 299.81 11693.94 299.92 11694.07 292.84C11694.13 289.59 11696.85 289.93 11698.1 290.24C11698.87 290.44 11699.81 293.11 11696.55 292.56" />
    <path
       id="lv_0000_0038"
       d="M 11700 366.666666667 V 166.666666667"
       style="opacity:1;stroke:#00aa88;stroke-width:0.5" />
    <path
       id="rv_0000_0038"
       d="M 11754.11 366.666666667 V 166.666666667"
       style="opacity:1;stroke:#1b46ff;stroke-width:0.5" />
    <path
       style="stroke-linejoin:round;stroke:#000000;stroke-width:2.0;stroke-linecap:round;fill:none"
       id="H"
       d="M12013.64 238.5C12013.64 238.5 12024.04 229.27 12034.0 234.23C12040.67 237.55 12027.06 243.07 12025.69 250.48C12024.99 251.1 12027.27 256.63 12034.63 253.95C12034.63 253.95 12042.26 251.38 12046.36 248.06C12046.36 248.06 12064.88 231.71 12066.14 232.28C12066.14 232.28 12047.52 244.17 12030.06 271.1C12030.06 271.1 12008.82 298.87 11995.24 299.5C11995.24 299.5 11983.34 300.66 11985.24 292.46C11985.72 290.38 11988.41 290.3 11989.14 290.98C11989.91 291.69 11989.88 293.71 11987.56 293.29M12000.08 287.72C12000.08 287.72 12004.71 278.88 12024.48 274.04C12024.48 274.04 12056.46 265.63 12056.46 265.63C12056.46 265.63 12083.23 257.76 12096.06 243.78C12096.06 243.78 12111.95 223.35 12087.86 235.87C12085.23 237.24 12061.7 257.26 12050.89 273.41C12041.2 287.88 12038.96 293.11 12041.0 297.29C12041.0 297.29 12047.31 305.7 12059.3 291.61C12059.3 291.61 12065.72 284.88 12067.08 276.88" />
    <path
       id="lv_0000_0039"
       d="M 12000 366.666666667 V 166.666666667"
       style="opacity:1;stroke:#00aa88;stroke-width:0.5" />
    <path
       id="rv_0000_0039"
       d="M 12078.57 366.666666667 V 166.666666667"
       style="opacity:1;stroke:#1b46ff;stroke-width:0.5" />
    <path
       style="stroke-linejoin:round;stroke:#000000;stroke-width:2.0;stroke-linecap:round;fill:none"
       id="I"
       d="M12361.07 249.43C12361.07 249.43 12363.49 271.73 12333.31 282.56C12333.31 282.56 12310.06 288.56 12317.11 264.16C12317.11 264.16 12328.41 236.54 12363.97 232.97C12364.03 233.18 12368.64 232.37 12376.64 233.23C12376.64 233.23 12380.85 233.44 12380.85 233.44C12378.28 233.85 12359.43 230.95 12330.36 274.46C12330.36 274.46 12312.06 296.03 12302.49 298.45C12302.49 298.45 12287.42 303.87 12285.66 292.87C12285.15 289.7 12289.53 288.37 12290.02 290.68C12290.35 292.26 12289.12 292.98 12287.75 291.89" />
    <path
       id="lv_0000_0040"
       d="M 12300 366.666666667 V 166.666666667"
       style="opacity:1;stroke:#00aa88;stroke-width:0.5" />
    <path
       id="rv_0000_0040"
       d="M 12361.61 366.666666667 V 166.666666667"
       style="opacity:1;stroke:#1b46ff;stroke-width:0.5" />
    <path
       style="stroke-linejoin:round;stroke:#000000;stroke-width:2.0;stroke-linecap:round;fill:none"
       id="J"
       d="M12658.78 249.21C12658.78 249.21 12658.93 273.3 12630.22 283.72C12630.22 283.72 12608.65 287.73 12613.86 265.72C12613.86 265.72 12621.3 239.54 12657.89 233.14C12657.89 233.14 12661.41 232.17 12672.54 232.68C12674.67 232.78 12678.03 232.55 12680.42 232.85C12677.5 233.5 12656.84 229.28 12625.46 277.47C12625.46 277.47 12592.43 323.26 12581.88 329.09C12580.06 330.09 12557.86 344.4 12563.58 328.04C12565.88 321.49 12578.49 307.51 12604.94 299.63C12604.94 299.63 12630.52 292.79 12636.92 289.82" />
    <path
       id="lv_0000_0041"
       d="M 12600 366.666666667 V 166.666666667"
       style="opacity:1;stroke:#00aa88;stroke-width:0.5" />
    <path
       id="rv_0000_0041"
       d="M 12658.75 366.666666667 V 166.666666667"
       style="opacity:1;stroke:#1b46ff;stroke-width:0.5" />
    <path
       style="stroke-linejoin:round;stroke:#000000;stroke-width:2.0;stroke-linecap:round;fill:none"
       id="K"
       d="M12918.71 252.37C12918.71 252.37 12924.75 231.87 12943.17 231.98C12942.84 232.24 12957.03 231.82 12944.02 241.91C12944.02 241.91 12935.44 249.21 12942.0 251.38C12944.07 252.07 12953.02 250.29 12961.42 244.08C12961.42 244.08 12979.95 229.69 12981.22 230.15C12942.41 253.68 12937.8 289.44 12905.25 298.99C12905.25 298.99 12892.61 302.3 12892.48 292.85C12892.46 291.51 12894.97 289.7 12896.48 290.91C12896.48 290.91 12897.76 292.77 12895.0 293.23M13014.76 238.39C13014.76 238.39 13012.03 238.87 13013.08 240.73C13013.39 241.27 13016.88 242.03 13017.94 237.63C13017.94 237.63 13018.95 227.23 13002.74 233.72C12988.25 239.52 12961.97 274.65 12952.33 264.45C12951.71 262.93 12957.93 260.51 12962.36 264.56C12968.2 279.1 12941.58 290.11 12945.76 298.3C12946.6 299.93 12951.07 302.91 12961.3 295.99C12961.3 295.99 12972.59 287.94 12974.2 275.96" />
    <path
       id="lv_0000_0042"
       d="M 12900 366.666666667 V 166.666666667"
       style="opacity:1;stroke:#00aa88;stroke-width:0.5" />
    <path
       id="rv_0000_0042"
       d="M 12980.89 366.666666667 V 166.666666667"
       style="opacity:1;stroke:#1b46ff;stroke-width:0.5" />
    <path
       style="stroke-linejoin:round;stroke:#000000;stroke-width:2.0;stroke-linecap:round;fill:none"
       id="L"
       d="M13226.67 244.74C13226.67 244.74 13205.03 247.48 13210.93 267.65C13212.01 271.33 13221.01 277.45 13239.04 275.18C13239.04 275.18 13277.64 266.24 13286.74 239.37C13286.75 239.36 13288.36 224.97 13266.07 236.93C13234.85 258.77 13224.12 310.05 13189.51 298.83C13189.05 298.68 13179.34 291.46 13202.09 292.68C13219.16 295.26 13238.13 307.0 13253.53 295.04" />
    <path
       id="lv_0000_0043"
       d="M 13200 366.666666667 V 166.666666667"
       style="opacity:1;stroke:#00aa88;stroke-width:0.5" />
    <path
       id="rv_0000_0043"
       d="M 13266.25 366.666666667 V 166.666666667"
       style="opacity:1;stroke:#1b46ff;stroke-width:0.5" />
    <path
       style="stroke-linejoin:round;stroke:#000000;stroke-width:2.0;stroke-linecap:round;fill:none"
       id="M"
       d="M13488.16 292.88C13488.16 292.88 13490.75 293.75 13490.81 291.62C13490.81 291.62 13489.55 289.03 13486.55 292.08C13486.55 292.08 13482.75 303.36 13501.06 298.18C13501.06 298.18 13519.47 290.01 13539.62 265.72C13539.62 265.72 13575.42 227.96 13577.37 229.0C13574.35 230.19 13530.99 285.58 13533.17 298.64C13533.78 299.57 13585.21 238.91 13607.88 228.08C13592.69 241.36 13530.0 309.32 13563.56 298.76C13563.56 298.76 13570.93 295.07 13571.27 294.61" />
    <path
       id="lv_0000_0044"
       d="M 13500 366.666666667 V 166.666666667"
       style="opacity:1;stroke:#00aa88;stroke-width:0.5" />
    <path
       id="rv_0000_0044"
       d="M 13581.25 366.666666667 V 166.666666667"
       style="opacity:1;stroke:#1b46ff;stroke-width:0.5" />
    <path
       style="stroke-linejoin:round;stroke:#000000;stroke-width:2.0;stroke-linecap:round;fill:none"
       id="N"
       d="M13823.79 243.6C13823.79 243.6 13821.49 243.65 13822.14 241.95C13822.34 241.42 13823.95 240.51 13825.66 243.28C13825.66 243.28 13831.28 251.17 13820.04 258.01C13820.04 258.01 13804.99 265.34 13799.04 250.36C13799.04 250.36 13796.19 236.77 13811.58 232.7C13811.58 232.7 13821.02 229.52 13832.09 235.22C13832.09 235.22 13847.8 245.72 13858.14 236.36M13790.67 292.77C13790.67 292.77 13792.52 294.15 13793.44 292.08C13793.4 292.03 13792.26 289.11 13789.29 292.08C13788.03 293.34 13789.2 304.54 13805.41 297.26C13810.84 294.82 13821.98 283.81 13829.24 276.19C13841.8 263.01 13864.88 234.1 13865.5 233.21C13865.5 233.21 13862.04 239.13 13848.11 271.13C13848.11 271.13 13837.5 298.22 13834.76 300.14C13834.76 300.14 13867.68 261.81 13867.68 261.81C13867.68 261.81 13896.23 229.57 13910.96 228.19C13910.96 228.19 13930.42 223.93 13922.94 242.58C13922.94 242.58 13917.99 251.21 13906.47 256.16" />
    <path
       id="lv_0000_0045"
       d="M 13800 366.666666667 V 166.666666667"
       style="opacity:1;stroke:#00aa88;stroke-width:0.5" />
    <path
       id="rv_0000_0045"
       d="M 13878.57 366.666666667 V 166.666666667"
       style="opacity:1;stroke:#1b46ff;stroke-width:0.5" />
    <path
       style="stroke-linejoin:round;stroke:#000000;stroke-width:2.0;stroke-linecap:round;fill:none"
       id="O"
       d="M14170.19 250.52C14170.19 250.52 14180.09 234.29 14162.48 232.45C14162.48 232.45 14137.73 230.26 14113.1 262.61C14101.41 277.96 14101.47 293.69 14110.34 298.64C14110.34 298.64 14129.21 306.01 14152.0 278.38C14152.0 278.38 14168.58 256.39 14157.65 247.53C14157.65 247.53 14144.75 239.7 14128.29 261.23C14128.29 261.23 14118.05 276.88 14124.95 290.01" />
    <path
       id="lv_0000_0046"
       d="M 14100 366.666666667 V 166.666666667"
       style="opacity:1;stroke:#00aa88;stroke-width:0.5" />
    <path
       id="rv_0000_0046"
       d="M 14160.36 366.666666667 V 166.666666667"
       style="opacity:1;stroke:#1b46ff;stroke-width:0.5" />
    <path
       style="stroke-linejoin:round;stroke:#000000;stroke-width:2.0;stroke-linecap:round;fill:none"
       id="P"
       d="M14474.43 232.45C14474.43 232.45 14460.68 232.43 14437.71 264.68C14427.39 277.5 14408.87 309.06 14391.38 297.43C14390.11 296.59 14389.21 293.33 14390.86 291.04C14390.86 291.04 14393.56 289.14 14394.54 291.42C14394.54 291.42 14395.0 294.04 14391.69 293.29M14433.79 240.51C14428.08 277.24 14385.73 276.49 14404.67 249.49C14404.67 249.49 14412.15 237.86 14436.56 232.8C14436.56 232.8 14458.08 229.34 14467.41 237.52C14475.23 244.37 14472.82 265.49 14448.3 271.47C14448.3 271.47 14434.7 273.18 14429.65 267.68C14428.31 266.21 14428.38 260.88 14434.14 260.88" />
    <path
       id="lv_0000_0047"
       d="M 14400 366.666666667 V 166.666666667"
       style="opacity:1;stroke:#00aa88;stroke-width:0.5" />
    <path
       id="rv_0000_0047"
       d="M 14463.21 366.666666667 V 166.666666667"
       style="opacity:1;stroke:#1b46ff;stroke-width:0.5" />
    <path
       style="stroke-linejoin:round;stroke:#000000;stroke-width:2.0;stroke-linecap:round;fill:none"
       id="Q"
       d="M14753.0 244.19C14753.65 248.8 14740.22 278.28 14721.34 276.19C14695.47 273.34 14734.77 225.01 14759.33 233.03C14760.58 233.44 14781.84 239.33 14757.72 273.2C14751.62 281.76 14738.88 292.16 14723.07 297.26C14716.08 299.51 14694.55 302.31 14694.25 294.79C14694.14 292.1 14700.26 288.26 14722.15 296.57C14737.82 301.4 14766.04 318.41 14778.55 305.43" />
    <path
       id="lv_0000_0048"
       d="M 14700 366.666666667 V 166.666666667"
       style="opacity:1;stroke:#00aa88;stroke-width:0.5" />
    <path
       id="rv_0000_0048"
       d="M 14768.21 366.666666667 V 166.666666667"
       style="opacity:1;stroke:#1b46ff;stroke-width:0.5" />
    <path
       style="stroke-linejoin:round;stroke:#000000;stroke-width:2.0;stroke-linecap:round;fill:none"
       id="R"
       d="M15073.58 233.14C15073.58 233.14 15052.05 238.55 15032.6 267.68C15032.6 267.68 15009.58 299.45 14998.41 299.56C14998.41 299.56 14985.06 301.06 14986.44 292.77C14986.44 292.77 14987.41 289.63 14990.42 290.98C14990.42 290.98 14991.57 294.19 14988.23 293.09M15036.51 240.74C15036.5 242.88 15030.7 269.71 15010.38 269.86C15009.61 269.87 14991.91 267.15 15007.96 247.8C15019.97 233.32 15048.82 228.56 15060.37 235.4C15070.57 241.45 15076.74 255.86 15049.98 269.63C15049.98 269.63 15043.08 271.52 15040.56 269.37C15039.15 268.17 15045.18 266.18 15049.52 269.63C15053.56 272.85 15044.9 282.93 15041.81 286.21C15038.22 290.01 15035.95 296.32 15041.0 298.87C15049.5 303.16 15065.35 290.09 15067.71 276.65" />
    <path
       id="lv_0000_0049"
       d="M 15000 366.666666667 V 166.666666667"
       style="opacity:1;stroke:#00aa88;stroke-width:0.5" />
    <path
       id="rv_0000_0049"
       d="M 15068.04 366.666666667 V 166.666666667"
       style="opacity:1;stroke:#1b46ff;stroke-width:0.5" />
    <path
       style="stroke-linejoin:round;stroke:#000000;stroke-width:2.0;stroke-linecap:round;fill:none"
       id="S"
       d="M15352.39 233.51C15318.68 225.65 15288.51 261.37 15334.4 267.39C15339.85 267.84 15353.44 266.53 15364.44 259.56C15377.05 251.55 15386.25 237.08 15380.78 233.65C15360.81 221.16 15334.45 290.74 15311.56 298.61C15298.75 303.01 15289.81 291.97 15298.87 290.45C15300.83 290.22 15301.52 293.38 15297.69 293.17" />
    <path
       id="lv_0000_0050"
       d="M 15300 366.666666667 V 166.666666667"
       style="opacity:1;stroke:#00aa88;stroke-width:0.5" />
    <path
       id="rv_0000_0050"
       d="M 15368.75 366.666666667 V 166.666666667"
       style="opacity:1;stroke:#1b46ff;stroke-width:0.5" />
    <path
       style="stroke-linejoin:round;stroke:#000000;stroke-width:2.0;stroke-linecap:round;fill:none"
       id="T"
       d="M15665.48 242.93C15662.76 243.85 15649.64 254.44 15639.2 271.57C15635.87 277.04 15630.21 284.67 15622.96 291.03C15612.69 300.04 15590.88 304.59 15588.81 292.02C15589.88 287.68 15593.18 289.03 15593.18 289.03C15594.51 290.29 15593.76 293.17 15590.71 291.73M15647.98 240.62C15647.98 240.62 15642.68 259.27 15628.87 261.34C15628.87 261.34 15614.55 263.38 15621.5 249.26C15623.57 245.07 15634.62 235.27 15647.52 234.29C15665.39 232.94 15687.65 242.65 15700.35 226.58" />
    <path
       id="lv_0000_0051"
       d="M 15600 366.666666667 V 166.666666667"
       style="opacity:1;stroke:#00aa88;stroke-width:0.5" />
    <path
       id="rv_0000_0051"
       d="M 15666.61 366.666666667 V 166.666666667"
       style="opacity:1;stroke:#1b46ff;stroke-width:0.5" />
    <path
       style="stroke-linejoin:round;stroke:#000000;stroke-width:2.0;stroke-linecap:round;fill:none"
       id="U"
       d="M15933.57 236.25C15933.57 236.25 15924.24 260.19 15906.63 261.46C15906.63 261.46 15894.31 261.0 15904.21 246.61C15904.21 246.61 15918.03 230.61 15935.18 232.57C15935.18 232.57 15951.64 233.14 15937.14 251.45C15928.24 264.39 15907.56 280.49 15901.68 293.81C15901.45 294.36 15898.69 305.2 15916.18 296.22C15920.49 294.02 15933.08 284.61 15937.48 279.65C15971.17 241.66 15971.9 240.28 15971.9 240.28C15971.9 240.28 15935.41 281.37 15935.18 283.68C15935.18 283.68 15927.35 296.34 15933.68 299.33C15933.68 299.33 15941.16 301.29 15950.03 292.42" />
    <path
       id="lv_0000_0052"
       d="M 15900 366.666666667 V 166.666666667"
       style="opacity:1;stroke:#00aa88;stroke-width:0.5" />
    <path
       id="rv_0000_0052"
       d="M 15961.07 366.666666667 V 166.666666667"
       style="opacity:1;stroke:#1b46ff;stroke-width:0.5" />
    <path
       style="stroke-linejoin:round;stroke:#000000;stroke-width:2.0;stroke-linecap:round;fill:none"
       id="V"
       d="M16200.28 236.25C16206.26 229.24 16225.1 227.12 16221.04 237.48C16220.39 239.14 16217.61 242.72 16213.05 247.15C16208.94 251.14 16214.1 255.44 16221.8 252.25C16230.65 248.59 16237.05 242.18 16246.61 234.47C16226.81 250.49 16218.14 274.63 16202.0 292.77C16202.0 292.77 16193.95 300.83 16193.25 300.94C16193.25 300.94 16214.2 287.24 16214.2 287.24C16214.2 287.24 16257.74 254.47 16258.98 253.63C16272.96 244.29 16289.25 218.68 16270.84 227.62C16257.41 236.79 16256.04 262.71 16271.99 259.5" />
    <path
       id="lv_0000_0053"
       d="M 16200 366.666666667 V 166.666666667"
       style="opacity:1;stroke:#00aa88;stroke-width:0.5" />
    <path
       id="rv_0000_0053"
       d="M 16256.61 366.666666667 V 166.666666667"
       style="opacity:1;stroke:#1b46ff;stroke-width:0.5" />
    <path
       style="stroke-linejoin:round;stroke:#000000;stroke-width:2.0;stroke-linecap:round;fill:none"
       id="W"
       d="M16472.4 256.39C16472.58 253.07 16479.87 238.14 16499.45 236.71C16507.99 236.09 16506.32 238.92 16525.46 242.58C16532.74 243.97 16539.05 239.7 16545.15 234.98M16554.01 230.73C16554.01 230.73 16546.76 233.83 16519.25 268.25C16519.25 268.25 16505.78 287.01 16503.59 288.63C16503.59 288.63 16496.23 299.33 16488.51 301.4C16488.51 301.4 16501.52 296.8 16507.97 290.7C16507.97 290.7 16539.62 263.19 16542.5 258.47C16542.5 258.47 16566.44 236.25 16576.23 230.38C16576.47 232.24 16571.66 229.02 16554.24 256.51C16554.24 256.51 16537.67 280.57 16536.28 282.99C16536.28 282.99 16525.92 301.4 16519.25 301.29C16519.25 301.29 16520.86 303.01 16530.41 294.84C16530.41 294.84 16552.63 271.59 16553.2 271.36C16553.2 271.36 16580.95 244.42 16586.36 241.09C16586.36 241.09 16604.39 227.92 16613.06 232.8C16620.69 237.09 16614.9 244.65 16613.75 244.54C16613.75 244.54 16604.08 251.45 16598.56 242.93" />
    <path
       id="lv_0000_0054"
       d="M 16500 366.666666667 V 166.666666667"
       style="opacity:1;stroke:#00aa88;stroke-width:0.5" />
    <path
       id="rv_0000_0054"
       d="M 16573.39 366.666666667 V 166.666666667"
       style="opacity:1;stroke:#1b46ff;stroke-width:0.5" />
    <path
       style="stroke-linejoin:round;stroke:#000000;stroke-width:2.0;stroke-linecap:round;fill:none"
       id="X"
       d="M16843.4 235.91C16843.4 235.91 16837.64 256.63 16820.84 262.27C16820.84 262.27 16807.83 267.1 16812.66 253.29C16812.66 253.29 16824.75 229.69 16843.97 230.96C16843.97 230.96 16862.97 229.23 16842.94 267.45C16842.94 267.45 16829.01 294.38 16840.17 298.53C16840.17 298.53 16849.5 303.59 16863.2 291.27C16878.89 275.35 16871.28 259.37 16860.55 266.18C16853.47 270.67 16854.55 277.57 16857.79 279.99M16897.48 234.04C16897.48 234.04 16896.25 235.79 16897.68 236.52C16897.68 236.52 16900.81 236.81 16899.96 233.43C16900.38 233.5 16897.84 227.99 16884.7 234.04C16870.53 240.56 16859.09 253.03 16848.98 263.02C16827.09 282.59 16820.77 293.98 16800.35 299.56C16796.85 300.46 16785.95 297.67 16788.03 291.04C16787.99 291.0 16789.81 287.49 16792.66 289.37C16794.01 290.26 16792.98 293.23 16789.76 291.62" />
    <path
       id="lv_0000_0055"
       d="M 16800 366.666666667 V 166.666666667"
       style="opacity:1;stroke:#00aa88;stroke-width:0.5" />
    <path
       id="rv_0000_0055"
       d="M 16877.68 366.666666667 V 166.666666667"
       style="opacity:1;stroke:#1b46ff;stroke-width:0.5" />
    <path
       style="stroke-linejoin:round;stroke:#000000;stroke-width:2.0;stroke-linecap:round;fill:none"
       id="Y"
       d="M17131.21 238.61C17131.21 238.61 17127.19 252.04 17110.2 261.8C17110.2 261.8 17095.63 267.89 17100.68 253.31C17100.68 253.31 17110.32 232.87 17136.26 232.41C17136.26 232.41 17155.09 233.33 17137.99 250.21C17137.99 250.21 17119.39 268.58 17117.9 276.73C17117.9 276.73 17116.17 288.21 17130.41 279.02C17130.41 279.02 17140.86 272.36 17151.53 261.0C17151.53 261.0 17170.25 239.07 17175.53 239.65C17175.53 239.65 17165.08 242.75 17151.3 264.9C17140.76 280.09 17126.3 307.83 17105.97 311.88C17101.39 312.4 17091.64 314.36 17088.39 306.0C17087.12 302.71 17090.47 300.52 17091.75 300.98C17094.27 301.88 17092.24 305.0 17090.46 303.5" />
    <path
       id="lv_0000_0056"
       d="M 17100 366.666666667 V 166.666666667"
       style="opacity:1;stroke:#00aa88;stroke-width:0.5" />
    <path
       id="rv_0000_0056"
       d="M 17160.54 366.666666667 V 166.666666667"
       style="opacity:1;stroke:#1b46ff;stroke-width:0.5" />
    <path
       style="stroke-linejoin:round;stroke:#000000;stroke-width:2.0;stroke-linecap:round;fill:none"
       id="Z"
       d="M17441.7 241.48C17441.7 241.48 17439.75 254.96 17428.71 258.53C17428.71 258.53 17417.37 263.04 17419.03 249.3C17419.42 246.08 17425.78 235.42 17439.92 233.37C17452.67 231.52 17462.43 241.21 17472.06 237.42C17472.06 237.42 17480.18 234.5 17481.8 232.55C17481.8 232.55 17458.42 250.55 17448.33 266.75C17447.13 268.15 17421.82 310.34 17399.17 297.26C17395.25 295.0 17405.04 288.45 17421.08 292.95C17435.94 297.12 17464.57 307.35 17469.46 288.47C17470.99 282.59 17467.53 279.69 17463.29 278.01C17463.29 278.01 17458.89 277.2 17458.1 279.25C17457.77 280.12 17459.4 282.4 17461.43 279.77" />
    <path
       id="lv_0000_0057"
       d="M 17400 366.666666667 V 166.666666667"
       style="opacity:1;stroke:#00aa88;stroke-width:0.5" />
    <path
       id="rv_0000_0057"
       d="M 17470.18 366.666666667 V 166.666666667"
       style="opacity:1;stroke:#1b46ff;stroke-width:0.5" />
    <path
       style="stroke-linejoin:round;stroke:#000000;stroke-width:2.0;stroke-linecap:round;fill:none"
       id="["
       d="M17780.51 232.27C17780.51 232.27 17764.95 232.27 17764.95 232.27C17764.95 232.27 17711.87 309.35 17711.87 309.35C17711.87 309.35 17728.43 309.35 17728.43 309.35" />
    <path
       id="lv_0000_0058"
       d="M 17700 366.666666667 V 166.666666667"
       style="opacity:1;stroke:#00aa88;stroke-width:0.5" />
    <path
       id="rv_0000_0058"
       d="M 17781.63 366.666666667 V 166.666666667"
       style="opacity:1;stroke:#1b46ff;stroke-width:0.5" />
    <path
       style="stroke-linejoin:round;stroke:#000000;stroke-width:2.0;stroke-linecap:round;fill:none"
       id="\"
       d="M17986.65 233.77C17986.65 233.77 18032.72 304.48 18032.72 304.48" />
    <path
       id="lv_0000_0059"
       d="M 18000 366.666666667 V 166.666666667"
       style="opacity:1;stroke:#00aa88;stroke-width:0.5" />
    <path
       id="rv_0000_0059"
       d="M 18035.41 366.666666667 V 166.666666667"
       style="opacity:1;stroke:#1b46ff;stroke-width:0.5" />
    <path
       style="stroke-linejoin:round;stroke:#000000;stroke-width:2.0;stroke-linecap:round;fill:none"
       id="]"
       d="M18357.36 232.27C18357.36 232.27 18373.93 232.27 18373.93 232.27C18373.93 232.27 18320.84 309.35 18320.84 309.35C18320.84 309.35 18305.29 309.35 18305.29 309.35" />
    <path
       id="lv_0000_0060"
       d="M 18300 366.666666667 V 166.666666667"
       style="opacity:1;stroke:#00aa88;stroke-width:0.5" />
    <path
       id="rv_0000_0060"
       d="M 18375.88 366.666666667 V 166.666666667"
       style="opacity:1;stroke:#1b46ff;stroke-width:0.5" />
    <path
       style="stroke-linejoin:round;stroke:#000000;stroke-width:2.0;stroke-linecap:round;fill:none"
       id="^"
       d="M18617.83 253.14C18617.83 253.14 18631.12 234.04 18631.12 234.04C18631.12 234.04 18644.51 253.14 18644.51 253.14" />
    <path
       id="lv_0000_0061"
       d="M 18600 366.666666667 V 166.666666667"
       style="opacity:1;stroke:#00aa88;stroke-width:0.5" />
    <path
       id="rv_0000_0061"
       d="M 18646.83 366.666666667 V 166.666666667"
       style="opacity:1;stroke:#1b46ff;stroke-width:0.5" />
    <path
       style="stroke-linejoin:round;stroke:#000000;stroke-width:2.0;stroke-linecap:round;fill:none"
       id="_"
       d="M18885.54 306.34C18906.61 306.34 18927.69 306.34 18948.77 306.34" />
    <path
       id="lv_0000_0062"
       d="M 18900 366.666666667 V 166.666666667"
       style="opacity:1;stroke:#00aa88;stroke-width:0.5" />
    <path
       id="rv_0000_0062"
       d="M 18963.17 366.666666667 V 166.666666667"
       style="opacity:1;stroke:#1b46ff;stroke-width:0.5" />
    <path
       style="stroke-linejoin:round;stroke:#000000;stroke-width:2.0;stroke-linecap:round;fill:none"
       id="`"
       d="M19203.91 249.27C19203.91 249.27 19205.57 244.51 19202.35 244.93C19200.13 245.22 19200.37 253.44 19213.51 260.97" />
    <path
       id="lv_0000_0063"
       d="M 19200 366.666666667 V 166.666666667"
       style="opacity:1;stroke:#00aa88;stroke-width:0.5" />
    <path
       id="rv_0000_0063"
       d="M 19214.22 366.666666667 V 166.666666667"
       style="opacity:1;stroke:#1b46ff;stroke-width:0.5" />
    <path
       style="fill:none;stroke:#000000;stroke-width:2;stroke-linecap:round;stroke-linejoin:round"
       id="a"
       d="M 19500,281.65476 C 19500,281.65476 19517.48,263.56 19528.24,268.76 19528.32,268.48 19530.96,270.12 19528.68,276.44 19528.68,276.44 19532.76,267.8 19524.48,268.16 19522.24,268.24 19507.4,271.92 19497.6,290.92 19497.6,290.92 19494.36,300 19500.76,300 19501.76,300 19503,299.64 19504.56,299.12 19505.32,298.88 19512.24,295.44 19519.92,286.88 19528.8,276.96 19530.8,275 19536.16,269.04 19535.68,268.92 19516.64,292.6 19517.04,297.16 19517.04,297.16 19516.76,299.96 19520,300 19521.12,300 19522.76,299.84 19524.92,298.84 19524.92,298.84 19534,294.41476 19544.16,281.65476"
       inkscape:connector-curvature="0"
       sodipodi:nodetypes="cccccsccccccc" />
    <path
       id="lv_0000_0064"
       d="M 19500 366.666666667 V 166.666666667"
       style="opacity:1;stroke:#00aa88;stroke-width:0.5" />
    <path
       id="rv_0000_0064"
       d="M 19544.16 366.666666667 V 166.666666667"
       style="opacity:1;stroke:#1b46ff;stroke-width:0.5" />
    <path
       style="fill:none;stroke:#000000;stroke-width:2;stroke-linecap:round;stroke-linejoin:round"
       id="b"
       d="M 19813.52,263.8 C 19817.8,268.96 19861.16,242.12 19858.12,225.04 19858.2,225.04 19852.96,214.44 19815.92,261.4 19815.92,261.4 19790.12,291.24 19798.44,299.08 19798.44,299.08 19799.68,299.96 19801.92,300 19806.6,300.04 19816,297.52 19824.28,284.92 19830.72,271.76 19827.48,269.52 19826.32,269.52 19822.96,269.52 19824,284.64 19823.88,287.28 19824.32,296.2 19835.36,286.93476 19839.24,281.65476"
       inkscape:connector-curvature="0"
       sodipodi:nodetypes="ccccccscc" />
    <path
       id="lv_0000_0065"
       d="M 19800 366.666666667 V 166.666666667"
       style="opacity:1;stroke:#00aa88;stroke-width:0.5" />
    <path
       id="rv_0000_0065"
       d="M 19839.24 366.666666667 V 166.666666667"
       style="opacity:1;stroke:#1b46ff;stroke-width:0.5" />
    <path
       style="fill:none;stroke:#000000;stroke-width:2;stroke-linecap:round;stroke-linejoin:round"
       id="c"
       d="M 20100,281.88 C 20107.16,274.52 20125.16,260.84 20125.88,272.32 20126.08,275.2 20118.8,276.8 20120.44,273.96 20121.28,272.52 20125.44,275.04 20126.08,272.68 20126.32,271.72 20126.28,265.96 20119.12,267.88 20105.92,272.76 20086,292.12 20100.88,299.2 20102.16,299.72 20103.56,299.92 20104.96,300 20112.6,300.44 20121.72,293.76 20124.12,291.64 20128.2,288 20130.84,284.13476 20132.76,281.65476"
       inkscape:connector-curvature="0"
       sodipodi:nodetypes="ccccccccc" />
    <path
       id="lv_0000_0066"
       d="M 20100 366.666666667 V 166.666666667"
       style="opacity:1;stroke:#00aa88;stroke-width:0.5" />
    <path
       id="rv_0000_0066"
       d="M 20132.76 366.666666667 V 166.666666667"
       style="opacity:1;stroke:#1b46ff;stroke-width:0.5" />
    <path
       style="fill:none;stroke:#000000;stroke-width:2;stroke-linecap:round;stroke-linejoin:round"
       id="d"
       d="M 20400,281.65476 C 20401.16,279.85476 20427.88,256.36 20428.2,274.52 20430.08,272.84 20424.52,256.72 20402.4,280.96 20396.92,287.24 20392.56,299.52 20400,300 20405.52,300 20410.4,295.2 20420.64,284.52 20436.92,265.56 20450.36,244.48 20465.16,224.36 20447.64,249.72 20429.92,272.48 20416.16,294.84 20416.12,294.92 20413.72,300.36 20418.24,300 20429.2,299.16 20438.2,286.93476 20442.8,281.65476"
       inkscape:connector-curvature="0"
       sodipodi:nodetypes="ccccccccc" />
    <path
       id="lv_0000_0067"
       d="M 20400 366.666666667 V 166.666666667"
       style="opacity:1;stroke:#00aa88;stroke-width:0.5" />
    <path
       id="rv_0000_0067"
       d="M 20442.8 366.666666667 V 166.666666667"
       style="opacity:1;stroke:#1b46ff;stroke-width:0.5" />
    <path
       style="fill:none;stroke:#000000;stroke-width:2;stroke-linecap:round;stroke-linejoin:round"
       id="e"
       d="M 20698.76,286.32 C 20698.76,286.32 20709.48,283.76 20714.76,280.96 20719.68,278.36 20725.88,274.92 20725.56,270.44 20725.56,270.44 20724.88,264.8 20715.16,269.36 20712,270.84 20699.56,279.4 20697.28,289.92 20697.28,289.92 20695.04,299.96 20705.76,300.32 20706.36,300.32 20713.52,300.12 20721.72,293.72 20721.72,293.72 20729.04,287.45476 20733.16,281.65476"
       inkscape:connector-curvature="0"
       sodipodi:nodetypes="cccccccc" />
    <path
       id="lv_0000_0068"
       d="M 20700 366.666666667 V 166.666666667"
       style="opacity:1;stroke:#00aa88;stroke-width:0.5" />
    <path
       id="rv_0000_0068"
       d="M 20733.16 366.666666667 V 166.666666667"
       style="opacity:1;stroke:#1b46ff;stroke-width:0.5" />
    <path
       style="fill:none;stroke:#000000;stroke-width:2;stroke-linecap:round;stroke-linejoin:round"
       id="f"
       d="M 20996.24,291.44 C 20998.76,298.76 20992.32,316.08 20992.32,316.08 20987.68,331.08 20978.4,337.16 20978.4,337.16 20968.2,341.8 20971.44,331.64 20971.44,331.64 20970.56,328.16 21010.64,267 21027.84,242.16 21031.64,236.68 21043.64,218.28 21048.4,226.08 21050.88,234.12 21038.92,249.12 21038.92,249.12 21014.72,280.76 21002.24,283.48 21001.08,283.12 21000.56,282.92 20998.44,283.6 20997.84,279.64 20997.84,279.64 20999.32,278.04 20997.68,276.44 20997.72,276.12 20994.24,275.32 20995.44,282.32 20996.12,285.84 21000.2,290.48 21002.52,291.32 21004.92,292.2 21016.28,295.13476 21027.32,281.65476"
       inkscape:connector-curvature="0"
       sodipodi:nodetypes="ccccccccccccc" />
    <path
       id="lv_0000_0069"
       d="M 21000 366.666666667 V 166.666666667"
       style="opacity:1;stroke:#00aa88;stroke-width:0.5" />
    <path
       id="rv_0000_0069"
       d="M 21027.32 366.666666667 V 166.666666667"
       style="opacity:1;stroke:#1b46ff;stroke-width:0.5" />
    <path
       style="fill:none;stroke:#000000;stroke-width:2;stroke-linecap:round;stroke-linejoin:round"
       id="g"
       d="M 21300,281.65476 C 21300,281.65476 21317.92,268.08 21325.12,267.96 21327.96,267.92 21332.08,270.36 21328.92,277.68 21330.32,276.68 21333.48,259.32 21312.52,273.36 21310.8,274.52 21293.52,289.16 21297.56,297.64 21297.56,297.64 21299.84,303.56 21310.08,296.36 21310.08,296.36 21321.08,287.16 21323.08,284.76 21325.72,281.6 21336.76,270.48 21337.24,269.36 21336.16,267.08 21299.96,323.56 21284.12,333.96 21267.36,344.96 21262.88,334.68 21273.56,327.08 21276.56,324.28 21298.72,313.56 21299.84,313.28 21299.84,313.28 21317.64,305.12 21322.72,302.04 21329.68,297.8 21342.6,285.73476 21345,281.65476"
       inkscape:connector-curvature="0"
       sodipodi:nodetypes="ccccccccccccc" />
    <path
       id="lv_0000_0070"
       d="M 21300 366.666666667 V 166.666666667"
       style="opacity:1;stroke:#00aa88;stroke-width:0.5" />
    <path
       id="rv_0000_0070"
       d="M 21345.0 366.666666667 V 166.666666667"
       style="opacity:1;stroke:#1b46ff;stroke-width:0.5" />
    <path
       style="fill:none;stroke:#000000;stroke-width:2;stroke-linecap:round;stroke-linejoin:round"
       id="h"
       d="M 21600,281.65476 21642.68,224.56 21591.68,298.52 C 21594.6,296.4 21607.64,281.12 21618.16,272.92 21628.52,264.2 21639.68,266.4 21626.88,281.56 21624.88,283.88 21621.68,286.84 21618.56,291.16 21609,304.48 21625.36,301.8 21634.92,292.68 21640.08,287.2 21642.16,284.65476 21644.64,281.65476"
       inkscape:connector-curvature="0"
       sodipodi:nodetypes="cccccccc" />
    <path
       id="lv_0000_0071"
       d="M 21600 366.666666667 V 166.666666667"
       style="opacity:1;stroke:#00aa88;stroke-width:0.5" />
    <path
       id="rv_0000_0071"
       d="M 21644.64 366.666666667 V 166.666666667"
       style="opacity:1;stroke:#1b46ff;stroke-width:0.5" />
    <path
       style="fill:none;stroke:#000000;stroke-width:2;stroke-linecap:round;stroke-linejoin:round"
       id="i"
       d="M 21900,281.65476 21912.64,268.6 C 21905,279.36 21884.24,299.44 21897,300 21904.72,301 21917.12,288.17476 21922.52,281.65476 M 21925.48,253.96 C 21925.12,255.08 21923.92,255.96 21922.84,255.96 21921.76,255.96 21921.16,255.08 21921.52,253.96 21921.88,252.88 21923.04,252 21924.16,252 21925.24,252 21925.84,252.88 21925.48,253.96 V 253.96"
       inkscape:connector-curvature="0"
       sodipodi:nodetypes="cccccscscc" />
    <path
       id="lv_0000_0072"
       d="M 21900 366.666666667 V 166.666666667"
       style="opacity:1;stroke:#00aa88;stroke-width:0.5" />
    <path
       id="rv_0000_0072"
       d="M 21922.52 366.666666667 V 166.666666667"
       style="opacity:1;stroke:#1b46ff;stroke-width:0.5" />
    <path
       style="fill:none;stroke:#000000;stroke-width:2;stroke-linecap:round;stroke-linejoin:round"
       id="j"
       d="M 22210.8,269.2 C 22210.8,269.2 22182.44,307.2 22166.8,324.6 22160.92,331.12 22145.4,342.08 22139.88,337.16 22134.6,331.6 22156.96,320.24 22166.08,316.32 22187.64,308.44 22204.8,300.33476 22219.08,281.65476 M 22222.76,253.96 C 22222.4,255.08 22221.24,255.96 22220.16,255.96 22219.04,255.96 22218.44,255.08 22218.8,253.96 22219.2,252.88 22220.36,252 22221.44,252 22222.56,252 22223.12,252.88 22222.76,253.96 V 253.96"
       inkscape:connector-curvature="0"
       sodipodi:nodetypes="ccccccscscc" />
    <path
       id="lv_0000_0073"
       d="M 22200 366.666666667 V 166.666666667"
       style="opacity:1;stroke:#00aa88;stroke-width:0.5" />
    <path
       id="rv_0000_0073"
       d="M 22219.08 366.666666667 V 166.666666667"
       style="opacity:1;stroke:#1b46ff;stroke-width:0.5" />
    <path
       style="fill:none;stroke:#000000;stroke-width:2;stroke-linecap:round;stroke-linejoin:round"
       id="k"
       d="M 22542.88,224.52 22491.08,298.28 M 22535.96,268.04 C 22535.96,268.04 22536,271.04 22538.52,270.28 22539.88,269.88 22540.32,267.12 22538.92,266.04 22535,263.04 22529.2,266.48 22525.56,271.08 22524,272.92 22521.88,275.24 22519.2,277.72 22519.2,277.72 22513.44,281.2 22510.6,279.6 22509.44,278.96 22512.2,276.56 22517.24,278.16 22525.72,280.4 22522.92,283.96 22517.12,290.08 22510.16,298.48 22514.36,303.24 22524.96,297.68 22528.76,295.68 22536.56,288.85476 22542.4,281.65476"
       inkscape:connector-curvature="0"
       sodipodi:nodetypes="cccccccccccc" />
    <path
       id="lv_0000_0074"
       d="M 22500 366.666666667 V 166.666666667"
       style="opacity:1;stroke:#00aa88;stroke-width:0.5" />
    <path
       id="rv_0000_0074"
       d="M 22542.4 366.666666667 V 166.666666667"
       style="opacity:1;stroke:#1b46ff;stroke-width:0.5" />
    <path
       style="fill:none;stroke:#000000;stroke-width:2;stroke-linecap:round;stroke-linejoin:round"
       id="l"
       d="M 22842.72,224.4 C 22842.72,224.4 22819.6,258.32 22801.36,282.92 22792.4,295.08 22789.72,303 22802.2,298.92 22806.92,297.36 22815.96,289.13476 22822.48,281.65476"
       inkscape:connector-curvature="0"
       sodipodi:nodetypes="cccc" />
    <path
       id="lv_0000_0075"
       d="M 22800 366.666666667 V 166.666666667"
       style="opacity:1;stroke:#00aa88;stroke-width:0.5" />
    <path
       id="rv_0000_0075"
       d="M 22822.48 366.666666667 V 166.666666667"
       style="opacity:1;stroke:#1b46ff;stroke-width:0.5" />
    <path
       style="fill:none;stroke:#000000;stroke-width:2;stroke-linecap:round;stroke-linejoin:round"
       id="m"
       d="M 23100,281.65476 C 23100,281.65476 23110.28,268.76 23113.64,268.16 23115.6,267.84 23119.92,268.88 23112,279.6 L 23099.4,298.28 C 23099.64,299.36 23114.48,283.44 23122.64,275.08 23130.08,267.52 23140.44,264.12 23138.2,272.8 23135.56,281.84 23126.08,289.88 23120.04,298.4 23119.92,298.08 23136.44,280.84 23145.4,273.48 23161,260.72 23165.44,271.28 23151.72,283.24 23150,284.96 23148.16,286.88 23146.52,288.76 23137.12,299.76 23145.64,302.92 23153.64,298.28 23153.64,298.28 23161.88,292.41476 23170.4,281.65476"
       inkscape:connector-curvature="0"
       sodipodi:nodetypes="cccccccccccc" />
    <path
       id="lv_0000_0076"
       d="M 23100 366.666666667 V 166.666666667"
       style="opacity:1;stroke:#00aa88;stroke-width:0.5" />
    <path
       id="rv_0000_0076"
       d="M 23170.4 366.666666667 V 166.666666667"
       style="opacity:1;stroke:#1b46ff;stroke-width:0.5" />
    <path
       style="fill:none;stroke:#000000;stroke-width:2;stroke-linecap:round;stroke-linejoin:round"
       id="n"
       d="M 23400,281.65476 C 23400.08,281.33476 23411.6,267.56 23414.36,267.8 23416.32,267.96 23417,270.16 23412.64,277.16 L 23399.08,298.84 C 23398.4,301.04 23411.84,285.6 23422.8,275.08 23433.08,265.2 23444.44,264.56 23436.16,277.24 23433.88,280.12 23430.36,284 23427.12,287.44 23418.52,296.6 23421.72,303.2 23431.64,299.16 23434.6,297.88 23441.64,294.25476 23451.24,281.65476"
       inkscape:connector-curvature="0"
       sodipodi:nodetypes="ccccccccc" />
    <path
       id="lv_0000_0077"
       d="M 23400 366.666666667 V 166.666666667"
       style="opacity:1;stroke:#00aa88;stroke-width:0.5" />
    <path
       id="rv_0000_0077"
       d="M 23451.24 366.666666667 V 166.666666667"
       style="opacity:1;stroke:#1b46ff;stroke-width:0.5" />
    <path
       style="fill:none;stroke:#000000;stroke-width:2;stroke-linecap:round;stroke-linejoin:round"
       id="o"
       d="M 23724.48,281.88 C 23726.76,275.12 23728.24,268.32 23721.16,268.24 23706.68,268.08 23688.96,298.56 23701.52,300 23703.64,300.12 23706.48,299.68 23710.04,298.04 23713.88,295.72 23718.72,292.96 23723.68,283.56 23725.28,280.48 23716.92,286.84 23720.12,291.44 23720.44,291.88 23724.92,294.81476 23736.16,281.65476"
       inkscape:connector-curvature="0"
       sodipodi:nodetypes="ccccccc" />
    <path
       id="lv_0000_0078"
       d="M 23700 366.666666667 V 166.666666667"
       style="opacity:1;stroke:#00aa88;stroke-width:0.5" />
    <path
       id="rv_0000_0078"
       d="M 23736.16 366.666666667 V 166.666666667"
       style="opacity:1;stroke:#1b46ff;stroke-width:0.5" />
    <path
       style="fill:none;stroke:#000000;stroke-width:2;stroke-linecap:round;stroke-linejoin:round"
       id="p"
       d="M 24000,281.65476 24022.96,253.48 C 24022.96,253.48 23967.12,330.84 23965.28,333.4 23969.72,330.72 24000.12,279.84 24029.08,268.24 24034.16,266.44 24040.72,269.4 24032.4,278.04 24030.04,280.48 24015.32,289.48 24013.96,294.76 24013.96,294.76 24011.68,303.8 24024.36,298.4 24024.36,298.4 24032.08,293.93476 24042.24,281.65476"
       inkscape:connector-curvature="0"
       sodipodi:nodetypes="cccccccc" />
    <path
       id="lv_0000_0079"
       d="M 24000 366.666666667 V 166.666666667"
       style="opacity:1;stroke:#00aa88;stroke-width:0.5" />
    <path
       id="rv_0000_0079"
       d="M 24042.24 366.666666667 V 166.666666667"
       style="opacity:1;stroke:#1b46ff;stroke-width:0.5" />
    <path
       style="fill:none;stroke:#000000;stroke-width:2;stroke-linecap:round;stroke-linejoin:round"
       id="q"
       d="M 24321.36,285.6 C 24321.36,285.6 24326.12,277.44 24326.4,274.2 24326.4,274.2 24328.32,263.44 24312.44,270.44 24307.28,272.72 24291.28,287.36 24294.28,297.64 24294.28,297.64 24296.04,304.44 24311.08,294.28 24311.08,294.28 24321.92,287.24 24327.68,279.96 24330.2,276.84 24335.36,269.48 24334.2,270.12 24332.8,270.92 24287.52,326.12 24286.64,330.12 24286.64,330.12 24277.72,344.04 24292.76,336.16 24292.76,336.16 24310.2,324.12 24316.36,299.92 24316.36,299.92 24317.12,297.52 24316.36,295.52 24316.36,295.52 24317.84,304.8 24327.88,297.4 24327.88,297.4 24335.2,292.29476 24343.12,281.65476"
       inkscape:connector-curvature="0"
       sodipodi:nodetypes="ccccccccccccc" />
    <path
       id="lv_0000_0080"
       d="M 24300 366.666666667 V 166.666666667"
       style="opacity:1;stroke:#00aa88;stroke-width:0.5" />
    <path
       id="rv_0000_0080"
       d="M 24343.12 366.666666667 V 166.666666667"
       style="opacity:1;stroke:#1b46ff;stroke-width:0.5" />
    <path
       style="fill:none;stroke:#000000;stroke-width:2;stroke-linecap:round;stroke-linejoin:round"
       id="r"
       d="M 24600,281.65476 C 24603.8,277.57476 24607.64,271.92 24609.84,267.76 24613.12,261.52 24606.92,261.92 24606.68,266.56 24606.64,271.96 24617.72,272.4 24625,274 24626.4,274.36 24602.08,290.6 24605.36,297.32 24605.36,297.32 24606.76,302.36 24615.64,298.04 24618.72,296.52 24625.96,290.49476 24633.6,281.65476"
       inkscape:connector-curvature="0"
       sodipodi:nodetypes="ccccccc" />
    <path
       id="lv_0000_0081"
       d="M 24600 366.666666667 V 166.666666667"
       style="opacity:1;stroke:#00aa88;stroke-width:0.5" />
    <path
       id="rv_0000_0081"
       d="M 24633.6 366.666666667 V 166.666666667"
       style="opacity:1;stroke:#1b46ff;stroke-width:0.5" />
    <path
       style="fill:none;stroke:#000000;stroke-width:2;stroke-linecap:round;stroke-linejoin:round"
       id="s"
       d="M 24900,281.65476 C 24900,281.65476 24908.06,271.53 24912.87,266.51 24914.11,265.23 24915.85,264.79 24916.81,262.88 24917.41,261.67 24914.82,260.51 24914.17,265.14 24914.17,265.14 24912.76,268.21 24912.91,283.59 24913.03,294.97 24903.69,301.61 24895.49,299.94 24895.49,299.94 24883.15,298.78 24890.98,290.29 24892.88,288.23 24895.38,288.71 24895.8,288.89 24896.39,289.14 24896.15,291.41 24893.18,290.6 M 24911.57,290.78 C 24911.57,290.78 24915.83,291.66 24917.05,291.35 24919.11,290.83 24922.69,289.53476 24929.3,281.65476"
       inkscape:connector-curvature="0"
       sodipodi:nodetypes="cccccccccccc" />
    <path
       id="lv_0000_0082"
       d="M 24900 366.666666667 V 166.666666667"
       style="opacity:1;stroke:#00aa88;stroke-width:0.5" />
    <path
       id="rv_0000_0082"
       d="M 24929.3 366.666666667 V 166.666666667"
       style="opacity:1;stroke:#1b46ff;stroke-width:0.5" />
    <path
       id="t"
       style="fill:none;stroke:#000000;stroke-width:2;stroke-linecap:round;stroke-linejoin:round"
       d="M 25200,281.65476 25227.52,245.84 C 25227.52,245.84 25214,264.4 25197.48,288.4 25194.4,292.92 25190.76,300 25196.76,300 25197.8,300 25199.24,299.92 25200.92,299.4 25200.92,299.4 25208.84,297.73476 25221.48,281.65476 M 25211.32,258.4 H 25236" />
    <path
       id="lv_0000_0083"
       d="M 25200 366.666666667 V 166.666666667"
       style="opacity:1;stroke:#00aa88;stroke-width:0.5" />
    <path
       id="rv_0000_0083"
       d="M 25221.48 366.666666667 V 166.666666667"
       style="opacity:1;stroke:#1b46ff;stroke-width:0.5" />
    <path
       style="fill:none;stroke:#000000;stroke-width:2;stroke-linecap:round;stroke-linejoin:round"
       id="u"
       d="M 25500,281.65476 25513.44,268.36 C 25513.44,268.36 25500.96,281.84 25494.64,291.72 25493.6,293.32 25491.6,300.04 25498,300 25509.84,300.64 25528.48,274.24 25535.72,268.28 25537,267.24 25516.92,289.04 25515.92,294.8 25515.88,295.08 25514.92,299.88 25519.16,300 25520.4,300.04 25522,299.8 25524.2,298.84 25526.84,297.72 25533.96,293.01476 25543.56,281.65476"
       inkscape:connector-curvature="0"
       sodipodi:nodetypes="ccccccccc" />
    <path
       id="lv_0000_0084"
       d="M 25500 366.666666667 V 166.666666667"
       style="opacity:1;stroke:#00aa88;stroke-width:0.5" />
    <path
       id="rv_0000_0084"
       d="M 25543.56 366.666666667 V 166.666666667"
       style="opacity:1;stroke:#1b46ff;stroke-width:0.5" />
    <path
       style="fill:none;stroke:#000000;stroke-width:2;stroke-linecap:round;stroke-linejoin:round"
       id="v"
       d="M 25800,281.65476 25814.12,268.32 C 25814.12,268.32 25796.2,288.04 25793.44,291.88 25792.96,292.52 25788.96,299.88 25796.56,300 25806.32,299.6 25814.84,291.84 25822.52,286.36 25822.52,286.36 25830.8,276.56 25832.8,273.32 25834.16,271.12 25835.72,267.6 25834.48,267.44 25833.48,267.36 25833.16,267.96 25829.12,274.56 25827.68,276.88 25816.56,292.4 25826.92,291.52 25829.16,291 25833.36,287.93476 25839.16,281.65476"
       inkscape:connector-curvature="0"
       sodipodi:nodetypes="cccccccccc" />
    <path
       id="lv_0000_0085"
       d="M 25800 366.666666667 V 166.666666667"
       style="opacity:1;stroke:#00aa88;stroke-width:0.5" />
    <path
       id="rv_0000_0085"
       d="M 25839.16 366.666666667 V 166.666666667"
       style="opacity:1;stroke:#1b46ff;stroke-width:0.5" />
    <path
       style="fill:none;stroke:#000000;stroke-width:2;stroke-linecap:round;stroke-linejoin:round"
       id="w"
       d="M 26100,281.65476 26114.64,268.68 C 26114.64,268.68 26097.72,286.2 26093.08,295.24 26089.76,301.68 26097.2,300.04 26099.32,298.88 26114.6,290.48 26117.48,286.2 26136.08,268.72 26138.4,267.56 26114.28,293.64 26114.24,297.24 26114.24,298.12 26113.68,301.8 26120.64,298.88 26120.64,298.88 26134.72,293.6 26147.08,279.48 26147.2,279.36 26154.6,270.28 26153.56,267.68 26152.2,264.2 26148.08,276.56 26140.68,287 26138.24,290.88 26141.52,292.84 26145.44,291.32 26145.44,291.32 26152,287.77476 26157.04,281.65476"
       inkscape:connector-curvature="0"
       sodipodi:nodetypes="cccccccccccc" />
    <path
       id="lv_0000_0086"
       d="M 26100 366.666666667 V 166.666666667"
       style="opacity:1;stroke:#00aa88;stroke-width:0.5" />
    <path
       id="rv_0000_0086"
       d="M 26157.04 366.666666667 V 166.666666667"
       style="opacity:1;stroke:#1b46ff;stroke-width:0.5" />
    <path
       style="fill:none;stroke:#000000;stroke-width:2;stroke-linecap:round;stroke-linejoin:round"
       id="x"
       d="M 26400,281.65476 C 26405.2,275.84476 26413.21,268.35 26416.57,267.43 26426.48,264.69 26423.23,278.99 26408.34,291.87 26402.92,296.56 26397.47,299.01 26394.8,299.41 26393.45,299.62 26391.13,299.76 26391.13,297.37 26391.13,297.36 26392.68,294.84 26394.36,296.89 26394.51,297.07 26392.4,298.4 26395.29,298.56 26401.97,298.94 26415.16,286.68 26425.07,277.18 M 26440.54,269.63 C 26440.54,269.63 26441.56,273.21 26443.86,271.08 26444.74,270.26 26444.47,266.34 26439.26,267.24 26437.56,267.53 26431.96,268.16 26422.32,280.45 26421.67,281.27 26413.41,293.46 26415.29,297.11 26417.17,300.77 26422.07,300.1 26426.48,297.55 26430.89,295.01 26434.52,293.39476 26445.17,281.65476"
       inkscape:connector-curvature="0"
       sodipodi:nodetypes="ccccscccccccccc" />
    <path
       id="lv_0000_0087"
       d="M 26400 366.666666667 V 166.666666667"
       style="opacity:1;stroke:#00aa88;stroke-width:0.5" />
    <path
       id="rv_0000_0087"
       d="M 26445.17 366.666666667 V 166.666666667"
       style="opacity:1;stroke:#1b46ff;stroke-width:0.5" />
    <path
       style="fill:none;stroke:#000000;stroke-width:2;stroke-linecap:round;stroke-linejoin:round"
       id="y"
       d="M 26700,281.65476 26714.8,268.64 C 26714.8,268.64 26698.84,284.12 26694.32,294.48 26694.32,294.48 26690.96,303.56 26704.04,298.72 26704.04,298.72 26711.2,297.36 26722.88,285.36 26730.56,277.44 26729.4,278.32 26738.32,268.84 26729.48,278 26694.04,341.48 26670.96,338.32 26661.6,337 26677.12,321.96 26701.56,314.28 26710.32,311.52 26724.32,304.48 26732.48,295.72 26740.68,286.92 26744.68,282.09476 26744.6,281.65476"
       inkscape:connector-curvature="0"
       sodipodi:nodetypes="cccccccccc" />
    <path
       id="lv_0000_0088"
       d="M 26700 366.666666667 V 166.666666667"
       style="opacity:1;stroke:#00aa88;stroke-width:0.5" />
    <path
       id="rv_0000_0088"
       d="M 26744.6 366.666666667 V 166.666666667"
       style="opacity:1;stroke:#1b46ff;stroke-width:0.5" />
    <path
       style="fill:none;stroke:#000000;stroke-width:2;stroke-linecap:round;stroke-linejoin:round"
       id="z"
       d="M 27000,281.65476 C 27000.12,281.93476 27003.8,278.6 27007.4,271.28 27007.72,270.68 27010.2,265.52 27010.2,265.52 27011.48,263.4 27010.88,262.28 27009.48,262.72 27006.64,263.6 27006.44,268.2 27007.48,270.92 27008.6,273.92 27012.16,276.28 27015.44,276.88 27018.64,277.48 27027.4,277.64 27033.2,272.64 27036.72,269.56 27036.4,266.12 27031.6,266.64 27030.32,266.76 27023.12,267.2 27016.48,279.16 27009,292.68 27004.32,299.12 26994.56,304.36 27003.12,299.36 27010.68,296.92 27004.84,314.44 27003.32,319 26993.04,334.24 26979,337.96 26969.2,340.56 26971.32,333.36 26973.24,330.8 26980.96,320.48 26996.24,312.96 27009.68,304.88 27019.72,299.28 27027.4,290.77476 27034.44,281.65476"
       inkscape:connector-curvature="0"
       sodipodi:nodetypes="ccccccccccscccc" />
    <path
       id="lv_0000_0089"
       d="M 27000 366.666666667 V 166.666666667"
       style="opacity:1;stroke:#00aa88;stroke-width:0.5" />
    <path
       id="rv_0000_0089"
       d="M 27034.44 366.666666667 V 166.666666667"
       style="opacity:1;stroke:#1b46ff;stroke-width:0.5" />
    <path
       id=""
       style="stroke-linejoin:round;stroke:#000000;stroke-width:2.0;stroke-linecap:round;fill:none"
       d="M 27293.99,292.68 C 27299.49,292.66 27294.04,287 27291.26,292 27290.71,292.99 27289.78,303.47 27307.77,298.21 27313.45,296.54 27327.12,286.22 27351.21,261.81 27351.21,261.81 27384.34,230.05 27390.76,232.78 27390.76,232.78 27337.75,299.05 27337.75,299.05 27337.75,299.05 27345.22,284.64 27340.69,273.7 27340.69,273.7 27334.07,254.56 27316.19,259.29 27316.19,259.29 27300.24,265.6 27313.66,282.01 27315.96,284.82 27325.23,290.11 27335.75,289.9 27335.75,289.9 27353.29,289.59 27363.73,282.43 27370.49,277.79 27373.2,274.12 27376.35,265.81 M 27403.18,224.48 C 27402.99,224.98 27402.61,225.46 27402.14,225.82 27401.66,226.17 27401.11,226.37 27400.63,226.37 27400.14,226.37 27399.75,226.17 27399.55,225.82 27399.34,225.46 27399.33,224.98 27399.52,224.48 27399.71,223.98 27400.09,223.5 27400.57,223.15 27401.05,222.8 27401.59,222.6 27402.08,222.6 27403.09,222.6 27403.58,223.44 27403.18,224.48 27403.18,224.48 27403.18,224.48 27403.18,224.48 M 27388.54,224.48 C 27388.35,224.98 27387.97,225.46 27387.49,225.82 27387.01,226.17 27386.47,226.37 27385.99,226.37 27385.5,226.37 27385.11,226.17 27384.9,225.82 27384.7,225.46 27384.69,224.98 27384.88,224.48 27385.28,223.44 27386.42,222.6 27387.43,222.6 27388.44,222.6 27388.94,223.44 27388.54,224.48 27388.54,224.48 27388.54,224.48 27388.54,224.48" />
    <path
       id="lv_0000_0090"
       d="M 27300 366.666666667 V 166.666666667"
       style="opacity:1;stroke:#00aa88;stroke-width:0.5" />
    <path
       id="rv_0000_0090"
       d="M 27376.77 366.666666667 V 166.666666667"
       style="opacity:1;stroke:#1b46ff;stroke-width:0.5" />
    <path
       style="stroke-linejoin:round;stroke:#000000;stroke-width:2.0;stroke-linecap:round;fill:none"
       id=""
       d="M27669.89 250.44C27669.89 250.44 27679.79 234.21 27662.18 232.37C27662.18 232.37 27637.43 230.18 27612.8 262.53C27601.11 277.87 27601.17 293.61 27610.04 298.56C27610.04 298.56 27628.91 305.92 27651.71 278.3C27651.71 278.3 27668.28 256.31 27657.35 247.45C27657.35 247.45 27644.45 239.62 27627.99 261.15C27627.99 261.15 27617.75 276.8 27624.65 289.92M27651.62 224.54C27651.43 225.04 27651.05 225.52 27650.57 225.87C27650.09 226.23 27649.55 226.42 27649.06 226.42C27648.58 226.42 27648.19 226.23 27647.98 225.87C27647.78 225.52 27647.77 225.04 27647.96 224.54C27648.15 224.04 27648.53 223.56 27649.01 223.21C27649.48 222.85 27650.03 222.65 27650.51 222.65C27651.0 222.65 27651.39 222.85 27651.59 223.21C27651.8 223.56 27651.81 224.04 27651.62 224.54C27651.62 224.54 27651.62 224.54 27651.62 224.54M27666.14 224.54C27665.95 225.04 27665.57 225.52 27665.09 225.87C27664.61 226.23 27664.07 226.42 27663.59 226.42C27663.1 226.42 27662.71 226.23 27662.5 225.87C27662.3 225.52 27662.29 225.04 27662.48 224.54C27662.67 224.04 27663.05 223.56 27663.53 223.21C27664.01 222.85 27664.55 222.65 27665.03 222.65C27665.52 222.65 27665.91 222.85 27666.11 223.21C27666.32 223.56 27666.33 224.04 27666.14 224.54C27666.14 224.54 27666.14 224.54 27666.14 224.54" />
    <path
       id="lv_0000_0091"
       d="M 27600 366.666666667 V 166.666666667"
       style="opacity:1;stroke:#00aa88;stroke-width:0.5" />
    <path
       id="rv_0000_0091"
       d="M 27700.0 366.666666667 V 166.666666667"
       style="opacity:1;stroke:#1b46ff;stroke-width:0.5" />
    <path
       style="stroke-linejoin:round;stroke:#000000;stroke-width:2.0;stroke-linecap:round;fill:none"
       id=""
       d="M27933.3 236.31C27933.3 236.31 27923.98 260.25 27906.37 261.52C27906.37 261.52 27894.05 261.06 27903.95 246.67C27903.95 246.67 27917.77 230.67 27934.92 232.63C27934.92 232.63 27951.38 233.2 27936.87 251.51C27927.97 264.45 27907.3 280.55 27901.42 293.87C27901.19 294.42 27898.43 305.26 27915.92 296.28C27920.23 294.08 27932.82 284.67 27937.22 279.71C27970.91 241.72 27971.64 240.34 27971.64 240.34C27971.64 240.34 27935.15 281.43 27934.92 283.74C27934.92 283.74 27927.09 296.4 27933.42 299.39C27933.42 299.39 27940.9 301.35 27949.77 292.48M27959.15 224.46C27958.96 224.96 27958.58 225.44 27958.1 225.8C27957.63 226.15 27957.08 226.35 27956.6 226.35C27956.11 226.35 27955.72 226.15 27955.52 225.8C27955.31 225.44 27955.3 224.96 27955.49 224.46C27955.68 223.96 27956.06 223.48 27956.54 223.13C27957.02 222.78 27957.56 222.58 27958.04 222.58C27958.53 222.58 27958.92 222.78 27959.13 223.13C27959.33 223.48 27959.34 223.96 27959.15 224.46C27959.15 224.46 27959.15 224.46 27959.15 224.46M27973.88 224.46C27973.69 224.96 27973.31 225.44 27972.84 225.8C27972.36 226.15 27971.82 226.35 27971.33 226.35C27970.85 226.35 27970.46 226.15 27970.25 225.8C27970.04 225.44 27970.03 224.96 27970.22 224.46C27970.42 223.96 27970.79 223.48 27971.27 223.13C27971.75 222.78 27972.29 222.58 27972.78 222.58C27973.26 222.58 27973.65 222.78 27973.86 223.13C27974.07 223.48 27974.08 223.96 27973.88 224.46C27973.88 224.46 27973.88 224.46 27973.88 224.46" />
    <path
       id="lv_0000_0092"
       d="M 27900 366.666666667 V 166.666666667"
       style="opacity:1;stroke:#00aa88;stroke-width:0.5" />
    <path
       id="rv_0000_0092"
       d="M 28000.0 366.666666667 V 166.666666667"
       style="opacity:1;stroke:#1b46ff;stroke-width:0.5" />
    <path
       id=""
       style="fill:none;stroke:#000000;stroke-width:2;stroke-linecap:round;stroke-linejoin:round"
       d="M 28172.4,322.97 C 28184.35,313.7 28236.86,213.31 28254.21,224.43 28257.08,226.32 28258.5,230.65 28254.8,236.42 28252.11,240.62 28247.13,244.77 28233.93,254.48 28228.1,258.77 28229.2,260.45 28231.17,271.7 28232.02,276.59 28233.67,299.48 28214.29,299.64 28211.09,299.67 28203.73,296.24 28207.41,288.84 28211.63,284.7 28214.67,290.7 28209.11,290 M 28222.86,297.95 C 28230.53,298.47 28241.28,292.99476 28249.78,281.65476" />
    <path
       id="lv_0000_0093"
       d="M 28200 366.666666667 V 166.666666667"
       style="opacity:1;stroke:#00aa88;stroke-width:0.5" />
    <path
       id="rv_0000_0093"
       d="M 28249.78 366.666666667 V 166.666666667"
       style="opacity:1;stroke:#1b46ff;stroke-width:0.5" />
    <path
       id=""
       style="fill:none;stroke:#000000;stroke-width:2;stroke-linecap:round;stroke-linejoin:round"
       d="M 28500,281.65476 C 28500,281.65476 28517.4,263.55 28528.14,268.74 28528.24,268.44 28530.86,270.08 28528.58,276.42 28528.58,276.42 28532.7,267.77 28524.38,268.12 28522.18,268.21 28507.33,271.89 28497.51,290.91 28497.51,290.91 28494.28,300 28500.66,299.98 28501.67,299.98 28502.93,299.64 28504.47,299.1 28505.23,298.84 28512.17,295.42 28519.83,286.87 28528.74,276.92 28530.71,274.98 28536.08,269.01 28535.6,268.92 28516.56,292.59 28516.97,297.14 28516.97,297.14 28516.69,299.94 28519.92,299.98 28521.06,299.99 28522.66,299.81 28524.83,298.83 28524.83,298.83 28533.93,294.42476 28544.11,281.65476 M 28545.69,250.42 C 28545.5,250.92 28545.12,251.4 28544.65,251.76 28544.17,252.11 28543.63,252.31 28543.14,252.31 28542.65,252.31 28542.27,252.11 28542.06,251.76 28541.85,251.4 28541.84,250.92 28542.03,250.42 28542.23,249.92 28542.6,249.44 28543.08,249.09 28543.56,248.74 28544.1,248.54 28544.59,248.54 28545.07,248.54 28545.46,248.74 28545.67,249.09 28545.88,249.44 28545.89,249.92 28545.69,250.42 V 250.42 M 28531.14,250.42 C 28530.95,250.92 28530.57,251.4 28530.09,251.76 28529.61,252.11 28529.07,252.31 28528.59,252.31 28528.1,252.31 28527.71,252.11 28527.5,251.76 28527.3,251.4 28527.29,250.92 28527.48,250.42 28527.67,249.92 28528.05,249.44 28528.53,249.09 28529.01,248.74 28529.55,248.54 28530.03,248.54 28530.52,248.54 28530.91,248.74 28531.12,249.09 28531.32,249.44 28531.33,249.92 28531.14,250.42 V 250.42" />
    <path
       id="lv_0000_0094"
       d="M 28500 366.666666667 V 166.666666667"
       style="opacity:1;stroke:#00aa88;stroke-width:0.5" />
    <path
       id="rv_0000_0094"
       d="M 28544.11 366.666666667 V 166.666666667"
       style="opacity:1;stroke:#1b46ff;stroke-width:0.5" />
    <path
       style="fill:none;stroke:#000000;stroke-width:2;stroke-linecap:round;stroke-linejoin:round"
       id=""
       d="M 28824.48,281.86 C 28826.76,275.13 28828.27,268.34 28821.19,268.25 28806.69,268.07 28788.96,298.58 28801.52,300 28803.65,300.11 28806.5,299.7 28810.05,298.02 28813.88,295.71 28818.72,292.94 28823.68,283.56 28825.3,280.49 28816.93,286.85 28820.15,291.44 28820.45,291.87 28825,294.83476 28836.23,281.65476 M 28824.24,250.62 C 28823.84,251.67 28822.7,252.51 28821.69,252.51 28821.2,252.51 28820.81,252.31 28820.61,251.96 28820.4,251.6 28820.39,251.13 28820.58,250.62 28820.98,249.58 28822.12,248.74 28823.13,248.74 28823.62,248.74 28824.01,248.94 28824.22,249.29 28824.42,249.65 28824.43,250.12 28824.24,250.62 V 250.62 M 28838.97,250.62 C 28838.57,251.67 28837.43,252.51 28836.42,252.51 28835.93,252.51 28835.55,252.31 28835.34,251.96 28835.13,251.6 28835.12,251.13 28835.31,250.62 28835.71,249.58 28836.86,248.74 28837.87,248.74 28838.35,248.74 28838.74,248.94 28838.95,249.29 28839.16,249.65 28839.16,250.12 28838.97,250.62 V 250.62"
       inkscape:connector-curvature="0"
       sodipodi:nodetypes="ccccccccsccsccccsccsccc" />
    <path
       id="lv_0000_0095"
       d="M 28800 366.666666667 V 166.666666667"
       style="opacity:1;stroke:#00aa88;stroke-width:0.5" />
    <path
       id="rv_0000_0095"
       d="M 28836.23 366.666666667 V 166.666666667"
       style="opacity:1;stroke:#1b46ff;stroke-width:0.5" />
    <path
       style="fill:none;stroke:#000000;stroke-width:2;stroke-linecap:round;stroke-linejoin:round"
       id=""
       d="M 29100,281.65476 29113.43,268.28 C 29113.43,268.28 29100.94,281.77 29094.62,291.66 29093.6,293.24 29091.6,299.96 29097.98,299.92 29109.85,300.54 29128.46,274.18 29135.72,268.2 29136.98,267.16 29116.92,288.96 29115.93,294.72 29115.88,295.01 29114.89,299.81 29119.17,299.92 29120.38,299.95 29121.99,299.71 29124.21,298.75 29126.81,297.62 29134.03,293.03476 29143.62,281.65476 M 29128.17,250.45 C 29127.77,251.49 29126.63,252.33 29125.62,252.33 29125.13,252.33 29124.74,252.13 29124.53,251.78 29124.33,251.43 29124.32,250.95 29124.51,250.45 29124.91,249.41 29126.05,248.56 29127.06,248.56 29127.55,248.56 29127.94,248.76 29128.15,249.11 29128.35,249.47 29128.36,249.95 29128.17,250.45 V 250.45 M 29142.99,250.45 C 29142.59,251.49 29141.45,252.33 29140.44,252.33 29139.95,252.33 29139.56,252.13 29139.36,251.78 29139.15,251.43 29139.14,250.95 29139.33,250.45 29139.73,249.41 29140.87,248.56 29141.88,248.56 29142.37,248.56 29142.76,248.76 29142.97,249.11 29143.17,249.47 29143.18,249.95 29142.99,250.45 V 250.45"
       inkscape:connector-curvature="0"
       sodipodi:nodetypes="ccccccccccsccsccccsccsccc" />
    <path
       id="lv_0000_0096"
       d="M 29100 366.666666667 V 166.666666667"
       style="opacity:1;stroke:#00aa88;stroke-width:0.5" />
    <path
       id="rv_0000_0096"
       d="M 29143.62 366.666666667 V 166.666666667"
       style="opacity:1;stroke:#1b46ff;stroke-width:0.5" />
    <path
       style="opacity:1;stroke:#ff0066;stroke-width:0.5"
       d="M -4.2103837,281.65476 H 29395.79"
       id="path1410"
       inkscape:connector-curvature="0" />
  </g>
</svg>
