<?xml version="1.0" encoding="UTF-8" standalone="no"?>
<!-- Created with Inkscape (http://www.inkscape.org/) -->

<svg
   xmlns:dc="http://purl.org/dc/elements/1.1/"
   xmlns:cc="http://creativecommons.org/ns#"
   xmlns:rdf="http://www.w3.org/1999/02/22-rdf-syntax-ns#"
   xmlns:svg="http://www.w3.org/2000/svg"
   xmlns="http://www.w3.org/2000/svg"
   xmlns:sodipodi="http://sodipodi.sourceforge.net/DTD/sodipodi-0.dtd"
   xmlns:inkscape="http://www.inkscape.org/namespaces/inkscape"
   id="svg8"
   version="1.1"
   height="600"
   width="5300"
   inkscape:version="0.92.3 (2405546, 2018-03-11)"
   sodipodi:docname="SquareSymbols.svg">
  <sodipodi:namedview
     inkscape:window-maximized="1"
     inkscape:window-y="0"
     inkscape:window-x="0"
     inkscape:window-height="1026"
     inkscape:window-width="1920"
     showgrid="false"
     inkscape:current-layer="g993"
     inkscape:document-units="mm"
     inkscape:cy="345.67552"
     inkscape:cx="5270.029"
     inkscape:zoom="0.42117078"
     inkscape:pageshadow="2"
     inkscape:pageopacity="0.0"
     borderopacity="1.0"
     bordercolor="#666666"
     pagecolor="#ffffff"
     id="base"
     inkscape:snap-global="false" />
  <defs
     id="defs2" />
  <metadata
     id="metadata5">
    <rdf:RDF>
      <cc:Work
         rdf:about="">
        <dc:format>image/svg+xml</dc:format>
        <dc:type
           rdf:resource="http://purl.org/dc/dcmitype/StillImage" />
        <dc:title></dc:title>
      </cc:Work>
    </rdf:RDF>
  </metadata>
  <g
     id="layer1"
     inkscape:groupmode="layer"
     inkscape:label="Layer 1">
    <path
       id="!"
       style="opacity:1;vector-effect:none;fill:none;fill-opacity:1;stroke:#000080;stroke-width:0.18897638;stroke-linecap:butt;stroke-linejoin:miter;stroke-miterlimit:4;stroke-dasharray:none;stroke-dashoffset:0;stroke-opacity:1"
       d="M 616.60714,278.92857 624.46429,229.28571 630.89286,229.10714 618.39286,279.10714 Z M 614.10525,291.6521 H 616.25193 C 617.13702,291.6521 617.69299,292.36458 617.49848,293.24966 L 616.87665,296.0794 C 616.68215,296.96448 615.81302,297.67696 614.92793,297.67696 H 612.78125 C 611.89616,297.67696 611.34019,296.96448 611.5347,296.0794 L 612.15653,293.24966 C 612.35103,292.36458 613.22016,291.6521 614.10525,291.6521 Z"
       inkscape:connector-curvature="0" />
    <path
       id="&quot;"
       style="opacity:1;vector-effect:none;fill:none;fill-opacity:1;stroke:#000080;stroke-width:0.18897638;stroke-linecap:butt;stroke-linejoin:miter;stroke-miterlimit:4;stroke-dasharray:none;stroke-dashoffset:0;stroke-opacity:1"
       d="M 924.41585,229.27402 H 929.08781 L 925.17346,244.4263 H 921.7642 C 921.7642,244.4263 922.01674,232.68328 924.41585,229.27402 Z M 939.18933,229.27402 H 943.86129 L 939.94694,244.4263 H 936.53768 C 936.53768,244.4263 936.79022,232.68328 939.18933,229.27402 Z"
       inkscape:connector-curvature="0" />
    <path
       id="#"
       style="opacity:1;vector-effect:none;fill:none;fill-opacity:1;stroke:#000080;stroke-width:0.18897638;stroke-linecap:butt;stroke-linejoin:miter;stroke-miterlimit:4;stroke-dasharray:none;stroke-dashoffset:0;stroke-opacity:1"
       d="M 1242.8664,228.39013 1217.4864,299.35335 M 1264.5847,228.39013 1239.2047,299.35335 M 1216.6025,252.50752 H 1275.4439 M 1208.9001,274.35207 H 1267.7415"
       inkscape:connector-curvature="0" />
    <path
       id="$"
       style="opacity:1;vector-effect:none;fill:none;fill-opacity:1;stroke:#000080;stroke-width:0.18897638;stroke-linecap:butt;stroke-linejoin:miter;stroke-miterlimit:4;stroke-dasharray:none;stroke-dashoffset:0;stroke-opacity:1"
       d="M 1558.775,231.79643 1535.4634,230.38368 C 1535.4634,230.38368 1525.5737,228.9707 1522.0416,237.09446 L 1518.7807,255.91788 C 1518.7478,255.86042 1518.177,263.08263 1528.1711,263.35294 L 1546.1845,264.14517 C 1546.1845,264.14517 1554.2868,265.68275 1553.3949,272.91469 L 1550.5692,287.74945 C 1549.9958,290.25398 1545.9911,296.73501 1537.936,296.43331 L 1512.8582,294.31397 M 1543.5131,219.29876 1541.4928,230.78924 M 1527.982,295.56528 1525.8354,307.68711"
       inkscape:connector-curvature="0" />
    <path
       id="%"
       style="opacity:1;vector-effect:none;fill:none;fill-opacity:1;stroke:#000080;stroke-width:0.18897638;stroke-linecap:butt;stroke-linejoin:miter;stroke-miterlimit:4;stroke-dasharray:none;stroke-dashoffset:0;stroke-opacity:1"
       d="M 1883.3929,228.57143 1827.5,298.92857 M 1845.4224,255.28544 C 1844.6426,259.75126 1841.7083,261.43295 1838.0988,261.9777 H 1822.694 C 1816.128,261.9777 1816.5973,258.60458 1816.8856,255.79052 1817.3877,250.88991 1818.9333,241.88457 1819.7898,238.7442 1820.5474,235.96628 1820.7664,231.36681 1826.8608,231.04178 1836.331,230.53671 1839.5355,231.14392 1844.5386,231.29432 1847.4946,231.38318 1848.9305,235.19421 1848.2004,239.37554 Z M 1890.6267,289.37809 C 1889.8469,293.84391 1886.9126,295.5256 1883.3031,296.07035 H 1867.8983 C 1861.3323,296.07035 1861.8016,292.69723 1862.0899,289.88317 1862.592,284.98256 1864.1376,275.97722 1864.9941,272.83685 1865.7517,270.05893 1865.9707,265.45946 1872.0651,265.13443 1881.5353,264.62936 1884.7398,265.23657 1889.7429,265.38697 1892.6989,265.47583 1894.1348,269.28686 1893.4047,273.46819 Z"
       inkscape:connector-curvature="0" />
    <path
       id="&amp;"
       style="opacity:1;vector-effect:none;fill:none;fill-opacity:1;stroke:#000080;stroke-width:0.18897638;stroke-linecap:butt;stroke-linejoin:miter;stroke-miterlimit:4;stroke-dasharray:none;stroke-dashoffset:0;stroke-opacity:1"
       d="M 2158.8223,231.7994 C 2158.8223,231.7994 2133.821,227.50625 2128.5177,235.71374 2128.5177,235.71374 2124.9822,241.39585 2129.6541,248.71945 L 2156.6757,299.10081 M 2133.821,256.6744 C 2133.821,256.6744 2116.7707,268.37555 2113.6179,272.2055 2111.9165,274.27227 2109.3248,280.53926 2112.229,287.86286 2114.1605,292.73348 2119.9615,296.32723 2123.8457,296.82797 2128.987,297.49076 2132.9757,295.11302 2136.3464,292.15601 L 2164.1256,267.78608"
       inkscape:connector-curvature="0" />
    <path
       inkscape:connector-curvature="0"
       style="opacity:1;vector-effect:none;fill:none;fill-opacity:1;stroke:#000080;stroke-width:0.18897638;stroke-linecap:butt;stroke-linejoin:miter;stroke-miterlimit:4;stroke-dasharray:none;stroke-dashoffset:0;stroke-opacity:1"
       d="M 2422.0129,229.03101 H 2426.6848 L 2422.7705,244.18329 H 2419.3612 C 2419.3612,244.18329 2419.6138,232.44027 2422.0129,229.03101 Z"
       id="'" />
    <path
       style="opacity:1;vector-effect:none;fill:none;fill-opacity:1;stroke:#000080;stroke-width:0.18897638;stroke-linecap:butt;stroke-linejoin:miter;stroke-miterlimit:4;stroke-dasharray:none;stroke-dashoffset:0;stroke-opacity:1"
       d="M 2743.2143,216.60714 C 2743.2143,216.60714 2698.0357,274.46429 2722.3214,318.03571"
       id="("
       inkscape:connector-curvature="0" />
    <path
       inkscape:connector-curvature="0"
       id=")"
       d="M 3024.8443,217.60514 C 3049.13,261.17656 3003.9514,319.03371 3003.9514,319.03371"
       style="opacity:1;vector-effect:none;fill:none;fill-opacity:1;stroke:#000080;stroke-width:0.18897638;stroke-linecap:butt;stroke-linejoin:miter;stroke-miterlimit:4;stroke-dasharray:none;stroke-dashoffset:0;stroke-opacity:1"
       sodipodi:nodetypes="cc" />
    <path
       id="*"
       style="opacity:1;vector-effect:none;fill:none;fill-opacity:1;stroke:#000080;stroke-width:0.18897638;stroke-linecap:butt;stroke-linejoin:miter;stroke-miterlimit:4;stroke-dasharray:none;stroke-dashoffset:0;stroke-opacity:1"
       d="M 3333.5714,229.82143 3334.9107,238.48214 3338.4822,237.14286 3335.2679,229.10714 Z M 3318.3036,240.26786 3317.8572,242.41071 3328.75,242.5 3329.4643,238.03571 Z M 3325.1786,246.69643 3320.9822,257.58928 3322.9464,258.39286 3329.5536,247.76786 Z M 3331.875,252.58928 3335.5357,248.21428 3342.9464,255.53571 3341.0714,257.58928 Z M 3337.6786,243.21428 3348.6607,236.78571 3349.6429,238.83928 3339.9107,247.23214 Z"
       inkscape:connector-curvature="0" />
    <path
       id="+"
       style="opacity:1;vector-effect:none;fill:none;fill-opacity:1;stroke:#000080;stroke-width:0.18897638;stroke-linecap:butt;stroke-linejoin:miter;stroke-miterlimit:4;stroke-dasharray:none;stroke-dashoffset:0;stroke-opacity:1"
       d="M 3613.125,264.73214 H 3651.5179 M 3635.4464,245.44643 3627.9464,283.83928"
       inkscape:connector-curvature="0" />
    <path
       style="opacity:1;vector-effect:none;fill:none;fill-opacity:1;stroke:#000080;stroke-width:0.18897638;stroke-linecap:butt;stroke-linejoin:miter;stroke-miterlimit:4;stroke-dasharray:none;stroke-dashoffset:0;stroke-opacity:1"
       d="M 3912.8125,297.27678 C 3912.8125,297.27678 3910.4945,297.79418 3910.7589,296.38393 3910.7589,296.38393 3911.2409,293.38743 3911.8304,291.74107 3912.1146,290.94756 3912.5809,290.08133 3913.5715,290.04464 3913.5715,290.04464 3916.1628,289.52619 3917.3453,290.08928 3918.0505,290.42506 3918.596,291.35363 3918.4168,292.1875 3918.4168,292.1875 3917.0181,300.67389 3916.2293,302.36607 3914.753,305.53298 3914.4197,308.16964 3907.7233,307.63393"
       id=","
       inkscape:connector-curvature="0"
       sodipodi:nodetypes="cssssssc" />
    <path
       style="opacity:1;vector-effect:none;fill:none;fill-opacity:1;stroke:#000080;stroke-width:0.18897638;stroke-linecap:butt;stroke-linejoin:miter;stroke-miterlimit:4;stroke-dasharray:none;stroke-dashoffset:0;stroke-opacity:1"
       d="M 4209.1261,271.24892 H 4236.8281"
       id="-"
       inkscape:connector-curvature="0" />
    <path
       inkscape:connector-curvature="0"
       style="opacity:1;vector-effect:none;fill:none;fill-opacity:1;stroke:#000080;stroke-width:0.18897638;stroke-linecap:butt;stroke-linejoin:miter;stroke-miterlimit:4;stroke-dasharray:none;stroke-dashoffset:0;stroke-opacity:1"
       d="M 4514.0841,291.48967 H 4516.2307 C 4517.1158,291.48967 4517.6718,292.20215 4517.4773,293.08723 L 4516.8555,295.91697 C 4516.661,296.80205 4515.7918,297.51453 4514.9067,297.51453 H 4512.7601 C 4511.875,297.51453 4511.319,296.80205 4511.5135,295.91697 L 4512.1353,293.08723 C 4512.3298,292.20215 4513.199,291.48967 4514.0841,291.48967 Z"
       id="." />
    <path
       style="opacity:1;vector-effect:none;fill:none;fill-opacity:1;stroke:#000080;stroke-width:0.18897638;stroke-linecap:butt;stroke-linejoin:miter;stroke-miterlimit:4;stroke-dasharray:none;stroke-dashoffset:0;stroke-opacity:1"
       d="M 4848.0928,225.44885 4805.6516,305.8794"
       id="/"
       inkscape:connector-curvature="0" />
  </g>
  <g
     id="g993"
     inkscape:groupmode="layer"
     inkscape:label="Template"
     style="display:inline">
    <path
       hSeq="0"
       guide="h"
       d="M 0,300 H 4986.2549"
       id="_gh0"
       style="opacity:1;stroke:#ff0066;stroke-width:0.1"
       inkscape:connector-curvature="0"
       sodipodi:nodetypes="cc" />
    <text
       id="text933"
       style="font-style:italic;font-weight:normal;font-size:100px;font-family:'Square Grotesk';text-align:start;fill:#e6e6e6;fill-opacity:0.5;stroke:#000000;stroke-width:0.1;stroke-opacity:0.6"
       y="300.04999"
       x="300" />
    <path
       vSeq="0"
       guide="lv"
       hSeq="0"
       d="M 300,366.71667 V 166.71667"
       id="_gvl0"
       style="opacity:1;stroke:#00aa88;stroke-width:0.1"
       inkscape:connector-curvature="0" />
    <text
       id="text936"
       style="font-style:italic;font-weight:normal;font-size:100px;font-family:'Square Grotesk';text-align:start;fill:#e6e6e6;fill-opacity:0.5;stroke:#000000;stroke-width:0.1;stroke-opacity:0.6"
       y="300.04999"
       x="600">!</text>
    <path
       vSeq="1"
       guide="lv"
       hSeq="0"
       d="M 600,366.71667 V 166.71667"
       id="_gvl1"
       style="opacity:1;stroke:#00aa88;stroke-width:0.1"
       inkscape:connector-curvature="0" />
    <text
       id="text939"
       style="font-style:italic;font-weight:normal;font-size:100px;font-family:'Square Grotesk';text-align:start;fill:#e6e6e6;fill-opacity:0.5;stroke:#000000;stroke-width:0.1;stroke-opacity:0.6"
       y="300.04999"
       x="900">&quot;</text>
    <path
       vSeq="2"
       guide="lv"
       hSeq="0"
       d="M 900,366.71667 V 166.71667"
       id="_gvl2"
       style="opacity:1;stroke:#00aa88;stroke-width:0.1"
       inkscape:connector-curvature="0" />
    <text
       id="text942"
       style="font-style:italic;font-weight:normal;font-size:100px;font-family:'Square Grotesk';text-align:start;fill:#e6e6e6;fill-opacity:0.5;stroke:#000000;stroke-width:0.1;stroke-opacity:0.6"
       y="300.04999"
       x="1200">#</text>
    <path
       vSeq="3"
       guide="lv"
       hSeq="0"
       d="M 1200,366.71667 V 166.71667"
       id="_gvl3"
       style="opacity:1;stroke:#00aa88;stroke-width:0.1"
       inkscape:connector-curvature="0" />
    <text
       id="text945"
       style="font-style:italic;font-weight:normal;font-size:100px;font-family:'Square Grotesk';text-align:start;fill:#e6e6e6;fill-opacity:0.5;stroke:#000000;stroke-width:0.1;stroke-opacity:0.6"
       y="300.04999"
       x="1500">$</text>
    <path
       vSeq="4"
       guide="lv"
       hSeq="0"
       d="M 1500,366.71667 V 166.71667"
       id="_gvl4"
       style="opacity:1;stroke:#00aa88;stroke-width:0.1"
       inkscape:connector-curvature="0" />
    <text
       id="text948"
       style="font-style:italic;font-weight:normal;font-size:100px;font-family:'Square Grotesk';text-align:start;fill:#e6e6e6;fill-opacity:0.5;stroke:#000000;stroke-width:0.1;stroke-opacity:0.6"
       y="300.04999"
       x="1800">%</text>
    <path
       vSeq="5"
       guide="lv"
       hSeq="0"
       d="M 1800,366.71667 V 166.71667"
       id="_gvl5"
       style="opacity:1;stroke:#00aa88;stroke-width:0.1"
       inkscape:connector-curvature="0" />
    <text
       id="text951"
       style="font-style:italic;font-weight:normal;font-size:100px;font-family:'Square Grotesk';text-align:start;fill:#e6e6e6;fill-opacity:0.5;stroke:#000000;stroke-width:0.1;stroke-opacity:0.6"
       y="300.04999"
       x="2100">&amp;</text>
    <path
       vSeq="6"
       guide="lv"
       hSeq="0"
       d="M 2100,366.71667 V 166.71667"
       id="_gvl6"
       style="opacity:1;stroke:#00aa88;stroke-width:0.1"
       inkscape:connector-curvature="0" />
    <text
       id="text954"
       style="font-style:italic;font-weight:normal;font-size:100px;font-family:'Square Grotesk';text-align:start;fill:#e6e6e6;fill-opacity:0.5;stroke:#000000;stroke-width:0.1;stroke-opacity:0.6"
       y="300.04999"
       x="2400">'</text>
    <path
       vSeq="7"
       guide="lv"
       hSeq="0"
       d="M 2400,366.71667 V 166.71667"
       id="_gvl7"
       style="opacity:1;stroke:#00aa88;stroke-width:0.1"
       inkscape:connector-curvature="0" />
    <text
       id="text957"
       style="font-style:italic;font-weight:normal;font-size:100px;font-family:'Square Grotesk';text-align:start;fill:#e6e6e6;fill-opacity:0.5;stroke:#000000;stroke-width:0.1;stroke-opacity:0.6"
       y="300.04999"
       x="2700">(</text>
    <path
       vSeq="8"
       guide="lv"
       hSeq="0"
       d="M 2700,366.71667 V 166.71667"
       id="_gvl8"
       style="opacity:1;stroke:#00aa88;stroke-width:0.1"
       inkscape:connector-curvature="0" />
    <text
       id="text960"
       style="font-style:italic;font-weight:normal;font-size:100px;font-family:'Square Grotesk';text-align:start;fill:#e6e6e6;fill-opacity:0.5;stroke:#000000;stroke-width:0.1;stroke-opacity:0.6"
       y="300.04999"
       x="3000">)</text>
    <path
       vSeq="9"
       guide="lv"
       hSeq="0"
       d="M 3000,366.71667 V 166.71667"
       id="_gvl9"
       style="opacity:1;stroke:#00aa88;stroke-width:0.1"
       inkscape:connector-curvature="0" />
    <text
       id="text963"
       style="font-style:italic;font-weight:normal;font-size:100px;font-family:'Square Grotesk';text-align:start;fill:#e6e6e6;fill-opacity:0.5;stroke:#000000;stroke-width:0.1;stroke-opacity:0.6"
       y="300.04999"
       x="3300">*</text>
    <path
       vSeq="10"
       guide="lv"
       hSeq="0"
       d="M 3300,366.71667 V 166.71667"
       id="_gvl10"
       style="opacity:1;stroke:#00aa88;stroke-width:0.1"
       inkscape:connector-curvature="0" />
    <text
       id="text966"
       style="font-style:italic;font-weight:normal;font-size:100px;font-family:'Square Grotesk';text-align:start;fill:#e6e6e6;fill-opacity:0.5;stroke:#000000;stroke-width:0.1;stroke-opacity:0.6"
       y="300.04999"
       x="3600">+</text>
    <path
       vSeq="11"
       guide="lv"
       hSeq="0"
       d="M 3600,366.71667 V 166.71667"
       id="_gvl11"
       style="opacity:1;stroke:#00aa88;stroke-width:0.1"
       inkscape:connector-curvature="0" />
    <text
       id="text969"
       style="font-style:italic;font-weight:normal;font-size:100px;font-family:'Square Grotesk';text-align:start;fill:#e6e6e6;fill-opacity:0.5;stroke:#000000;stroke-width:0.1;stroke-opacity:0.6"
       y="300.04999"
       x="3900">,</text>
    <path
       vSeq="12"
       guide="lv"
       hSeq="0"
       d="M 3900,366.71667 V 166.71667"
       id="_gvl12"
       style="opacity:1;stroke:#00aa88;stroke-width:0.1"
       inkscape:connector-curvature="0" />
    <text
       id="text972"
       style="font-style:italic;font-weight:normal;font-size:100px;font-family:'Square Grotesk';text-align:start;fill:#e6e6e6;fill-opacity:0.5;stroke:#000000;stroke-width:0.1;stroke-opacity:0.6"
       y="300.04999"
       x="4200">-</text>
    <path
       vSeq="13"
       guide="lv"
       hSeq="0"
       d="M 4200,366.71667 V 166.71667"
       id="_gvl13"
       style="opacity:1;stroke:#00aa88;stroke-width:0.1"
       inkscape:connector-curvature="0" />
    <text
       id="text975"
       style="font-style:italic;font-weight:normal;font-size:100px;font-family:'Square Grotesk';text-align:start;fill:#e6e6e6;fill-opacity:0.5;stroke:#000000;stroke-width:0.1;stroke-opacity:0.6"
       y="300.04999"
       x="4500">.</text>
    <path
       vSeq="14"
       guide="lv"
       hSeq="0"
       d="M 4500,366.71667 V 166.71667"
       id="_gvl14"
       style="opacity:1;stroke:#00aa88;stroke-width:0.1"
       inkscape:connector-curvature="0" />
    <text
       id="text978"
       style="font-style:italic;font-weight:normal;font-size:100px;font-family:'Square Grotesk';text-align:start;fill:#e6e6e6;fill-opacity:0.5;stroke:#000000;stroke-width:0.1;stroke-opacity:0.6"
       y="300.04999"
       x="4800">/</text>
    <path
       vSeq="15"
       guide="lv"
       hSeq="0"
       d="M 4800,366.71667 V 166.71667"
       id="_gvl15"
       style="opacity:1;stroke:#00aa88;stroke-width:0.1"
       inkscape:connector-curvature="0" />
  </g>
</svg>
