<?xml version="1.0" encoding="UTF-8" standalone="no"?>
<!-- Created with Inkscape (http://www.inkscape.org/) -->

<svg
   xmlns:dc="http://purl.org/dc/elements/1.1/"
   xmlns:cc="http://creativecommons.org/ns#"
   xmlns:rdf="http://www.w3.org/1999/02/22-rdf-syntax-ns#"
   xmlns:svg="http://www.w3.org/2000/svg"
   xmlns="http://www.w3.org/2000/svg"
   xmlns:sodipodi="http://sodipodi.sourceforge.net/DTD/sodipodi-0.dtd"
   xmlns:inkscape="http://www.inkscape.org/namespaces/inkscape"
   id="svg8"
   version="1.1"
   height="600"
   width="5300"
   inkscape:version="0.92.3 (2405546, 2018-03-11)"
   sodipodi:docname="SquareSymbols.svg">
  <sodipodi:namedview
     inkscape:window-maximized="1"
     inkscape:window-y="0"
     inkscape:window-x="0"
     inkscape:window-height="1026"
     inkscape:window-width="1920"
     showgrid="false"
     inkscape:current-layer="layer1"
     inkscape:document-units="mm"
     inkscape:cy="338.42072"
     inkscape:cx="3897.5834"
     inkscape:zoom="1.6846831"
     inkscape:pageshadow="2"
     inkscape:pageopacity="0.0"
     borderopacity="1.0"
     bordercolor="#666666"
     pagecolor="#ffffff"
     id="base"
     inkscape:snap-global="false" />
  <defs
     id="defs2" />
  <metadata
     id="metadata5">
    <rdf:RDF>
      <cc:Work
         rdf:about="">
        <dc:format>image/svg+xml</dc:format>
        <dc:type
           rdf:resource="http://purl.org/dc/dcmitype/StillImage" />
        <dc:title />
      </cc:Work>
    </rdf:RDF>
  </metadata>
  <g
     id="g993"
     inkscape:groupmode="layer"
     inkscape:label="Template"
     style="display:inline"
     sodipodi:insensitive="true">
    <path
       d="M 0,300 H 4986.2549"
       id="h_0"
       style="opacity:1;stroke:#ff0066;stroke-width:0.1"
       inkscape:connector-curvature="0"
       sodipodi:nodetypes="cc" />
    <g
       style="font-style:italic;font-weight:normal;font-size:100px;font-family:'Square Grotesk';text-align:start;fill:#e6e6e6;fill-opacity:0.5;stroke:#000000;stroke-width:0.1;stroke-opacity:0.6"
       id="text933" />
    <path
       id="lv_0000_0000"
       d="M 300,366.71667 V 166.71667"
       style="opacity:1;stroke:#00aa88;stroke-width:0.1"
       inkscape:connector-curvature="0" />
    <g
       aria-label="!"
       style="font-style:italic;font-weight:normal;font-size:100px;font-family:'Square Grotesk';text-align:start;fill:#e6e6e6;fill-opacity:0.5;stroke:#000000;stroke-width:0.1;stroke-opacity:0.6"
       id="text936">
      <path
         d="M 622.80273,226.95428 612.89062,280.46991 H 621.48437 L 633.10547,226.95428 Z M 608.25195,297.75507 C 608.10547,298.48749 608.20312,299.07343 608.54492,299.46405 608.93555,299.85468 609.47266,300.04999 610.20508,300.04999 H 616.60156 C 618.11523,300.04999 619.04297,299.31757 619.33594,297.75507 L 620.6543,291.16327 C 620.80078,290.43085 620.75195,289.84491 620.45898,289.35663 620.16602,288.91718 619.62891,288.67303 618.89648,288.67303 H 612.5 C 610.88867,288.67303 609.91211,289.50311 609.57031,291.16327 Z"
         style="font-style:italic;font-weight:normal;font-size:100px;font-family:'Square Grotesk';text-align:start;fill:#e6e6e6;fill-opacity:0.5;stroke:#000000;stroke-width:0.1;stroke-opacity:0.6"
         id="path865"
         inkscape:connector-curvature="0" />
    </g>
    <path
       id="lv_0000_0001"
       d="M 600,366.71667 V 166.71667"
       style="opacity:1;stroke:#00aa88;stroke-width:0.1"
       inkscape:connector-curvature="0" />
    <g
       aria-label="&quot;"
       style="font-style:italic;font-weight:normal;font-size:100px;font-family:'Square Grotesk';text-align:start;fill:#e6e6e6;fill-opacity:0.5;stroke:#000000;stroke-width:0.1;stroke-opacity:0.6"
       id="text939">
      <path
         d="M 935.98633,233.54608 934.375,246.97382 H 941.40625 L 945.06836,233.54608 946.43555,226.85663 H 937.35352 Z M 921.19141,233.54608 919.67773,246.97382 H 926.70898 L 930.37109,233.54608 931.73828,226.85663 H 922.55859 Z"
         style="font-style:italic;font-weight:normal;font-size:100px;font-family:'Square Grotesk';text-align:start;fill:#e6e6e6;fill-opacity:0.5;stroke:#000000;stroke-width:0.1;stroke-opacity:0.6"
         id="path868"
         inkscape:connector-curvature="0" />
    </g>
    <path
       id="lv_0000_0002"
       d="M 900,366.71667 V 166.71667"
       style="opacity:1;stroke:#00aa88;stroke-width:0.1"
       inkscape:connector-curvature="0" />
    <g
       aria-label="#"
       style="font-style:italic;font-weight:normal;font-size:100px;font-family:'Square Grotesk';text-align:start;fill:#e6e6e6;fill-opacity:0.5;stroke:#000000;stroke-width:0.1;stroke-opacity:0.6"
       id="text942">
      <path
         d="M 1230.8105,271.04608 1236.2305,255.76288 H 1251.6602 L 1246.1426,271.14374 Z M 1206.4453,277.44257 H 1221.9238 L 1213.7207,300.04999 H 1220.1172 L 1228.3203,277.44257 1243.7988,277.54022 1235.5957,300.04999 H 1241.9922 L 1250.1953,277.54022 H 1267.8711 L 1270.166,271.14374 H 1252.5391 L 1258.0566,255.76288 H 1275.6348 L 1278.0762,249.36639 H 1260.4492 L 1268.5547,226.85663 H 1262.1582 L 1254.0527,249.36639 H 1238.6719 L 1246.8262,226.85663 H 1240.4297 L 1232.2754,249.36639 H 1216.4551 L 1214.1602,255.76288 H 1229.834 L 1224.4141,271.04608 H 1208.5938 Z"
         style="font-style:italic;font-weight:normal;font-size:100px;font-family:'Square Grotesk';text-align:start;fill:#e6e6e6;fill-opacity:0.5;stroke:#000000;stroke-width:0.1;stroke-opacity:0.6"
         id="path871"
         inkscape:connector-curvature="0" />
    </g>
    <path
       id="lv_0000_0003"
       d="M 1200,366.71667 V 166.71667"
       style="opacity:1;stroke:#00aa88;stroke-width:0.1"
       inkscape:connector-curvature="0" />
    <g
       aria-label="$"
       style="font-style:italic;font-weight:normal;font-size:100px;font-family:'Square Grotesk';text-align:start;fill:#e6e6e6;fill-opacity:0.5;stroke:#000000;stroke-width:0.1;stroke-opacity:0.6"
       id="text945">
      <path
         d="M 1514.9414,250.83124 C 1514.5996,252.49139 1514.3555,254.10272 1514.3555,255.56757 1514.3066,257.08124 1514.5508,258.64374 1514.9902,260.30389 1515.4297,261.96405 1516.2109,263.38007 1517.2363,264.55194 1518.3105,265.72382 1519.873,266.70038 1521.9238,267.48163 1524.0234,268.26288 1526.5625,268.6535 1529.4922,268.6535 H 1541.5039 C 1544.4336,268.6535 1546.2402,269.43475 1547.1191,270.99725 1547.9492,272.55975 1548.0957,274.75702 1547.5098,277.63788 L 1546.2891,283.64374 C 1545.9961,285.10858 1545.459,286.32928 1544.6777,287.4035 1543.8477,288.47772 1543.0176,289.25897 1542.0898,289.84491 1541.1133,290.43085 1540.0879,290.8703 1538.8184,291.2121 1537.5977,291.55389 1536.5723,291.74921 1535.6934,291.84686 1534.7656,291.94452 1533.7891,291.94452 1532.8125,291.94452 1530.0781,291.94452 1527.0508,291.89569 1523.8281,291.79803 1520.5566,291.70038 1517.5293,291.60272 1514.5996,291.50507 1511.6699,291.40741 1509.9121,291.30975 1509.1797,291.26093 L 1507.7637,298.24335 C 1513.2324,299.21991 1518.7012,299.95233 1524.1211,300.44061 L 1522.4121,309.03436 H 1529.0039 L 1530.6641,300.83124 C 1532.8125,300.92889 1534.9609,300.88007 1536.9629,300.63593 1538.9648,300.39178 1541.0156,299.9035 1543.0664,299.12225 1545.0684,298.341 1546.875,297.31561 1548.4863,296.04608 1550.0977,294.77655 1551.5137,293.06757 1552.7344,290.91913 1554.0039,288.77069 1554.9316,286.32928 1555.5176,283.54608 L 1556.7383,277.24725 C 1557.1289,275.44061 1557.3242,273.78046 1557.4219,272.26678 1557.5195,270.80194 1557.373,269.19061 1557.0313,267.53046 1556.6895,265.8703 1556.0547,264.50311 1555.127,263.38007 1554.248,262.25702 1552.8809,261.32928 1551.0254,260.59686 1549.1699,259.86444 1546.875,259.47382 1544.1895,259.47382 H 1532.2266 C 1525.6836,259.47382 1522.998,256.4953 1524.2188,250.44061 L 1525.3906,244.63007 C 1525.8301,242.53046 1526.416,240.82147 1527.2461,239.45428 1528.0762,238.13593 1529.1016,237.15936 1530.3223,236.5246 1531.5918,235.88983 1532.9102,235.45038 1534.1797,235.25507 1535.498,235.05975 1537.0605,235.01093 1538.9648,235.05975 1539.1602,235.05975 1540.8691,235.15741 1544.043,235.25507 1547.2168,235.40155 1550.6348,235.54803 1554.4434,235.69452 1558.2031,235.841 1560.8398,235.93866 1562.3535,235.93866 L 1563.7695,228.76093 C 1555.0293,227.54022 1548.9746,226.8078 1545.5078,226.56366 L 1547.3145,217.62811 H 1540.7227 L 1538.9648,226.27069 C 1536.084,226.36835 1533.5449,226.66132 1531.25,227.24725 1529.0039,227.83319 1526.8066,228.76093 1524.7559,230.07928 1522.6563,231.39764 1520.9473,233.25311 1519.4824,235.64569 1518.0176,238.03827 1516.8945,240.91913 1516.2109,244.3371 Z"
         style="font-style:italic;font-weight:normal;font-size:100px;font-family:'Square Grotesk';text-align:start;fill:#e6e6e6;fill-opacity:0.5;stroke:#000000;stroke-width:0.1;stroke-opacity:0.6"
         id="path874"
         inkscape:connector-curvature="0" />
    </g>
    <path
       id="lv_0000_0004"
       d="M 1500,366.71667 V 166.71667"
       style="opacity:1;stroke:#00aa88;stroke-width:0.1"
       inkscape:connector-curvature="0" />
    <g
       aria-label="%"
       style="font-style:italic;font-weight:normal;font-size:100px;font-family:'Square Grotesk';text-align:start;fill:#e6e6e6;fill-opacity:0.5;stroke:#000000;stroke-width:0.1;stroke-opacity:0.6"
       id="text948">
      <path
         d="M 1865.8203,286.76874 1868.2617,274.65936 C 1868.7012,272.36444 1869.3848,270.85077 1870.2637,270.06952 1871.0938,269.3371 1872.8027,268.94647 1875.3906,268.94647 H 1884.7168 C 1886.9629,268.94647 1888.4277,269.3371 1889.1602,270.11835 1889.7949,270.8996 1889.9414,272.41327 1889.502,274.65936 L 1887.0605,286.76874 C 1886.6211,289.01483 1885.9375,290.47968 1885.0586,291.26093 1884.1797,292.04218 1882.4219,292.4328 1879.834,292.4328 H 1870.5078 C 1868.2617,292.4328 1866.7969,292.091 1866.1621,291.30975 1865.4785,290.5285 1865.3809,289.01483 1865.8203,286.76874 Z M 1858.3984,287.15936 C 1857.5195,291.60272 1857.7637,294.82538 1859.2773,296.82733 1860.7422,298.87811 1863.8672,299.85468 1868.6523,299.85468 H 1878.7598 C 1883.6426,299.85468 1887.207,298.87811 1889.5508,296.82733 1891.8457,294.82538 1893.5059,291.60272 1894.3848,287.15936 L 1896.9727,274.17108 C 1897.8516,269.77655 1897.5098,266.60272 1895.9961,264.60077 1894.4336,262.59882 1891.3574,261.57343 1886.6211,261.57343 H 1876.5137 C 1871.6309,261.57343 1867.9688,262.59882 1865.7227,264.55194 1863.4277,266.55389 1861.8652,269.77655 1860.9863,274.17108 Z M 1822.2168,300.04999 H 1830.1758 L 1888.7695,226.85663 H 1880.8594 Z M 1820.8984,252.05194 1823.291,239.94257 C 1823.7305,237.69647 1824.4141,236.1828 1825.3418,235.40155 1826.2207,234.6203 1827.9785,234.22968 1830.5664,234.22968 H 1839.8926 C 1842.1387,234.22968 1843.5547,234.6203 1844.2383,235.40155 1844.873,236.1828 1844.9707,237.69647 1844.5313,239.94257 L 1842.1387,252.05194 C 1841.6504,254.29803 1840.9668,255.81171 1840.1367,256.59296 1839.2578,257.37421 1837.5,257.76483 1834.9609,257.76483 H 1825.6348 C 1823.3398,257.76483 1821.875,257.37421 1821.1914,256.59296 1820.5078,255.81171 1820.4102,254.29803 1820.8984,252.05194 Z M 1813.4277,252.44257 C 1812.5488,256.88593 1812.8418,260.10858 1814.3066,262.11053 1815.8203,264.16132 1818.9941,265.13788 1823.7793,265.13788 H 1833.8867 C 1838.7695,265.13788 1842.334,264.16132 1844.6289,262.15936 1846.875,260.15741 1848.5352,256.93475 1849.4141,252.44257 L 1852.002,239.45428 C 1852.8809,235.10858 1852.5391,231.93475 1851.0742,229.88397 1849.6094,227.88202 1846.4844,226.85663 1841.748,226.85663 H 1831.6406 C 1826.7578,226.85663 1823.1445,227.88202 1820.8008,229.88397 1818.457,231.88593 1816.8945,235.05975 1816.0156,239.45428 Z"
         style="font-style:italic;font-weight:normal;font-size:100px;font-family:'Square Grotesk';text-align:start;fill:#e6e6e6;fill-opacity:0.5;stroke:#000000;stroke-width:0.1;stroke-opacity:0.6"
         id="path877"
         inkscape:connector-curvature="0" />
    </g>
    <path
       id="lv_0000_0005"
       d="M 1800,366.71667 V 166.71667"
       style="opacity:1;stroke:#00aa88;stroke-width:0.1"
       inkscape:connector-curvature="0" />
    <g
       aria-label="&amp;"
       style="font-style:italic;font-weight:normal;font-size:100px;font-family:'Square Grotesk';text-align:start;fill:#e6e6e6;fill-opacity:0.5;stroke:#000000;stroke-width:0.1;stroke-opacity:0.6"
       id="text951">
      <path
         d="M 2117.8223,286.76874 C 2114.1113,280.51874 2115.9668,274.75702 2123.3887,269.53241 L 2131.7383,263.52655 2141.9922,282.37421 2133.4961,289.16132 C 2131.543,290.72382 2129.541,291.55389 2127.3926,291.70038 2125.2441,291.84686 2123.3398,291.45624 2121.6797,290.5285 2120.0195,289.60077 2118.75,288.33124 2117.8223,286.76874 Z M 2109.1797,291.84686 C 2110.7422,295.16718 2113.2324,297.55975 2116.6504,299.0246 2120.0195,300.48944 2123.6328,300.88007 2127.3926,300.29413 2131.1523,299.70819 2134.6191,298.19452 2137.6465,295.85077 L 2146.0449,289.35663 2151.8066,300.04999 H 2162.5977 L 2153.7598,283.25311 2158.6426,278.76093 2166.2109,268.06757 2163.8672,264.6496 2149.8535,276.466 2134.082,247.07147 C 2132.959,244.92303 2132.2266,243.11639 2132.0313,241.60272 2131.8848,240.08905 2132.1289,238.86835 2132.8125,237.98944 2133.5449,237.11053 2134.5703,236.47577 2135.9863,236.08514 2137.3535,235.69452 2139.1602,235.45038 2141.3574,235.45038 H 2160.5469 L 2161.8164,229.05389 C 2159.7168,228.56561 2157.9102,228.12616 2156.3477,227.83319 2154.7363,227.54022 2152.832,227.24725 2150.5859,226.95428 2148.3398,226.66132 2145.9473,226.56366 2143.4082,226.56366 2140.8691,226.56366 2138.1348,226.75897 2135.3027,227.05194 2132.666,227.34491 2130.127,228.46796 2127.6855,230.51874 2125.1953,232.56952 2123.4863,235.15741 2122.4609,238.18475 2121.4844,241.26093 2121.9238,244.63007 2123.7305,248.24335 L 2128.125,256.44647 2118.6035,263.33124 C 2113.3789,267.18866 2109.7656,271.68085 2107.959,276.8078 2106.1523,281.93475 2106.543,286.96405 2109.1797,291.84686 Z"
         style="font-style:italic;font-weight:normal;font-size:100px;font-family:'Square Grotesk';text-align:start;fill:#e6e6e6;fill-opacity:0.5;stroke:#000000;stroke-width:0.1;stroke-opacity:0.6"
         id="path880"
         inkscape:connector-curvature="0" />
    </g>
    <path
       id="lv_0000_0006"
       d="M 2100,366.71667 V 166.71667"
       style="opacity:1;stroke:#00aa88;stroke-width:0.1"
       inkscape:connector-curvature="0" />
    <g
       aria-label="'"
       style="font-style:italic;font-weight:normal;font-size:100px;font-family:'Square Grotesk';text-align:start;fill:#e6e6e6;fill-opacity:0.5;stroke:#000000;stroke-width:0.1;stroke-opacity:0.6"
       id="text954">
      <path
         d="M 2418.3594,233.54608 2416.7969,246.97382 H 2423.9746 L 2427.6855,233.54608 2429.0527,226.85663 H 2419.7266 Z"
         style="font-style:italic;font-weight:normal;font-size:100px;font-family:'Square Grotesk';text-align:start;fill:#e6e6e6;fill-opacity:0.5;stroke:#000000;stroke-width:0.1;stroke-opacity:0.6"
         id="path883"
         inkscape:connector-curvature="0" />
    </g>
    <path
       id="lv_0000_0007"
       d="M 2400,366.71667 V 166.71667"
       style="opacity:1;stroke:#00aa88;stroke-width:0.1"
       inkscape:connector-curvature="0" />
    <g
       aria-label="("
       style="font-style:italic;font-weight:normal;font-size:100px;font-family:'Square Grotesk';text-align:start;fill:#e6e6e6;fill-opacity:0.5;stroke:#000000;stroke-width:0.1;stroke-opacity:0.6"
       id="text957">
      <path
         d="M 2713.5254,267.4328 C 2712.5977,271.92499 2712.0117,276.36835 2711.7676,280.76288 2711.4746,285.15741 2711.4746,289.06366 2711.7188,292.4328 2711.9141,295.80194 2712.4023,299.12225 2713.0371,302.34491 2713.623,305.56757 2714.209,308.25311 2714.8438,310.30389 2715.4785,312.35468 2716.1133,314.35663 2716.9434,316.2121 2717.6758,318.06757 2718.2129,319.28827 2718.5059,319.82538 2718.7988,320.36249 2718.9941,320.75311 2719.1895,321.04608 H 2728.6133 L 2727.4414,318.45819 C 2726.6113,316.74921 2725.7324,314.21014 2724.8047,310.79218 2723.8281,307.42303 2722.9492,303.66327 2722.168,299.46405 2721.3867,295.26483 2720.9961,290.28436 2721.0449,284.52264 2720.9961,278.76093 2721.582,273.09686 2722.7539,267.4328 2723.7793,262.30585 2725.4395,256.93475 2727.7344,251.27069 2730.0293,245.65546 2732.373,240.82147 2734.6191,236.81757 2736.8652,232.81366 2739.3555,228.85858 2742.041,224.9035 2744.7266,220.94843 2746.582,218.31171 2747.6074,217.04218 2748.584,215.77264 2749.3652,214.79608 2750,214.06366 H 2740.5762 L 2738.3301,216.74921 C 2736.8652,218.60468 2734.9609,221.24139 2732.666,224.65936 2730.3711,228.07733 2727.9785,231.93475 2725.5371,236.13397 2723.0957,240.33319 2720.7031,245.26483 2718.457,250.92889 2716.2109,256.59296 2714.5996,262.06171 2713.5254,267.4328 Z"
         style="font-style:italic;font-weight:normal;font-size:100px;font-family:'Square Grotesk';text-align:start;fill:#e6e6e6;fill-opacity:0.5;stroke:#000000;stroke-width:0.1;stroke-opacity:0.6"
         id="path886"
         inkscape:connector-curvature="0" />
    </g>
    <path
       id="lv_0000_0008"
       d="M 2700,366.71667 V 166.71667"
       style="opacity:1;stroke:#00aa88;stroke-width:0.1"
       inkscape:connector-curvature="0" />
    <g
       aria-label=")"
       style="font-style:italic;font-weight:normal;font-size:100px;font-family:'Square Grotesk';text-align:start;fill:#e6e6e6;fill-opacity:0.5;stroke:#000000;stroke-width:0.1;stroke-opacity:0.6"
       id="text960">
      <path
         d="M 2997.7051,321.04608 H 3007.0801 L 3008.252,319.82538 C 3008.9844,319.04413 3009.9609,317.7746 3011.2793,316.11444 3012.5977,314.45428 3014.0625,312.54999 3015.6738,310.30389 3017.2852,308.10663 3018.9941,305.42108 3020.8008,302.29608 3022.6074,299.17108 3024.2676,295.8996 3025.9277,292.4328 3027.5879,289.01483 3029.1504,285.10858 3030.6152,280.71405 3032.0801,276.31952 3033.3008,271.92499 3034.2285,267.4328 3035.0098,263.52655 3035.4492,259.52264 3035.6934,255.42108 3035.8887,251.31952 3035.8398,247.60858 3035.5957,244.28827 3035.3516,240.96796 3034.9609,237.64764 3034.3262,234.32733 3033.7402,231.00702 3033.1055,228.22382 3032.5195,226.02655 3031.9336,223.82928 3031.2988,221.68085 3030.6152,219.58124 3029.834,217.53046 3029.3945,216.16327 3029.1016,215.5285 3028.8574,214.94257 3028.6133,214.45428 3028.4668,214.06366 H 3019.0918 L 3020.2637,216.89569 C 3020.9961,218.79999 3021.8262,221.53436 3022.7539,225.04999 3023.6816,228.56561 3024.5117,232.47186 3025.293,236.71991 3026.0742,240.96796 3026.4648,245.85077 3026.5137,251.41718 3026.5137,256.98358 3026.0742,262.30585 3025.0488,267.4328 3023.877,273.09686 3022.1191,278.80975 3019.7754,284.6203 3017.4316,290.47968 3015.1367,295.36249 3012.8906,299.31757 3010.6445,303.27264 3008.1543,307.13007 3005.5176,310.88983 3002.832,314.69843 3001.0254,317.13983 3000.0488,318.31171 2999.0234,319.48358 2998.291,320.41132 2997.7051,321.04608 Z"
         style="font-style:italic;font-weight:normal;font-size:100px;font-family:'Square Grotesk';text-align:start;fill:#e6e6e6;fill-opacity:0.5;stroke:#000000;stroke-width:0.1;stroke-opacity:0.6"
         id="path889"
         inkscape:connector-curvature="0" />
    </g>
    <path
       id="lv_0000_0009"
       d="M 3000,366.71667 V 166.71667"
       style="opacity:1;stroke:#00aa88;stroke-width:0.1"
       inkscape:connector-curvature="0" />
    <g
       aria-label="*"
       style="font-style:italic;font-weight:normal;font-size:100px;font-family:'Square Grotesk';text-align:start;fill:#e6e6e6;fill-opacity:0.5;stroke:#000000;stroke-width:0.1;stroke-opacity:0.6"
       id="text963">
      <path
         d="M 3336.2305,242.96991 3340.0391,248.82928 3351.1719,239.16132 3349.7559,235.25507 Z M 3329.7852,252.73553 3341.4551,258.83905 3344.5313,255.37225 3335.3516,246.24139 Z M 3331.6406,228.27264 3333.4473,241.65155 3341.2109,238.52655 3336.2793,226.56366 Z M 3319.4824,258.54608 3323.291,259.9621 3331.7383,246.82733 3324.6094,245.06952 Z M 3316.0156,243.45819 3330.3223,243.94647 3331.3477,236.23163 3316.8945,239.06366 Z"
         style="font-style:italic;font-weight:normal;font-size:100px;font-family:'Square Grotesk';text-align:start;fill:#e6e6e6;fill-opacity:0.5;stroke:#000000;stroke-width:0.1;stroke-opacity:0.6"
         id="path892"
         inkscape:connector-curvature="0" />
    </g>
    <path
       id="lv_0000_0010"
       d="M 3300,366.71667 V 166.71667"
       style="opacity:1;stroke:#00aa88;stroke-width:0.1"
       inkscape:connector-curvature="0" />
    <g
       aria-label="+"
       style="font-style:italic;font-weight:normal;font-size:100px;font-family:'Square Grotesk';text-align:start;fill:#e6e6e6;fill-opacity:0.5;stroke:#000000;stroke-width:0.1;stroke-opacity:0.6"
       id="text966">
      <path
         d="M 3610.8398,268.75116 H 3627.2461 L 3623.9746,285.25507 H 3632.5684 L 3635.8398,268.75116 H 3652.4414 L 3654.1504,260.15741 H 3637.5488 L 3640.8691,243.6535 H 3632.2754 L 3628.9551,260.15741 H 3612.5488 Z"
         style="font-style:italic;font-weight:normal;font-size:100px;font-family:'Square Grotesk';text-align:start;fill:#e6e6e6;fill-opacity:0.5;stroke:#000000;stroke-width:0.1;stroke-opacity:0.6"
         id="path895"
         inkscape:connector-curvature="0" />
    </g>
    <path
       id="lv_0000_0011"
       d="M 3600,366.71667 V 166.71667"
       style="opacity:1;stroke:#00aa88;stroke-width:0.1"
       inkscape:connector-curvature="0" />
    <g
       aria-label=","
       style="font-style:italic;font-weight:normal;font-size:100px;font-family:'Square Grotesk';text-align:start;fill:#e6e6e6;fill-opacity:0.5;stroke:#000000;stroke-width:0.1;stroke-opacity:0.6"
       id="text969">
      <path
         d="M 3908.3984,297.55975 C 3908.252,298.38983 3908.3008,299.0246 3908.7402,299.41522 3909.082,299.85468 3909.6191,300.04999 3910.4004,300.04999 H 3911.5234 L 3911.084,302.24725 C 3910.9863,302.78436 3910.8398,303.22382 3910.6934,303.56561 3910.498,303.95624 3910.1563,304.29803 3909.5703,304.68866 3908.9844,305.07928 3908.252,305.22577 3907.373,305.22577 L 3906.6406,308.83905 3907.666,309.03436 C 3908.3496,309.13202 3909.2285,309.13202 3910.2539,308.98553 3911.2793,308.88788 3912.3535,308.59491 3913.4766,308.20428 3914.5508,307.81366 3915.625,306.98358 3916.6016,305.76288 3917.4805,304.591 3918.2129,303.0285 3918.5547,301.17303 L 3920.5566,291.26093 C 3920.8984,289.45428 3920.2637,288.52655 3918.7012,288.52655 H 3912.6953 C 3911.0352,288.52655 3910.0098,289.45428 3909.668,291.26093 Z"
         style="font-style:italic;font-weight:normal;font-size:100px;font-family:'Square Grotesk';text-align:start;fill:#e6e6e6;fill-opacity:0.5;stroke:#000000;stroke-width:0.1;stroke-opacity:0.6"
         id="path898"
         inkscape:connector-curvature="0" />
    </g>
    <path
       id="lv_0000_0012"
       d="M 3900,366.71667 V 166.71667"
       style="opacity:1;stroke:#00aa88;stroke-width:0.1"
       inkscape:connector-curvature="0" />
    <g
       aria-label="-"
       style="font-style:italic;font-weight:normal;font-size:100px;font-family:'Square Grotesk';text-align:start;fill:#e6e6e6;fill-opacity:0.5;stroke:#000000;stroke-width:0.1;stroke-opacity:0.6"
       id="text972">
      <path
         d="M 4206.9336,275.34296 H 4238.3301 L 4240.0391,266.74921 H 4208.6426 Z"
         style="font-style:italic;font-weight:normal;font-size:100px;font-family:'Square Grotesk';text-align:start;fill:#e6e6e6;fill-opacity:0.5;stroke:#000000;stroke-width:0.1;stroke-opacity:0.6"
         id="path901"
         inkscape:connector-curvature="0" />
    </g>
    <path
       id="lv_0000_0013"
       d="M 4200,366.71667 V 166.71667"
       style="opacity:1;stroke:#00aa88;stroke-width:0.1"
       inkscape:connector-curvature="0" />
    <g
       aria-label="."
       style="font-style:italic;font-weight:normal;font-size:100px;font-family:'Square Grotesk';text-align:start;fill:#e6e6e6;fill-opacity:0.5;stroke:#000000;stroke-width:0.1;stroke-opacity:0.6"
       id="text975">
      <path
         d="M 4508.3496,297.75507 C 4508.2031,298.48749 4508.3008,299.07343 4508.6426,299.46405 4509.0332,299.85468 4509.5703,300.04999 4510.3027,300.04999 H 4516.5039 C 4518.1641,300.04999 4519.1406,299.31757 4519.4336,297.75507 L 4520.752,291.16327 C 4521.0937,289.50311 4520.459,288.67303 4518.7988,288.67303 H 4512.5977 C 4510.9863,288.67303 4510.0098,289.50311 4509.668,291.16327 Z"
         style="font-style:italic;font-weight:normal;font-size:100px;font-family:'Square Grotesk';text-align:start;fill:#e6e6e6;fill-opacity:0.5;stroke:#000000;stroke-width:0.1;stroke-opacity:0.6"
         id="path904"
         inkscape:connector-curvature="0" />
    </g>
    <path
       id="lv_0000_0014"
       d="M 4500,366.71667 V 166.71667"
       style="opacity:1;stroke:#00aa88;stroke-width:0.1"
       inkscape:connector-curvature="0" />
    <g
       aria-label="/"
       style="font-style:italic;font-weight:normal;font-size:100px;font-family:'Square Grotesk';text-align:start;fill:#e6e6e6;fill-opacity:0.5;stroke:#000000;stroke-width:0.1;stroke-opacity:0.6"
       id="text978">
      <path
         d="M 4800.4883,307.22772 H 4810.2051 L 4855.0781,223.04803 H 4845.3613 Z"
         style="font-style:italic;font-weight:normal;font-size:100px;font-family:'Square Grotesk';text-align:start;fill:#e6e6e6;fill-opacity:0.5;stroke:#000000;stroke-width:0.1;stroke-opacity:0.6"
         id="path907"
         inkscape:connector-curvature="0" />
    </g>
    <path
       id="lv_0000_0015"
       d="M 4800,366.71667 V 166.71667"
       style="opacity:1;stroke:#00aa88;stroke-width:0.1"
       inkscape:connector-curvature="0" />
  </g>
  <g
     id="layer1"
     inkscape:groupmode="layer"
     inkscape:label="Layer 1">
    <path
       id="!"
       style="opacity:1;vector-effect:none;fill:none;fill-opacity:1;stroke:#000080;stroke-width:0.18897638;stroke-linecap:butt;stroke-linejoin:miter;stroke-miterlimit:4;stroke-dasharray:none;stroke-dashoffset:0;stroke-opacity:1"
       d="M 616.60714,278.92857 624.46429,229.28571 630.89286,229.10714 618.39286,279.10714 Z M 614.10525,291.6521 H 616.25193 C 617.13702,291.6521 617.69299,292.36458 617.49848,293.24966 L 616.87665,296.0794 C 616.68215,296.96448 615.81302,297.67696 614.92793,297.67696 H 612.78125 C 611.89616,297.67696 611.34019,296.96448 611.5347,296.0794 L 612.15653,293.24966 C 612.35103,292.36458 613.22016,291.6521 614.10525,291.6521 Z"
       inkscape:connector-curvature="0" />
    <path
       id="&quot;"
       style="opacity:1;vector-effect:none;fill:none;fill-opacity:1;stroke:#000080;stroke-width:0.18897638;stroke-linecap:butt;stroke-linejoin:miter;stroke-miterlimit:4;stroke-dasharray:none;stroke-dashoffset:0;stroke-opacity:1"
       d="M 924.41585,229.27402 H 929.08781 L 925.17346,244.4263 H 921.7642 C 921.7642,244.4263 922.01674,232.68328 924.41585,229.27402 Z M 939.18933,229.27402 H 943.86129 L 939.94694,244.4263 H 936.53768 C 936.53768,244.4263 936.79022,232.68328 939.18933,229.27402 Z"
       inkscape:connector-curvature="0" />
    <path
       id="#"
       style="opacity:1;vector-effect:none;fill:none;fill-opacity:1;stroke:#000080;stroke-width:0.18897638;stroke-linecap:butt;stroke-linejoin:miter;stroke-miterlimit:4;stroke-dasharray:none;stroke-dashoffset:0;stroke-opacity:1"
       d="M 1242.8664,228.39013 1217.4864,299.35335 M 1264.5847,228.39013 1239.2047,299.35335 M 1216.6025,252.50752 H 1275.4439 M 1208.9001,274.35207 H 1267.7415"
       inkscape:connector-curvature="0" />
    <path
       id="$"
       style="opacity:1;vector-effect:none;fill:none;fill-opacity:1;stroke:#000080;stroke-width:0.18897638;stroke-linecap:butt;stroke-linejoin:miter;stroke-miterlimit:4;stroke-dasharray:none;stroke-dashoffset:0;stroke-opacity:1"
       d="M 1558.775,231.79643 1535.4634,230.38368 C 1535.4634,230.38368 1525.5737,228.9707 1522.0416,237.09446 L 1518.7807,255.91788 C 1518.7478,255.86042 1518.177,263.08263 1528.1711,263.35294 L 1546.1845,264.14517 C 1546.1845,264.14517 1554.2868,265.68275 1553.3949,272.91469 L 1550.5692,287.74945 C 1549.9958,290.25398 1545.9911,296.73501 1537.936,296.43331 L 1512.8582,294.31397 M 1543.5131,219.29876 1541.4928,230.78924 M 1527.982,295.56528 1525.8354,307.68711"
       inkscape:connector-curvature="0" />
    <path
       id="%"
       style="opacity:1;vector-effect:none;fill:none;fill-opacity:1;stroke:#000080;stroke-width:0.18897638;stroke-linecap:butt;stroke-linejoin:miter;stroke-miterlimit:4;stroke-dasharray:none;stroke-dashoffset:0;stroke-opacity:1"
       d="M 1883.3929,228.57143 1827.5,298.92857 M 1845.4224,255.28544 C 1844.6426,259.75126 1841.7083,261.43295 1838.0988,261.9777 H 1822.694 C 1816.128,261.9777 1816.5973,258.60458 1816.8856,255.79052 1817.3877,250.88991 1818.9333,241.88457 1819.7898,238.7442 1820.5474,235.96628 1820.7664,231.36681 1826.8608,231.04178 1836.331,230.53671 1839.5355,231.14392 1844.5386,231.29432 1847.4946,231.38318 1848.9305,235.19421 1848.2004,239.37554 Z M 1890.6267,289.37809 C 1889.8469,293.84391 1886.9126,295.5256 1883.3031,296.07035 H 1867.8983 C 1861.3323,296.07035 1861.8016,292.69723 1862.0899,289.88317 1862.592,284.98256 1864.1376,275.97722 1864.9941,272.83685 1865.7517,270.05893 1865.9707,265.45946 1872.0651,265.13443 1881.5353,264.62936 1884.7398,265.23657 1889.7429,265.38697 1892.6989,265.47583 1894.1348,269.28686 1893.4047,273.46819 Z"
       inkscape:connector-curvature="0" />
    <path
       id="&amp;"
       style="opacity:1;vector-effect:none;fill:none;fill-opacity:1;stroke:#000080;stroke-width:0.18897638;stroke-linecap:butt;stroke-linejoin:miter;stroke-miterlimit:4;stroke-dasharray:none;stroke-dashoffset:0;stroke-opacity:1"
       d="M 2158.8223,231.7994 C 2158.8223,231.7994 2133.821,227.50625 2128.5177,235.71374 2128.5177,235.71374 2124.9822,241.39585 2129.6541,248.71945 L 2156.6757,299.10081 M 2133.821,256.6744 C 2133.821,256.6744 2116.7707,268.37555 2113.6179,272.2055 2111.9165,274.27227 2109.3248,280.53926 2112.229,287.86286 2114.1605,292.73348 2119.9615,296.32723 2123.8457,296.82797 2128.987,297.49076 2132.9757,295.11302 2136.3464,292.15601 L 2164.1256,267.78608"
       inkscape:connector-curvature="0" />
    <path
       inkscape:connector-curvature="0"
       style="opacity:1;vector-effect:none;fill:none;fill-opacity:1;stroke:#000080;stroke-width:0.18897638;stroke-linecap:butt;stroke-linejoin:miter;stroke-miterlimit:4;stroke-dasharray:none;stroke-dashoffset:0;stroke-opacity:1"
       d="M 2422.0129,229.03101 H 2426.6848 L 2422.7705,244.18329 H 2419.3612 C 2419.3612,244.18329 2419.6138,232.44027 2422.0129,229.03101 Z"
       id="'" />
    <path
       style="opacity:1;vector-effect:none;fill:none;fill-opacity:1;stroke:#000080;stroke-width:0.18897638;stroke-linecap:butt;stroke-linejoin:miter;stroke-miterlimit:4;stroke-dasharray:none;stroke-dashoffset:0;stroke-opacity:1"
       d="M 2743.2143,216.60714 C 2743.2143,216.60714 2698.0357,274.46429 2722.3214,318.03571"
       id="("
       inkscape:connector-curvature="0" />
    <path
       inkscape:connector-curvature="0"
       id=")"
       d="M 3024.8443,217.60514 C 3049.13,261.17656 3003.9514,319.03371 3003.9514,319.03371"
       style="opacity:1;vector-effect:none;fill:none;fill-opacity:1;stroke:#000080;stroke-width:0.18897638;stroke-linecap:butt;stroke-linejoin:miter;stroke-miterlimit:4;stroke-dasharray:none;stroke-dashoffset:0;stroke-opacity:1"
       sodipodi:nodetypes="cc" />
    <path
       id="*"
       style="opacity:1;vector-effect:none;fill:none;fill-opacity:1;stroke:#000080;stroke-width:0.18897638;stroke-linecap:butt;stroke-linejoin:miter;stroke-miterlimit:4;stroke-dasharray:none;stroke-dashoffset:0;stroke-opacity:1"
       d="M 3333.5714,229.82143 3334.9107,238.48214 3338.4822,237.14286 3335.2679,229.10714 Z M 3318.3036,240.26786 3317.8572,242.41071 3328.75,242.5 3329.4643,238.03571 Z M 3325.1786,246.69643 3320.9822,257.58928 3322.9464,258.39286 3329.5536,247.76786 Z M 3331.875,252.58928 3335.5357,248.21428 3342.9464,255.53571 3341.0714,257.58928 Z M 3337.6786,243.21428 3348.6607,236.78571 3349.6429,238.83928 3339.9107,247.23214 Z"
       inkscape:connector-curvature="0" />
    <path
       id="+"
       style="opacity:1;vector-effect:none;fill:none;fill-opacity:1;stroke:#000080;stroke-width:0.18897638;stroke-linecap:butt;stroke-linejoin:miter;stroke-miterlimit:4;stroke-dasharray:none;stroke-dashoffset:0;stroke-opacity:1"
       d="M 3613.125,264.73214 H 3651.5179 M 3635.4464,245.44643 3627.9464,283.83928"
       inkscape:connector-curvature="0" />
    <path
       style="opacity:1;vector-effect:none;fill:none;fill-opacity:1;stroke:#000080;stroke-width:0.18897638;stroke-linecap:butt;stroke-linejoin:miter;stroke-miterlimit:4;stroke-dasharray:none;stroke-dashoffset:0;stroke-opacity:1"
       d="M 3912.8125,297.27678 C 3912.8125,297.27678 3910.4945,297.79418 3910.7589,296.38393 3910.7589,296.38393 3911.2409,293.38743 3911.8304,291.74107 3912.1146,290.94756 3912.5809,290.08133 3913.5715,290.04464 3913.5715,290.04464 3916.1628,289.52619 3917.3453,290.08928 3918.0505,290.42506 3918.596,291.35363 3918.4168,292.1875 3918.4168,292.1875 3917.0181,300.67389 3916.2293,302.36607 3914.753,305.53298 3914.4197,308.16964 3907.7233,307.63393"
       id=","
       inkscape:connector-curvature="0"
       sodipodi:nodetypes="cssssssc" />
    <path
       style="opacity:1;vector-effect:none;fill:none;fill-opacity:1;stroke:#000080;stroke-width:0.18897638;stroke-linecap:butt;stroke-linejoin:miter;stroke-miterlimit:4;stroke-dasharray:none;stroke-dashoffset:0;stroke-opacity:1"
       d="M 4209.1261,271.24892 H 4236.8281"
       id="-"
       inkscape:connector-curvature="0" />
    <path
       inkscape:connector-curvature="0"
       style="opacity:1;vector-effect:none;fill:none;fill-opacity:1;stroke:#000080;stroke-width:0.18897638;stroke-linecap:butt;stroke-linejoin:miter;stroke-miterlimit:4;stroke-dasharray:none;stroke-dashoffset:0;stroke-opacity:1"
       d="M 4514.0841,291.48967 H 4516.2307 C 4517.1158,291.48967 4517.6718,292.20215 4517.4773,293.08723 L 4516.8555,295.91697 C 4516.661,296.80205 4515.7918,297.51453 4514.9067,297.51453 H 4512.7601 C 4511.875,297.51453 4511.319,296.80205 4511.5135,295.91697 L 4512.1353,293.08723 C 4512.3298,292.20215 4513.199,291.48967 4514.0841,291.48967 Z"
       id="." />
    <path
       style="opacity:1;vector-effect:none;fill:none;fill-opacity:1;stroke:#000080;stroke-width:0.18897638;stroke-linecap:butt;stroke-linejoin:miter;stroke-miterlimit:4;stroke-dasharray:none;stroke-dashoffset:0;stroke-opacity:1"
       d="M 4848.0928,225.44885 4805.6516,305.8794"
       id="/"
       inkscape:connector-curvature="0" />
  </g>
</svg>
