<?xml version="1.0" encoding="UTF-8" standalone="no"?>
<!-- Created with Inkscape (http://www.inkscape.org/) -->

<svg
   xmlns:dc="http://purl.org/dc/elements/1.1/"
   xmlns:cc="http://creativecommons.org/ns#"
   xmlns:rdf="http://www.w3.org/1999/02/22-rdf-syntax-ns#"
   xmlns:svg="http://www.w3.org/2000/svg"
   xmlns="http://www.w3.org/2000/svg"
   xmlns:sodipodi="http://sodipodi.sourceforge.net/DTD/sodipodi-0.dtd"
   xmlns:inkscape="http://www.inkscape.org/namespaces/inkscape"
   width="3900"
   height="750"
   version="1.1"
   id="svg8"
   inkscape:version="0.92.3 (2405546, 2018-03-11)"
   sodipodi:docname="SquareNormal.svg">
  <sodipodi:namedview
     id="base"
     pagecolor="#ffffff"
     bordercolor="#666666"
     borderopacity="1.0"
     inkscape:pageopacity="0.0"
     inkscape:pageshadow="2"
     inkscape:zoom="2.4251321"
     inkscape:cx="237.48843"
     inkscape:cy="174.96861"
     inkscape:document-units="mm"
     inkscape:current-layer="svg8"
     showgrid="false"
     inkscape:window-width="1920"
     inkscape:window-height="1026"
     inkscape:window-x="0"
     inkscape:window-y="0"
     inkscape:window-maximized="1"
     inkscape:snap-global="false" />
  <defs
     id="defs2" />
  <metadata
     id="metadata5">
    <rdf:RDF>
      <cc:Work
         rdf:about="">
        <dc:format>image/svg+xml</dc:format>
        <dc:type
           rdf:resource="http://purl.org/dc/dcmitype/StillImage" />
        <dc:title />
      </cc:Work>
    </rdf:RDF>
  </metadata>
  <g
     inkscape:label="Layer 1"
     inkscape:groupmode="layer"
     id="layer1" />
  <g
     inkscape:label="Template"
     inkscape:groupmode="layer"
     id="g1114" />
  <g
     id="g1716"
     inkscape:groupmode="layer"
     inkscape:label="Template">
    <path
       id="h_0"
       d="M 0 150 H 3900"
       style="opacity:1;stroke:#ff0066;stroke-width:0.25" />
    <path
       style="stroke-linejoin:round;stroke:#000000;stroke-width:1.0;stroke-linecap:round;fill:none"
       id="!"
       d="M158.305 139.465C158.305 139.465 162.23 114.645 162.23 114.645C162.23 114.645 165.445 114.555 165.445 114.555C165.445 114.555 159.195 139.555 159.195 139.555C159.195 139.555 158.305 139.465 158.305 139.465M157.055 145.825C157.055 145.825 158.125 145.825 158.125 145.825C158.57 145.825 158.845 146.18 158.75 146.625C158.75 146.625 158.44 148.04 158.44 148.04C158.34 148.48 157.905 148.84 157.465 148.84C157.465 148.84 156.39 148.84 156.39 148.84C155.95 148.84 155.67 148.48 155.765 148.04C155.765 148.04 156.08 146.625 156.08 146.625C156.175 146.18 156.61 145.825 157.055 145.825C157.055 145.825 157.055 145.825 157.055 145.825"
       transform="matrix(1,0,0.17632698,1,-25,0)" />
    <path
       id="lv_0000_0000"
       d="M 150 183.333333333 V 83.3333333333"
       style="opacity:1;stroke:#00aa88;stroke-width:0.25" />
    <path
       id="rv_0000_0000"
       d="M 165.445 183.333333333 V 83.3333333333"
       style="opacity:1;stroke:#1b46ff;stroke-width:0.25" />
    <path
       style="stroke-linejoin:round;stroke:#000000;stroke-width:1.0;stroke-linecap:round;fill:none"
       id="&quot;"
       d="M312.21 114.635C312.21 114.635 314.545 114.635 314.545 114.635C314.545 114.635 312.585 122.215 312.585 122.215C312.585 122.215 310.88 122.215 310.88 122.215C310.88 122.215 311.01 116.34 312.21 114.635C312.21 114.635 312.21 114.635 312.21 114.635M319.595 114.635C319.595 114.635 321.93 114.635 321.93 114.635C321.93 114.635 319.975 122.215 319.975 122.215C319.975 122.215 318.27 122.215 318.27 122.215C318.27 122.215 318.395 116.34 319.595 114.635C319.595 114.635 319.595 114.635 319.595 114.635"
       transform="matrix(1,0,0.17632698,1,-25,0)" />
    <path
       id="lv_0000_0001"
       d="M 300 183.333333333 V 83.3333333333"
       style="opacity:1;stroke:#00aa88;stroke-width:0.25" />
    <path
       id="rv_0000_0001"
       d="M 321.93 183.333333333 V 83.3333333333"
       style="opacity:1;stroke:#1b46ff;stroke-width:0.25" />
    <path
       style="stroke-linejoin:round;stroke:#000000;stroke-width:1.0;stroke-linecap:round;fill:none"
       id="#"
       d="M471.435 114.195C471.435 114.195 458.745 149.675 458.745 149.675M482.29 114.195C482.29 114.195 469.6 149.675 469.6 149.675M458.3 126.255C458.3 126.255 487.72 126.255 487.72 126.255M454.45 137.175C454.45 137.175 483.87 137.175 483.87 137.175"
       transform="matrix(1,0,0.17632698,1,-25,0)" />
    <path
       id="lv_0000_0002"
       d="M 450 183.333333333 V 83.3333333333"
       style="opacity:1;stroke:#00aa88;stroke-width:0.25" />
    <path
       id="rv_0000_0002"
       d="M 487.72 183.333333333 V 83.3333333333"
       style="opacity:1;stroke:#1b46ff;stroke-width:0.25" />
    <path
       style="stroke-linejoin:round;stroke:#000000;stroke-width:1.0;stroke-linecap:round;fill:none"
       id="$"
       d="M629.39 115.9C629.39 115.9 617.73 115.19 617.73 115.19C617.73 115.19 612.785 114.485 611.02 118.545C611.02 118.545 609.39 127.96 609.39 127.96C609.375 127.93 609.09 131.54 614.085 131.675C614.085 131.675 623.09 132.075 623.09 132.075C623.09 132.075 627.145 132.84 626.695 136.455C626.695 136.455 625.285 143.875 625.285 143.875C625.0 145.125 622.995 148.37 618.97 148.215C618.97 148.215 606.43 147.155 606.43 147.155M621.755 109.65C621.755 109.65 620.745 115.395 620.745 115.395M613.99 147.785C613.99 147.785 612.92 153.845 612.92 153.845"
       transform="matrix(1,0,0.17632698,1,-25,0)" />
    <path
       id="lv_0000_0003"
       d="M 600 183.333333333 V 83.3333333333"
       style="opacity:1;stroke:#00aa88;stroke-width:0.25" />
    <path
       id="rv_0000_0003"
       d="M 629.39 183.333333333 V 83.3333333333"
       style="opacity:1;stroke:#1b46ff;stroke-width:0.25" />
    <path
       style="stroke-linejoin:round;stroke:#000000;stroke-width:1.0;stroke-linecap:round;fill:none"
       id="%"
       d="M791.695 114.285C791.695 114.285 763.75 149.465 763.75 149.465M772.71 127.645C772.32 129.875 770.855 130.715 769.05 130.99C769.05 130.99 761.345 130.99 761.345 130.99C758.065 130.99 758.3 129.3 758.445 127.895C758.695 125.445 759.465 120.94 759.895 119.37C760.275 117.985 760.385 115.685 763.43 115.52C768.165 115.27 769.77 115.57 772.27 115.645C773.745 115.69 774.465 117.595 774.1 119.69C774.1 119.69 772.71 127.645 772.71 127.645M795.315 144.69C794.925 146.92 793.455 147.765 791.65 148.035C791.65 148.035 783.95 148.035 783.95 148.035C780.665 148.035 780.9 146.35 781.045 144.94C781.295 142.49 782.07 137.99 782.495 136.42C782.875 135.03 782.985 132.73 786.035 132.565C790.77 132.315 792.37 132.62 794.87 132.695C796.35 132.74 797.065 134.645 796.7 136.735C796.7 136.735 795.315 144.69 795.315 144.69"
       transform="matrix(1,0,0.17632698,1,-28,0)" />
    <path
       id="lv_0000_0004"
       d="M 750 183.333333333 V 83.3333333333"
       style="opacity:1;stroke:#00aa88;stroke-width:0.25" />
    <path
       id="rv_0000_0004"
       d="M 796.795 183.333333333 V 83.3333333333"
       style="opacity:1;stroke:#1b46ff;stroke-width:0.25" />
    <path
       style="stroke-linejoin:round;stroke:#000000;stroke-width:1.0;stroke-linecap:round;fill:none"
       id="&amp;"
       d="M929.41 115.9C929.41 115.9 916.91 113.755 914.26 117.855C914.26 117.855 912.49 120.7 914.825 124.36C914.825 124.36 928.34 149.55 928.34 149.55M916.91 128.335C916.91 128.335 908.385 134.19 906.81 136.105C905.96 137.135 904.66 140.27 906.115 143.93C907.08 146.365 909.98 148.165 911.925 148.415C914.495 148.745 916.49 147.555 918.175 146.08C918.175 146.08 932.065 133.895 932.065 133.895"
       transform="matrix(1,0,0.17632698,1,-25,0)" />
    <path
       id="lv_0000_0005"
       d="M 900 183.333333333 V 83.3333333333"
       style="opacity:1;stroke:#00aa88;stroke-width:0.25" />
    <path
       id="rv_0000_0005"
       d="M 932.065 183.333333333 V 83.3333333333"
       style="opacity:1;stroke:#1b46ff;stroke-width:0.25" />
    <path
       style="stroke-linejoin:round;stroke:#000000;stroke-width:1.0;stroke-linecap:round;fill:none"
       id="'"
       d="M1061.005 114.515C1061.005 114.515 1063.34 114.515 1063.34 114.515C1063.34 114.515 1061.385 122.09 1061.385 122.09C1061.385 122.09 1059.68 122.09 1059.68 122.09C1059.68 122.09 1059.805 116.22 1061.005 114.515C1061.005 114.515 1061.005 114.515 1061.005 114.515"
       transform="matrix(1,0,0.17632698,1,-25,0)" />
    <path
       id="lv_0000_0006"
       d="M 1050 183.333333333 V 83.3333333333"
       style="opacity:1;stroke:#00aa88;stroke-width:0.25" />
    <path
       id="rv_0000_0006"
       d="M 1063.34 183.333333333 V 83.3333333333"
       style="opacity:1;stroke:#1b46ff;stroke-width:0.25" />
    <path
       style="stroke-linejoin:round;stroke:#000000;stroke-width:1.0;stroke-linecap:round;fill:none"
       id="("
       d="M1221.605 108.305C1221.605 108.305 1199.02 137.23 1211.16 159.02"
       transform="matrix(1,0,0.17632698,1,-25,0)" />
    <path
       id="lv_0000_0007"
       d="M 1200 183.333333333 V 83.3333333333"
       style="opacity:1;stroke:#00aa88;stroke-width:0.25" />
    <path
       id="rv_0000_0007"
       d="M 1221.605 183.333333333 V 83.3333333333"
       style="opacity:1;stroke:#1b46ff;stroke-width:0.25" />
    <path
       style="stroke-linejoin:round;stroke:#000000;stroke-width:1.0;stroke-linecap:round;fill:none"
       id=")"
       d="M1362.42 108.805C1374.565 130.59 1351.975 159.515 1351.975 159.515"
       transform="matrix(1,0,0.17632698,1,-25,0)" />
    <path
       id="lv_0000_0008"
       d="M 1350 183.333333333 V 83.3333333333"
       style="opacity:1;stroke:#00aa88;stroke-width:0.25" />
    <path
       id="rv_0000_0008"
       d="M 1366.01 183.333333333 V 83.3333333333"
       style="opacity:1;stroke:#1b46ff;stroke-width:0.25" />
    <path
       style="stroke-linejoin:round;stroke:#000000;stroke-width:1.0;stroke-linecap:round;fill:none"
       id="*"
       d="M1516.785 114.91C1516.785 114.91 1517.455 119.24 1517.455 119.24C1517.455 119.24 1519.24 118.57 1519.24 118.57C1519.24 118.57 1517.635 114.555 1517.635 114.555C1517.635 114.555 1516.785 114.91 1516.785 114.91M1509.15 120.135C1509.15 120.135 1508.93 121.205 1508.93 121.205C1508.93 121.205 1514.375 121.25 1514.375 121.25C1514.375 121.25 1514.73 119.02 1514.73 119.02C1514.73 119.02 1509.15 120.135 1509.15 120.135M1512.59 123.35C1512.59 123.35 1510.49 128.795 1510.49 128.795C1510.49 128.795 1511.475 129.195 1511.475 129.195C1511.475 129.195 1514.775 123.885 1514.775 123.885C1514.775 123.885 1512.59 123.35 1512.59 123.35M1515.94 126.295C1515.94 126.295 1517.77 124.105 1517.77 124.105C1517.77 124.105 1521.475 127.77 1521.475 127.77C1521.475 127.77 1520.535 128.795 1520.535 128.795C1520.535 128.795 1515.94 126.295 1515.94 126.295M1518.84 121.605C1518.84 121.605 1524.33 118.395 1524.33 118.395C1524.33 118.395 1524.82 119.42 1524.82 119.42C1524.82 119.42 1519.955 123.615 1519.955 123.615C1519.955 123.615 1518.84 121.605 1518.84 121.605"
       transform="matrix(1,0,0.17632698,1,-25,0)" />
    <path
       id="lv_0000_0009"
       d="M 1500 183.333333333 V 83.3333333333"
       style="opacity:1;stroke:#00aa88;stroke-width:0.25" />
    <path
       id="rv_0000_0009"
       d="M 1524.82 183.333333333 V 83.3333333333"
       style="opacity:1;stroke:#1b46ff;stroke-width:0.25" />
    <path
       style="stroke-linejoin:round;stroke:#000000;stroke-width:1.0;stroke-linecap:round;fill:none"
       id="+"
       d="M1656.565 132.365C1656.565 132.365 1675.76 132.365 1675.76 132.365M1667.725 122.725C1667.725 122.725 1663.975 141.92 1663.975 141.92"
       transform="matrix(1,0,0.17632698,1,-25,0)" />
    <path
       id="lv_0000_0010"
       d="M 1650 183.333333333 V 83.3333333333"
       style="opacity:1;stroke:#00aa88;stroke-width:0.25" />
    <path
       id="rv_0000_0010"
       d="M 1675.76 183.333333333 V 83.3333333333"
       style="opacity:1;stroke:#1b46ff;stroke-width:0.25" />
    <path
       style="stroke-linejoin:round;stroke:#000000;stroke-width:1.0;stroke-linecap:round;fill:none"
       id=","
       d="M1806.405 148.64C1806.405 148.64 1805.245 148.895 1805.38 148.19C1805.38 148.19 1805.62 146.695 1805.915 145.87C1806.055 145.475 1806.29 145.04 1806.785 145.02C1806.785 145.02 1808.08 144.765 1808.675 145.045C1809.025 145.215 1809.3 145.675 1809.21 146.095C1809.21 146.095 1808.51 150.335 1808.115 151.185C1807.375 152.765 1807.21 154.085 1803.86 153.815"
       transform="matrix(1,0,0.17632698,1,-28,0)" />
    <path
       id="lv_0000_0011"
       d="M 1800 183.333333333 V 83.3333333333"
       style="opacity:1;stroke:#00aa88;stroke-width:0.25" />
    <path
       id="rv_0000_0011"
       d="M 1809.225 183.333333333 V 83.3333333333"
       style="opacity:1;stroke:#1b46ff;stroke-width:0.25" />
    <path
       style="stroke-linejoin:round;stroke:#000000;stroke-width:1.0;stroke-linecap:round;fill:none"
       id="-"
       d="M1954.565 135.625C1954.565 135.625 1968.415 135.625 1968.415 135.625"
       transform="matrix(1,0,0.17632698,1,-27,0)" />
    <path
       id="lv_0000_0012"
       d="M 1950 183.333333333 V 83.3333333333"
       style="opacity:1;stroke:#00aa88;stroke-width:0.25" />
    <path
       id="rv_0000_0012"
       d="M 1968.415 183.333333333 V 83.3333333333"
       style="opacity:1;stroke:#1b46ff;stroke-width:0.25" />
    <path
       style="stroke-linejoin:round;stroke:#000000;stroke-width:1.0;stroke-linecap:round;fill:none"
       id="."
       d="M2107.04 145.745C2107.04 145.745 2108.115 145.745 2108.115 145.745C2108.56 145.745 2108.835 146.1 2108.74 146.545C2108.74 146.545 2108.43 147.96 2108.43 147.96C2108.33 148.4 2107.895 148.755 2107.455 148.755C2107.455 148.755 2106.38 148.755 2106.38 148.755C2105.94 148.755 2105.66 148.4 2105.755 147.96C2105.755 147.96 2106.07 146.545 2106.07 146.545C2106.165 146.1 2106.6 145.745 2107.04 145.745C2107.04 145.745 2107.04 145.745 2107.04 145.745"
       transform="matrix(1,0,0.17632698,1,-28,0)" />
    <path
       id="lv_0000_0013"
       d="M 2100 183.333333333 V 83.3333333333"
       style="opacity:1;stroke:#00aa88;stroke-width:0.25" />
    <path
       id="rv_0000_0013"
       d="M 2108.76 183.333333333 V 83.3333333333"
       style="opacity:1;stroke:#1b46ff;stroke-width:0.25" />
    <path
       style="stroke-linejoin:round;stroke:#000000;stroke-width:1.0;stroke-linecap:round;fill:none"
       id="/"
       d="M2274.045 112.725C2274.045 112.725 2252.825 152.94 2252.825 152.94"
       transform="matrix(1,0,0.17632698,1,-25,0)" />
    <path
       id="lv_0000_0014"
       d="M 2250 183.333333333 V 83.3333333333"
       style="opacity:1;stroke:#00aa88;stroke-width:0.25" />
    <path
       id="rv_0000_0014"
       d="M 2274.045 183.333333333 V 83.3333333333"
       style="opacity:1;stroke:#1b46ff;stroke-width:0.25" />
    <path
       style="stroke-linejoin:round;stroke:#000000;stroke-width:1.0;stroke-linecap:round;fill:none"
       id="0"
       d="M2427.78 142.85C2427.04 147.97 2422.26 150.09 2421.34 150.0C2421.34 150.0 2411.97 150.0 2411.97 150.0C2406.06 149.78 2406.37 145.38 2406.37 145.38C2406.37 145.38 2410.97 122.02 2410.97 122.02C2412.3 117.04 2419.61 117.03 2419.61 117.03C2419.61 117.03 2428.23 117.08 2428.23 117.08C2428.98 116.99 2432.28 118.31 2431.51 121.61C2431.51 121.61 2427.78 142.85 2427.78 142.85"
       transform="matrix(1,0,0.17632698,1,-27,0)" />
    <path
       id="lv_0000_0015"
       d="M 2400 183.333333333 V 83.3333333333"
       style="opacity:1;stroke:#00aa88;stroke-width:0.25" />
    <path
       id="rv_0000_0015"
       d="M 2431.63 183.333333333 V 83.3333333333"
       style="opacity:1;stroke:#1b46ff;stroke-width:0.25" />
    <path
       style="stroke-linejoin:round;stroke:#000000;stroke-width:1.0;stroke-linecap:round;fill:none"
       id="1"
       d="M2563.36 120.21C2563.36 120.21 2573.44 116.48 2573.44 116.48C2573.44 116.48 2567.27 149.87 2567.27 149.87M2558.25 150.0C2558.25 150.0 2575.71 150.0 2575.71 150.0"
       transform="matrix(1,0,0.17632698,1,-27,0)" />
    <path
       id="lv_0000_0016"
       d="M 2550 183.333333333 V 83.3333333333"
       style="opacity:1;stroke:#00aa88;stroke-width:0.25" />
    <path
       id="rv_0000_0016"
       d="M 2575.71 183.333333333 V 83.3333333333"
       style="opacity:1;stroke:#1b46ff;stroke-width:0.25" />
    <path
       style="stroke-linejoin:round;stroke:#000000;stroke-width:1.0;stroke-linecap:round;fill:none"
       id="2"
       d="M2710.84 117.01C2710.84 117.01 2724.22 116.64 2724.22 116.64C2724.19 116.57 2734.66 116.45 2729.87 128.39C2728.38 132.11 2711.37 145.04 2704.74 150.0C2704.74 150.0 2726.04 150.0 2726.04 150.0"
       transform="matrix(1,0,0.17632698,1,-27,0)" />
    <path
       id="lv_0000_0017"
       d="M 2700 183.333333333 V 83.3333333333"
       style="opacity:1;stroke:#00aa88;stroke-width:0.25" />
    <path
       id="rv_0000_0017"
       d="M 2731.13 183.333333333 V 83.3333333333"
       style="opacity:1;stroke:#1b46ff;stroke-width:0.25" />
    <path
       style="stroke-linejoin:round;stroke:#000000;stroke-width:1.0;stroke-linecap:round;fill:none"
       id="3"
       d="M2862.39 117.73C2862.39 117.73 2872.16 116.82 2876.46 117.35C2878.93 117.66 2881.99 118.61 2881.36 123.01C2881.01 125.47 2879.49 129.8 2878.97 130.67C2876.66 134.6 2862.48 133.34 2862.26 133.81C2862.26 133.81 2875.65 133.72 2877.09 135.45C2879.4 138.22 2877.21 146.27 2874.79 148.01C2873.58 148.89 2868.92 149.96 2864.46 150.0C2859.78 150.04 2855.32 149.64 2855.32 149.64"
       transform="matrix(1,0,0.17632698,1,-27,0)" />
    <path
       id="lv_0000_0018"
       d="M 2850 183.333333333 V 83.3333333333"
       style="opacity:1;stroke:#00aa88;stroke-width:0.25" />
    <path
       id="rv_0000_0018"
       d="M 2881.44 183.333333333 V 83.3333333333"
       style="opacity:1;stroke:#1b46ff;stroke-width:0.25" />
    <path
       style="stroke-linejoin:round;stroke:#000000;stroke-width:1.0;stroke-linecap:round;fill:none"
       id="4"
       d="M3025.06 116.15C3025.06 116.15 3006.27 139.9 3006.27 139.9C3006.27 139.9 3030.96 139.71 3030.96 139.71M3028.32 126.64C3028.32 126.64 3023.55 150.0 3023.55 150.0"
       transform="matrix(1,0,0.17632698,1,-27,0)" />
    <path
       id="lv_0000_0019"
       d="M 3000 183.333333333 V 83.3333333333"
       style="opacity:1;stroke:#00aa88;stroke-width:0.25" />
    <path
       id="rv_0000_0019"
       d="M 3030.96 183.333333333 V 83.3333333333"
       style="opacity:1;stroke:#1b46ff;stroke-width:0.25" />
    <path
       style="stroke-linejoin:round;stroke:#000000;stroke-width:1.0;stroke-linecap:round;fill:none"
       id="5"
       d="M3180.49 116.95C3180.49 116.95 3163.79 116.95 3163.79 116.95C3163.79 116.95 3159.43 133.83 3159.43 133.83C3159.43 133.83 3162.54 131.7 3166.1 131.07C3168.38 130.83 3171.28 130.88 3173.56 131.34C3173.56 131.34 3178.63 131.52 3177.47 137.65C3177.47 137.65 3177.01 142.56 3175.69 145.47C3174.55 148.01 3173.03 149.82 3168.67 150.0C3168.67 150.0 3155.35 149.2 3155.35 149.2"
       transform="matrix(1,0,0.17632698,1,-27,0)" />
    <path
       id="lv_0000_0020"
       d="M 3150 183.333333333 V 83.3333333333"
       style="opacity:1;stroke:#00aa88;stroke-width:0.25" />
    <path
       id="rv_0000_0020"
       d="M 3180.49 183.333333333 V 83.3333333333"
       style="opacity:1;stroke:#1b46ff;stroke-width:0.25" />
    <path
       style="stroke-linejoin:round;stroke:#000000;stroke-width:1.0;stroke-linecap:round;fill:none"
       id="6"
       d="M3332.27 116.81C3332.27 116.81 3324.37 116.02 3321.07 116.37C3318.4 116.65 3315.7 116.9 3313.88 120.01C3312.52 122.33 3307.03 130.65 3308.12 147.59C3308.2 148.89 3309.63 149.95 3312.2 150.0C3313.87 150.03 3318.09 150.15 3321.0 150.0C3323.61 149.86 3325.8 148.99 3326.51 146.7C3328.01 141.4 3331.54 132.3 3323.78 131.78C3321.4 131.63 3319.17 131.87 3316.63 131.92C3314.97 131.95 3309.08 132.89 3309.08 132.89"
       transform="matrix(1,0,0.17632698,1,-27,0)" />
    <path
       id="lv_0000_0021"
       d="M 3300 183.333333333 V 83.3333333333"
       style="opacity:1;stroke:#00aa88;stroke-width:0.25" />
    <path
       id="rv_0000_0021"
       d="M 3332.27 183.333333333 V 83.3333333333"
       style="opacity:1;stroke:#1b46ff;stroke-width:0.25" />
    <path
       style="stroke-linejoin:round;stroke:#000000;stroke-width:1.0;stroke-linecap:round;fill:none"
       id="7"
       d="M3461.78 116.82C3461.78 116.82 3482.2 116.82 3482.2 116.82C3482.2 116.82 3462.95 150.0 3462.95 150.0"
       transform="matrix(1,0,0.17632698,1,-27,0)" />
    <path
       id="lv_0000_0022"
       d="M 3450 183.333333333 V 83.3333333333"
       style="opacity:1;stroke:#00aa88;stroke-width:0.25" />
    <path
       id="rv_0000_0022"
       d="M 3482.2 183.333333333 V 83.3333333333"
       style="opacity:1;stroke:#1b46ff;stroke-width:0.25" />
    <path
       style="stroke-linejoin:round;stroke:#000000;stroke-width:1.0;stroke-linecap:round;fill:none"
       id="8"
       d="M3626.62 131.47C3627.34 131.81 3630.03 129.08 3629.82 128.39C3629.82 128.39 3631.02 120.03 3631.02 120.03C3630.95 117.2 3626.99 116.7 3626.99 116.7C3626.99 116.7 3618.32 116.7 3618.32 116.7C3618.32 116.7 3612.67 116.51 3611.6 120.97C3611.6 120.97 3610.41 128.76 3610.41 128.76C3610.41 128.76 3610.34 131.91 3612.67 132.28C3616.72 132.34 3623.05 133.11 3624.1 133.48C3625.6 134.0 3628.37 134.07 3628.16 137.09C3628.16 137.09 3626.74 144.91 3626.74 144.91C3626.74 144.91 3625.05 149.69 3621.59 150.0C3621.59 150.0 3611.6 150.0 3611.6 150.0C3611.6 150.0 3606.64 149.94 3606.7 145.66C3606.7 145.66 3608.21 138.19 3608.21 138.19C3610.56 131.76 3618.42 134.16 3626.62 131.47C3626.62 131.47 3626.62 131.47 3626.62 131.47"
       transform="matrix(1,0,0.17632698,1,-27,0)" />
    <path
       id="lv_0000_0023"
       d="M 3600 183.333333333 V 83.3333333333"
       style="opacity:1;stroke:#00aa88;stroke-width:0.25" />
    <path
       id="rv_0000_0023"
       d="M 3631.02 183.333333333 V 83.3333333333"
       style="opacity:1;stroke:#1b46ff;stroke-width:0.25" />
    <path
       style="stroke-linejoin:round;stroke:#000000;stroke-width:1.0;stroke-linecap:round;fill:none"
       id="9"
       d="M3779.19 133.38C3779.19 133.38 3763.64 134.63 3763.64 134.63C3759.64 134.45 3759.64 130.36 3759.64 130.36C3760.33 126.72 3760.62 122.7 3761.69 119.43C3763.4 116.32 3767.11 116.5 3767.11 116.5C3767.11 116.5 3775.22 116.46 3775.22 116.46C3776.01 116.52 3779.92 117.47 3779.99 121.39C3779.99 121.39 3780.61 128.76 3779.02 134.45C3776.75 140.95 3775.9 149.48 3768.97 150.0C3766.98 150.17 3758.04 149.96 3756.18 149.38"
       transform="matrix(1,0,0.17632698,1,-27,0)" />
    <path
       id="lv_0000_0024"
       d="M 3750 183.333333333 V 83.3333333333"
       style="opacity:1;stroke:#00aa88;stroke-width:0.25" />
    <path
       id="rv_0000_0024"
       d="M 3780.11 183.333333333 V 83.3333333333"
       style="opacity:1;stroke:#1b46ff;stroke-width:0.25" />
    <path
       id="h_1"
       d="M 0 300 H 3900"
       style="opacity:1;stroke:#ff0066;stroke-width:0.25" />
    <path
       style="stroke-linejoin:round;stroke:#000000;stroke-width:1.0;stroke-linecap:round;fill:none"
       id=":"
       d="M161.18 276.14C161.18 276.14 162.22 276.14 162.22 276.14C162.65 276.14 162.92 276.49 162.83 276.92C162.83 276.92 162.53 278.29 162.53 278.29C162.43 278.72 162.01 279.06 161.58 279.06C161.58 279.06 160.54 279.06 160.54 279.06C160.11 279.06 159.84 278.72 159.94 278.29C159.94 278.29 160.24 276.92 160.24 276.92C160.33 276.49 160.75 276.14 161.18 276.14C161.18 276.14 161.18 276.14 161.18 276.14M157.04 297.08C157.04 297.08 158.08 297.08 158.08 297.08C158.51 297.08 158.79 297.42 158.72 297.85C158.72 297.85 158.46 299.23 158.46 299.23C158.39 299.65 157.98 300.0 157.55 300.0C157.55 300.0 156.51 300.0 156.51 300.0C156.08 300.0 155.8 299.65 155.87 299.23C155.87 299.23 156.13 297.85 156.13 297.85C156.2 297.42 156.61 297.08 157.04 297.08C157.04 297.08 157.04 297.08 157.04 297.08"
       transform="matrix(1,0,0.17632698,1,-53,0)" />
    <path
       id="lv_0001_0000"
       d="M 150 333.333333333 V 233.333333333"
       style="opacity:1;stroke:#00aa88;stroke-width:0.25" />
    <path
       id="rv_0001_0000"
       d="M 162.85 333.333333333 V 233.333333333"
       style="opacity:1;stroke:#1b46ff;stroke-width:0.25" />
    <path
       style="stroke-linejoin:round;stroke:#000000;stroke-width:1.0;stroke-linecap:round;fill:none"
       id=";"
       d="M311.33 276.11C311.33 276.11 312.37 276.11 312.37 276.11C312.8 276.11 313.08 276.45 313.0 276.88C313.0 276.88 312.75 278.25 312.75 278.25C312.67 278.68 312.26 279.03 311.83 279.03C311.83 279.03 310.79 279.03 310.79 279.03C310.36 279.03 310.08 278.68 310.16 278.25C310.16 278.25 310.41 276.88 310.41 276.88C310.49 276.45 310.9 276.11 311.33 276.11C311.33 276.11 311.33 276.11 311.33 276.11M307.22 300.27C306.97 300.33 306.38 300.16 306.38 300.16C305.95 300.16 305.65 299.42 305.73 298.99C305.73 298.99 306.0 297.62 306.0 297.62C306.08 297.19 306.49 296.85 306.92 296.85C306.92 296.85 307.96 296.85 307.96 296.85C308.39 296.85 308.67 297.19 308.59 297.62C308.59 297.62 308.32 298.99 308.32 298.99C308.26 299.34 307.39 303.56 306.9 303.99C306.14 304.68 305.37 304.88 305.02 304.81"
       transform="matrix(1,0,0.17632698,1,-53,0)" />
    <path
       id="lv_0001_0001"
       d="M 300 333.333333333 V 233.333333333"
       style="opacity:1;stroke:#00aa88;stroke-width:0.25" />
    <path
       id="rv_0001_0001"
       d="M 313.01 333.333333333 V 233.333333333"
       style="opacity:1;stroke:#1b46ff;stroke-width:0.25" />
    <path
       style="stroke-linejoin:round;stroke:#000000;stroke-width:1.0;stroke-linecap:round;fill:none"
       id="&lt;"
       d="M474.6 276.4C474.6 276.4 457.38 283.82 457.38 283.82C457.38 283.82 471.64 291.48 471.64 291.48"
       transform="matrix(1,0,0.17632698,1,-53,0)" />
    <path
       id="lv_0001_0002"
       d="M 450 333.333333333 V 233.333333333"
       style="opacity:1;stroke:#00aa88;stroke-width:0.25" />
    <path
       id="rv_0001_0002"
       d="M 474.6 333.333333333 V 233.333333333"
       style="opacity:1;stroke:#1b46ff;stroke-width:0.25" />
    <path
       style="stroke-linejoin:round;stroke:#000000;stroke-width:1.0;stroke-linecap:round;fill:none"
       id="="
       d="M607.7 278.45C607.7 278.45 624.76 278.45 624.76 278.45M605.75 289.12C605.75 289.12 622.81 289.12 622.81 289.12"
       transform="matrix(1,0,0.17632698,1,-53,0)" />
    <path
       id="lv_0001_0003"
       d="M 600 333.333333333 V 233.333333333"
       style="opacity:1;stroke:#00aa88;stroke-width:0.25" />
    <path
       id="rv_0001_0003"
       d="M 624.76 333.333333333 V 233.333333333"
       style="opacity:1;stroke:#1b46ff;stroke-width:0.25" />
    <path
       style="stroke-linejoin:round;stroke:#000000;stroke-width:1.0;stroke-linecap:round;fill:none"
       id="&gt;"
       d="M759.04 276.4C759.04 276.4 773.3 284.07 773.3 284.07C773.3 284.07 756.09 291.48 756.09 291.48"
       transform="matrix(1,0,0.17632698,1,-53,0)" />
    <path
       id="lv_0001_0004"
       d="M 750 333.333333333 V 233.333333333"
       style="opacity:1;stroke:#00aa88;stroke-width:0.25" />
    <path
       id="rv_0001_0004"
       d="M 773.3 333.333333333 V 233.333333333"
       style="opacity:1;stroke:#1b46ff;stroke-width:0.25" />
    <path
       style="stroke-linejoin:round;stroke:#000000;stroke-width:1.0;stroke-linecap:round;fill:none"
       id="?"
       d="M910.0 266.95C910.0 266.95 914.36 266.3 915.15 266.32C915.15 266.32 923.07 266.45 923.07 266.45C923.89 266.45 928.97 267.59 928.22 271.73C928.22 271.73 926.96 279.14 926.96 279.14C926.9 279.53 925.84 284.39 921.31 285.17C920.91 285.24 916.23 284.82 914.65 284.8C914.65 284.8 913.27 290.58 913.27 290.58M911.6 297.17C911.6 297.17 912.64 297.17 912.64 297.17C913.07 297.17 913.33 297.5 913.22 297.92C913.22 297.92 912.87 299.24 912.87 299.24C912.76 299.66 912.33 300.0 911.9 300.0C911.9 300.0 910.86 300.0 910.86 300.0C910.43 300.0 910.17 299.66 910.28 299.24C910.28 299.24 910.63 297.92 910.63 297.92C910.74 297.5 911.17 297.17 911.6 297.17C911.6 297.17 911.6 297.17 911.6 297.17"
       transform="matrix(1,0,0.17632698,1,-53,0)" />
    <path
       id="lv_0001_0005"
       d="M 900 333.333333333 V 233.333333333"
       style="opacity:1;stroke:#00aa88;stroke-width:0.25" />
    <path
       id="rv_0001_0005"
       d="M 928.3 333.333333333 V 233.333333333"
       style="opacity:1;stroke:#1b46ff;stroke-width:0.25" />
    <path
       style="stroke-linejoin:round;stroke:#000000;stroke-width:1.0;stroke-linecap:round;fill:none"
       id="@"
       d="M1067.61 268.96C1067.61 268.96 1069.52 268.45 1070.5 268.34C1075.04 267.83 1084.2 268.21 1084.2 268.21C1084.2 268.21 1093.5 267.96 1091.61 276.63C1091.61 276.63 1085.71 304.27 1085.71 304.27C1085.07 305.51 1083.6 307.96 1079.17 308.8C1079.17 308.8 1060.83 308.8 1060.83 308.8C1060.83 308.8 1053.92 308.92 1054.67 303.02C1054.67 303.02 1058.56 284.42 1058.56 284.42C1058.56 284.42 1059.95 277.13 1065.73 277.76C1065.73 277.76 1077.29 277.89 1077.29 277.89C1079.16 277.7 1082.83 278.88 1081.81 283.16C1081.81 283.16 1079.05 296.48 1079.05 296.48C1079.05 296.48 1078.42 299.62 1078.8 300.0M1080.56 288.19C1076.28 287.85 1065.99 287.43 1065.22 292.59C1065.22 292.59 1064.85 297.49 1064.85 297.49C1064.8 297.72 1065.78 300.71 1069.5 299.5C1069.5 299.5 1077.72 296.85 1078.97 296.22"
       transform="matrix(1,0,0.17632698,1,-53,0)" />
    <path
       id="lv_0001_0006"
       d="M 1050 333.333333333 V 233.333333333"
       style="opacity:1;stroke:#00aa88;stroke-width:0.25" />
    <path
       id="rv_0001_0006"
       d="M 1091.87 333.333333333 V 233.333333333"
       style="opacity:1;stroke:#1b46ff;stroke-width:0.25" />
    <path
       style="stroke-linejoin:round;stroke:#000000;stroke-width:1.0;stroke-linecap:round;fill:none"
       id="A"
       d="M1205.5 300.0C1205.5 300.0 1223.53 266.24 1223.53 266.24C1223.53 266.24 1225.5 266.24 1225.5 266.24C1225.5 266.24 1230.31 300.0 1230.31 300.0M1211.34 289.38C1211.34 289.38 1228.72 289.29 1228.72 289.29"
       transform="matrix(1,0,0.17632698,1,-56,0)" />
    <path
       id="lv_0001_0007"
       d="M 1200 333.333333333 V 233.333333333"
       style="opacity:1;stroke:#00aa88;stroke-width:0.25" />
    <path
       id="rv_0001_0007"
       d="M 1230.31 333.333333333 V 233.333333333"
       style="opacity:1;stroke:#1b46ff;stroke-width:0.25" />
    <path
       style="stroke-linejoin:round;stroke:#000000;stroke-width:1.0;stroke-linecap:round;fill:none"
       id="B"
       d="M1362.73 267.33C1360.74 278.01 1358.83 289.36 1356.7 300.0M1362.73 267.33C1362.73 267.33 1375.11 267.27 1375.11 267.27C1375.11 267.27 1381.11 267.71 1380.76 272.61C1380.76 272.61 1381.08 277.95 1376.37 281.15C1376.37 281.15 1374.1 282.28 1373.22 282.35C1373.22 282.35 1360.16 282.22 1360.16 282.22M1373.16 282.35C1373.16 282.35 1375.55 283.63 1377.53 285.8C1378.9 288.49 1379.57 290.52 1374.92 298.37C1374.92 298.37 1373.44 300.0 1372.03 300.0C1372.03 300.0 1356.7 300.0 1356.7 300.0"
       transform="matrix(1,0,0.17632698,1,-54,0)" />
    <path
       id="lv_0001_0008"
       d="M 1350 333.333333333 V 233.333333333"
       style="opacity:1;stroke:#00aa88;stroke-width:0.25" />
    <path
       id="rv_0001_0008"
       d="M 1380.78 333.333333333 V 233.333333333"
       style="opacity:1;stroke:#1b46ff;stroke-width:0.25" />
    <path
       style="stroke-linejoin:round;stroke:#000000;stroke-width:1.0;stroke-linecap:round;fill:none"
       id="C"
       d="M1531.4 267.23C1531.4 267.23 1523.38 266.47 1521.65 266.44C1521.65 266.44 1514.93 265.85 1512.04 272.0C1512.04 272.0 1504.65 289.38 1508.35 296.17C1510.29 299.72 1513.77 300.07 1517.29 300.0C1521.04 299.92 1526.17 299.34 1526.34 298.99"
       transform="matrix(1,0,0.17632698,1,-54,0)" />
    <path
       id="lv_0001_0009"
       d="M 1500 333.333333333 V 233.333333333"
       style="opacity:1;stroke:#00aa88;stroke-width:0.25" />
    <path
       id="rv_0001_0009"
       d="M 1531.4 333.333333333 V 233.333333333"
       style="opacity:1;stroke:#1b46ff;stroke-width:0.25" />
    <path
       style="stroke-linejoin:round;stroke:#000000;stroke-width:1.0;stroke-linecap:round;fill:none"
       id="D"
       d="M1663.02 266.8C1663.02 266.8 1656.41 300.0 1656.41 300.0M1663.02 266.8C1663.02 266.8 1672.26 265.96 1676.0 266.8C1679.86 267.68 1682.61 269.34 1682.98 276.99C1682.98 276.99 1681.91 292.09 1676.58 296.71C1672.71 300.05 1669.65 300.0 1669.65 300.0C1669.65 300.0 1656.41 300.0 1656.41 300.0"
       transform="matrix(1,0,0.17632698,1,-54,0)" />
    <path
       id="lv_0001_0010"
       d="M 1650 333.333333333 V 233.333333333"
       style="opacity:1;stroke:#00aa88;stroke-width:0.25" />
    <path
       id="rv_0001_0010"
       d="M 1682.98 333.333333333 V 233.333333333"
       style="opacity:1;stroke:#1b46ff;stroke-width:0.25" />
    <path
       style="stroke-linejoin:round;stroke:#000000;stroke-width:1.0;stroke-linecap:round;fill:none"
       id="E"
       d="M1831.12 267.02C1831.12 267.02 1817.68 266.64 1817.68 266.64C1813.67 266.53 1811.98 270.97 1811.98 270.97C1811.98 270.97 1807.18 295.58 1807.18 295.58C1807.18 295.58 1806.18 299.87 1809.44 300.0C1809.44 300.0 1825.34 299.94 1825.34 299.94M1809.7 282.98C1809.7 282.98 1825.84 282.98 1825.84 282.98"
       transform="matrix(1,0,0.17632698,1,-54,0)" />
    <path
       id="lv_0001_0011"
       d="M 1800 333.333333333 V 233.333333333"
       style="opacity:1;stroke:#00aa88;stroke-width:0.25" />
    <path
       id="rv_0001_0011"
       d="M 1831.12 333.333333333 V 233.333333333"
       style="opacity:1;stroke:#1b46ff;stroke-width:0.25" />
    <path
       style="fill:none;stroke:#000000;stroke-width:1;stroke-linecap:round;stroke-linejoin:round"
       id="F"
       d="M 1981.41,267.23 C 1981.41,267.23 1967.73,266.96 1967.73,266.96 1963.62,266.88 1962.04,271.41 1962.04,271.41 1962.04,271.41 1956.2,300 1956.2,300 M 1959.82,283.58 C 1959.82,283.58 1976.08,283.31 1976.08,283.31"
       transform="matrix(1,0,0.17632698,1,-55,0)"
       inkscape:connector-curvature="0" />
    <path
       id="lv_0001_0012"
       d="M 1950 333.333333333 V 233.333333333"
       style="opacity:1;stroke:#00aa88;stroke-width:0.25" />
    <path
       id="rv_0001_0012"
       d="M 1981.41 333.333333333 V 233.333333333"
       style="opacity:1;stroke:#1b46ff;stroke-width:0.25" />
    <path
       style="fill:none;stroke:#000000;stroke-width:1;stroke-linecap:round;stroke-linejoin:round"
       id="G"
       d="M 2131.87,267.23 C 2131.87,267.23 2123.52,266.43 2123.52,266.43 2123.52,266.43 2113.48,265.19 2111.34,273.36 2111.34,273.36 2107.35,283.49 2107.88,292.38 2107.88,292.38 2108.05,300.29 2114.37,300 2118.58,299.81 2123.1,297.56 2127.18,296.15 M 2120.67,284.38 C 2120.67,284.38 2128.94,283.67 2128.94,283.67 2128.94,283.67 2126.64,300 2126.64,300"
       inkscape:connector-curvature="0"
       transform="matrix(1,0,0.17632698,1,-55,0)" />
    <path
       id="lv_0001_0013"
       d="M 2100 333.333333333 V 233.333333333"
       style="opacity:1;stroke:#00aa88;stroke-width:0.25" />
    <path
       id="rv_0001_0013"
       d="M 2131.87 333.333333333 V 233.333333333"
       style="opacity:1;stroke:#1b46ff;stroke-width:0.25" />
    <path
       style="fill:none;stroke:#000000;stroke-width:1;stroke-linecap:round;stroke-linejoin:round"
       id="H"
       d="M 2262.72,266.37 C 2262.72,266.37 2256.05,300 2256.05,300 M 2283.87,266.37 C 2283.87,266.37 2277.26,300 2277.26,300 M 2259.58,284.02 C 2259.58,284.02 2280.29,284.02 2280.29,284.02"
       transform="matrix(1,0,0.17632698,1,-55,0)"
       inkscape:connector-curvature="0" />
    <path
       id="lv_0001_0014"
       d="M 2250 333.333333333 V 233.333333333"
       style="opacity:1;stroke:#00aa88;stroke-width:0.25" />
    <path
       id="rv_0001_0014"
       d="M 2283.87 333.333333333 V 233.333333333"
       style="opacity:1;stroke:#1b46ff;stroke-width:0.25" />
    <path
       style="stroke-linejoin:round;stroke:#000000;stroke-width:1.0;stroke-linecap:round;fill:none"
       id="I"
       d="M2413.08 266.37C2413.08 266.37 2406.16 300.31 2406.16 300.31"
       transform="matrix(1,0,0.17632698,1,-54,0)" />
    <path
       id="lv_0001_0015"
       d="M 2400 333.333333333 V 233.333333333"
       style="opacity:1;stroke:#00aa88;stroke-width:0.25" />
    <path
       id="rv_0001_0015"
       d="M 2413.08 333.333333333 V 233.333333333"
       style="opacity:1;stroke:#1b46ff;stroke-width:0.25" />
    <path
       style="stroke-linejoin:round;stroke:#000000;stroke-width:1.0;stroke-linecap:round;fill:none"
       id="J"
       d="M2569.62 266.7C2569.62 266.7 2563.97 295.23 2563.97 295.23C2563.78 295.84 2562.5 300.18 2558.1 300.31C2556.94 300.34 2555.55 300.08 2553.92 299.37"
       transform="matrix(1,0,0.17632698,1,-54,0)" />
    <path
       id="lv_0001_0016"
       d="M 2550 333.333333333 V 233.333333333"
       style="opacity:1;stroke:#00aa88;stroke-width:0.25" />
    <path
       id="rv_0001_0016"
       d="M 2569.62 333.333333333 V 233.333333333"
       style="opacity:1;stroke:#1b46ff;stroke-width:0.25" />
    <path
       style="stroke-linejoin:round;stroke:#000000;stroke-width:1.0;stroke-linecap:round;fill:none"
       id="K"
       d="M2712.93 266.2C2712.93 266.2 2706.24 300.31 2706.24 300.31M2731.7 266.2C2731.7 266.2 2716.99 283.36 2716.99 283.36C2716.99 283.36 2709.77 283.36 2709.77 283.36M2716.93 283.29C2716.93 283.29 2724.78 300.31 2724.78 300.31"
       transform="matrix(1,0,0.17632698,1,-54,0)" />
    <path
       id="lv_0001_0017"
       d="M 2700 333.333333333 V 233.333333333"
       style="opacity:1;stroke:#00aa88;stroke-width:0.25" />
    <path
       id="rv_0001_0017"
       d="M 2731.7 333.333333333 V 233.333333333"
       style="opacity:1;stroke:#1b46ff;stroke-width:0.25" />
    <path
       style="stroke-linejoin:round;stroke:#000000;stroke-width:1.0;stroke-linecap:round;fill:none"
       id="L"
       d="M2862.93 266.74C2862.93 266.74 2857.35 296.13 2857.35 296.13C2857.35 296.13 2856.28 300.13 2861.08 300.31C2861.08 300.31 2874.76 300.31 2874.76 300.31"
       transform="matrix(1,0,0.17632698,1,-54,0)" />
    <path
       id="lv_0001_0018"
       d="M 2850 333.333333333 V 233.333333333"
       style="opacity:1;stroke:#00aa88;stroke-width:0.25" />
    <path
       id="rv_0001_0018"
       d="M 2874.76 333.333333333 V 233.333333333"
       style="opacity:1;stroke:#1b46ff;stroke-width:0.25" />
    <path
       style="stroke-linejoin:round;stroke:#000000;stroke-width:1.0;stroke-linecap:round;fill:none"
       id="M"
       d="M3005.32 300.31C3005.32 300.31 3014.68 266.71 3014.68 266.71C3014.68 266.71 3015.82 266.71 3015.82 266.71C3015.82 266.71 3020.53 300.31 3020.53 300.31C3020.53 300.31 3021.22 300.31 3021.22 300.31C3021.22 300.31 3037.94 266.71 3037.94 266.71C3037.94 266.71 3039.95 266.71 3039.95 266.71C3039.95 266.71 3035.99 300.31 3035.99 300.31"
       transform="matrix(1,0,0.17632698,1,-54,0)" />
    <path
       id="lv_0001_0019"
       d="M 3000 333.333333333 V 233.333333333"
       style="opacity:1;stroke:#00aa88;stroke-width:0.25" />
    <path
       id="rv_0001_0019"
       d="M 3039.95 333.333333333 V 233.333333333"
       style="opacity:1;stroke:#1b46ff;stroke-width:0.25" />
    <path
       style="stroke-linejoin:round;stroke:#000000;stroke-width:1.0;stroke-linecap:round;fill:none"
       id="N"
       d="M3156.15 300.0C3156.15 300.0 3162.51 266.5 3162.51 266.5C3162.51 266.5 3164.02 266.5 3164.02 266.5C3164.02 266.5 3177.97 300.0 3177.97 300.0C3177.97 300.0 3179.29 300.0 3179.29 300.0C3179.29 300.0 3185.7 266.5 3185.7 266.5"
       transform="matrix(1,0,0.17632698,1,-54,0)" />
    <path
       id="lv_0001_0020"
       d="M 3150 333.333333333 V 233.333333333"
       style="opacity:1;stroke:#00aa88;stroke-width:0.25" />
    <path
       id="rv_0001_0020"
       d="M 3185.7 333.333333333 V 233.333333333"
       style="opacity:1;stroke:#1b46ff;stroke-width:0.25" />
    <path
       style="stroke-linejoin:round;stroke:#000000;stroke-width:1.0;stroke-linecap:round;fill:none"
       id="O"
       d="M3334.01 272.95C3334.77 280.58 3331.78 291.1 3330.24 293.63C3327.48 298.15 3326.84 297.96 3323.39 299.28C3322.17 299.75 3319.85 299.99 3317.61 300.0C3315.65 300.01 3313.74 299.85 3312.65 299.53C3308.19 298.21 3308.06 293.88 3308.06 293.88C3306.43 287.22 3311.14 274.71 3311.14 274.71C3313.72 267.36 3320.38 267.05 3320.38 267.05C3320.38 267.05 3325.72 266.48 3327.54 266.99C3327.54 266.99 3333.5 267.81 3334.01 272.95C3334.01 272.95 3334.01 272.95 3334.01 272.95"
       transform="matrix(1,0,0.17632698,1,-54,0)" />
    <path
       id="lv_0001_0021"
       d="M 3300 333.333333333 V 233.333333333"
       style="opacity:1;stroke:#00aa88;stroke-width:0.25" />
    <path
       id="rv_0001_0021"
       d="M 3334.13 333.333333333 V 233.333333333"
       style="opacity:1;stroke:#1b46ff;stroke-width:0.25" />
    <path
       style="stroke-linejoin:round;stroke:#000000;stroke-width:1.0;stroke-linecap:round;fill:none"
       id="P"
       d="M3461.95 267.11C3461.95 267.11 3455.3 300.0 3455.3 300.0M3461.95 267.11C3461.95 267.11 3474.84 267.02 3474.84 267.02C3475.01 267.02 3480.79 267.41 3480.4 271.79C3480.22 273.89 3480.29 278.6 3477.87 282.02C3477.87 282.02 3475.99 284.74 3472.57 284.66C3472.57 284.66 3458.57 284.35 3458.57 284.35"
       transform="matrix(1,0,0.17632698,1,-54,0)" />
    <path
       id="lv_0001_0022"
       d="M 3450 333.333333333 V 233.333333333"
       style="opacity:1;stroke:#00aa88;stroke-width:0.25" />
    <path
       id="rv_0001_0022"
       d="M 3480.42 333.333333333 V 233.333333333"
       style="opacity:1;stroke:#1b46ff;stroke-width:0.25" />
    <path
       style="stroke-linejoin:round;stroke:#000000;stroke-width:1.0;stroke-linecap:round;fill:none"
       id="Q"
       d="M3634.09 272.95C3634.85 280.58 3631.87 291.1 3630.32 293.62C3628.31 296.95 3626.92 297.95 3623.47 299.28C3622.22 299.76 3619.83 300.0 3617.54 300.0C3615.63 300.0 3613.79 299.84 3612.73 299.53C3608.27 298.21 3608.14 293.88 3608.14 293.88C3606.51 287.22 3611.22 274.71 3611.22 274.71C3613.8 267.36 3620.46 267.05 3620.46 267.05C3620.46 267.05 3625.8 266.48 3627.62 266.99C3627.62 266.99 3633.58 267.81 3634.09 272.95C3634.09 272.95 3634.09 272.95 3634.09 272.95M3616.75 304.49C3616.75 304.49 3621.15 309.77 3624.54 307.38"
       transform="matrix(1,0,0.17632698,1,-54,0)" />
    <path
       id="lv_0001_0023"
       d="M 3600 333.333333333 V 233.333333333"
       style="opacity:1;stroke:#00aa88;stroke-width:0.25" />
    <path
       id="rv_0001_0023"
       d="M 3634.21 333.333333333 V 233.333333333"
       style="opacity:1;stroke:#1b46ff;stroke-width:0.25" />
    <path
       style="stroke-linejoin:round;stroke:#000000;stroke-width:1.0;stroke-linecap:round;fill:none"
       id="R"
       d="M3761.87 266.94C3761.87 266.94 3755.23 300.0 3755.23 300.0M3761.87 266.94C3761.87 266.94 3774.75 266.85 3774.75 266.85C3774.93 266.85 3780.64 267.8 3780.25 272.18C3780.07 274.29 3780.14 278.99 3777.72 282.41C3777.72 282.41 3775.84 285.13 3772.42 285.05C3772.42 285.05 3758.43 284.74 3758.43 284.74M3770.97 284.92C3770.97 284.92 3775.75 300.0 3775.75 300.0"
       transform="matrix(1,0,0.17632698,1,-54,0)" />
    <path
       id="lv_0001_0024"
       d="M 3750 333.333333333 V 233.333333333"
       style="opacity:1;stroke:#00aa88;stroke-width:0.25" />
    <path
       id="rv_0001_0024"
       d="M 3780.27 333.333333333 V 233.333333333"
       style="opacity:1;stroke:#1b46ff;stroke-width:0.25" />
    <path
       id="h_2"
       d="M 0 450 H 3900"
       style="opacity:1;stroke:#ff0066;stroke-width:0.25" />
    <path
       style="stroke-linejoin:round;stroke:#000000;stroke-width:1.0;stroke-linecap:round;fill:none"
       id="S"
       d="M180.14 417.48C180.14 417.48 168.41 416.77 168.41 416.77C168.41 416.77 163.43 416.06 161.65 420.14C161.65 420.14 160.01 429.62 160.01 429.62C160.0 429.59 159.71 433.22 164.74 433.36C164.74 433.36 173.8 433.75 173.8 433.75C173.8 433.75 177.88 434.53 177.43 438.17C177.43 438.17 176.01 445.63 176.01 445.63C175.72 446.89 173.7 450.15 169.65 450.0C169.65 450.0 157.03 448.93 157.03 448.93"
       transform="matrix(1,0,0.17632698,1,-80,0)" />
    <path
       id="lv_0002_0000"
       d="M 150 483.333333333 V 383.333333333"
       style="opacity:1;stroke:#00aa88;stroke-width:0.25" />
    <path
       id="rv_0002_0000"
       d="M 180.14 483.333333333 V 383.333333333"
       style="opacity:1;stroke:#1b46ff;stroke-width:0.25" />
    <path
       style="stroke-linejoin:round;stroke:#000000;stroke-width:1.0;stroke-linecap:round;fill:none"
       id="T"
       d="M321.35 417.3C321.35 417.3 315.14 450.0 315.14 450.0M310.34 417.3C310.34 417.3 332.73 417.3 332.73 417.3"
       transform="matrix(1,0,0.17632698,1,-80,0)" />
    <path
       id="lv_0002_0001"
       d="M 300 483.333333333 V 383.333333333"
       style="opacity:1;stroke:#00aa88;stroke-width:0.25" />
    <path
       id="rv_0002_0001"
       d="M 332.73 483.333333333 V 383.333333333"
       style="opacity:1;stroke:#1b46ff;stroke-width:0.25" />
    <path
       style="stroke-linejoin:round;stroke:#000000;stroke-width:1.0;stroke-linecap:round;fill:none"
       id="U"
       d="M462.78 416.13C462.78 416.13 458.14 442.46 458.14 442.46C457.95 443.91 458.14 448.81 462.03 450.0C462.03 450.0 472.21 450.0 472.21 450.0C473.69 449.85 479.07 448.02 480.23 442.38C480.23 442.38 485.57 416.13 485.57 416.13"
       transform="matrix(1,0,0.17632698,1,-80,0)" />
    <path
       id="lv_0002_0002"
       d="M 450 483.333333333 V 383.333333333"
       style="opacity:1;stroke:#00aa88;stroke-width:0.25" />
    <path
       id="rv_0002_0002"
       d="M 485.57 483.333333333 V 383.333333333"
       style="opacity:1;stroke:#1b46ff;stroke-width:0.25" />
    <path
       style="stroke-linejoin:round;stroke:#000000;stroke-width:1.0;stroke-linecap:round;fill:none"
       id="V"
       d="M611.55 415.9C611.55 415.9 616.23 450.0 616.23 450.0C616.23 450.0 618.36 450.0 618.36 450.0C618.36 450.0 636.43 415.9 636.43 415.9"
       transform="matrix(1,0,0.17632698,1,-80,0)" />
    <path
       id="lv_0002_0003"
       d="M 600 483.333333333 V 383.333333333"
       style="opacity:1;stroke:#00aa88;stroke-width:0.25" />
    <path
       id="rv_0002_0003"
       d="M 636.43 483.333333333 V 383.333333333"
       style="opacity:1;stroke:#1b46ff;stroke-width:0.25" />
    <path
       style="stroke-linejoin:round;stroke:#000000;stroke-width:1.0;stroke-linecap:round;fill:none"
       id="W"
       d="M761.71 416.24C761.71 416.24 766.33 450.0 766.33 450.0C766.33 450.0 768.29 450.0 768.29 450.0C768.29 450.0 784.46 416.06 784.46 416.06M779.38 426.72C779.38 426.72 783.48 450.0 783.48 450.0C783.48 450.0 785.26 450.0 785.26 450.0C785.26 450.0 801.52 416.24 801.52 416.24"
       transform="matrix(1,0,0.17632698,1,-80,0)" />
    <path
       id="lv_0002_0004"
       d="M 750 483.333333333 V 383.333333333"
       style="opacity:1;stroke:#00aa88;stroke-width:0.25" />
    <path
       id="rv_0002_0004"
       d="M 801.52 483.333333333 V 383.333333333"
       style="opacity:1;stroke:#1b46ff;stroke-width:0.25" />
    <path
       style="stroke-linejoin:round;stroke:#000000;stroke-width:1.0;stroke-linecap:round;fill:none"
       id="X"
       d="M912.26 415.69C912.26 415.69 926.34 450.0 926.34 450.0M933.0 415.69C933.0 415.69 905.35 450.0 905.35 450.0"
       transform="matrix(1,0,0.17632698,1,-80,0)" />
    <path
       id="lv_0002_0005"
       d="M 900 483.333333333 V 383.333333333"
       style="opacity:1;stroke:#00aa88;stroke-width:0.25" />
    <path
       id="rv_0002_0005"
       d="M 933.0 483.333333333 V 383.333333333"
       style="opacity:1;stroke:#1b46ff;stroke-width:0.25" />
    <path
       style="stroke-linejoin:round;stroke:#000000;stroke-width:1.0;stroke-linecap:round;fill:none"
       id="Y"
       d="M1061.94 415.52C1061.94 415.52 1068.47 437.36 1068.47 437.36M1084.51 415.52C1084.51 415.52 1068.64 437.28 1068.64 437.28M1068.59 437.14C1068.59 437.14 1066.16 450.0 1066.16 450.0"
       transform="matrix(1,0,0.17632698,1,-80,0)" />
    <path
       id="lv_0002_0006"
       d="M 1050 483.333333333 V 383.333333333"
       style="opacity:1;stroke:#00aa88;stroke-width:0.25" />
    <path
       id="rv_0002_0006"
       d="M 1084.51 483.333333333 V 383.333333333"
       style="opacity:1;stroke:#1b46ff;stroke-width:0.25" />
    <path
       style="stroke-linejoin:round;stroke:#000000;stroke-width:1.0;stroke-linecap:round;fill:none"
       id="Z"
       d="M1209.89 417.2C1209.89 417.2 1231.07 417.08 1231.07 417.08C1231.07 417.08 1230.63 418.52 1230.63 418.52C1230.63 418.52 1204.43 448.37 1204.43 448.37C1204.43 448.37 1203.99 450.0 1203.99 450.0C1203.99 450.0 1225.1 450.0 1225.1 450.0"
       transform="matrix(1,0,0.17632698,1,-80,0)" />
    <path
       id="lv_0002_0007"
       d="M 1200 483.333333333 V 383.333333333"
       style="opacity:1;stroke:#00aa88;stroke-width:0.25" />
    <path
       id="rv_0002_0007"
       d="M 1231.07 483.333333333 V 383.333333333"
       style="opacity:1;stroke:#1b46ff;stroke-width:0.25" />
    <path
       style="stroke-linejoin:round;stroke:#000000;stroke-width:1.0;stroke-linecap:round;fill:none"
       id="["
       d="M1371.38 411.67C1371.38 411.67 1365.52 410.16 1363.39 416.73C1363.39 416.73 1355.57 454.49 1355.57 454.49C1355.49 454.88 1354.96 460.47 1361.61 460.0"
       transform="matrix(1,0,0.17632698,1,-80,0)" />
    <path
       id="lv_0002_0008"
       d="M 1350 483.333333333 V 383.333333333"
       style="opacity:1;stroke:#00aa88;stroke-width:0.25" />
    <path
       id="rv_0002_0008"
       d="M 1371.38 483.333333333 V 383.333333333"
       style="opacity:1;stroke:#1b46ff;stroke-width:0.25" />
    <path
       style="stroke-linejoin:round;stroke:#000000;stroke-width:1.0;stroke-linecap:round;fill:none"
       id="\"
       d="M1510.92 414.5C1510.92 414.5 1516.57 453.7 1516.57 453.7"
       transform="matrix(1,0,0.17632698,1,-80,0)" />
    <path
       id="lv_0002_0009"
       d="M 1500 483.333333333 V 383.333333333"
       style="opacity:1;stroke:#00aa88;stroke-width:0.25" />
    <path
       id="rv_0002_0009"
       d="M 1516.57 483.333333333 V 383.333333333"
       style="opacity:1;stroke:#1b46ff;stroke-width:0.25" />
    <path
       style="stroke-linejoin:round;stroke:#000000;stroke-width:1.0;stroke-linecap:round;fill:none"
       id="]"
       d="M1651.22 459.67C1651.22 459.67 1657.09 461.18 1659.22 454.6C1659.22 454.6 1667.04 416.84 1667.04 416.84C1667.12 416.45 1667.65 410.86 1661.0 411.33"
       transform="matrix(1,0,0.17632698,1,-80,0)" />
    <path
       id="lv_0002_0010"
       d="M 1650 483.333333333 V 383.333333333"
       style="opacity:1;stroke:#00aa88;stroke-width:0.25" />
    <path
       id="rv_0002_0010"
       d="M 1667.08 483.333333333 V 383.333333333"
       style="opacity:1;stroke:#1b46ff;stroke-width:0.25" />
    <path
       style="stroke-linejoin:round;stroke:#000000;stroke-width:1.0;stroke-linecap:round;fill:none"
       id="^"
       d="M1810.51 423.91C1810.51 423.91 1815.05 420.0 1815.05 420.0C1815.05 420.0 1817.36 420.0 1817.36 420.0C1817.36 420.0 1819.76 423.65 1819.76 423.65"
       transform="matrix(1,0,0.17632698,1,-80,0)" />
    <path
       id="lv_0002_0011"
       d="M 1800 483.333333333 V 383.333333333"
       style="opacity:1;stroke:#00aa88;stroke-width:0.25" />
    <path
       id="rv_0002_0011"
       d="M 1819.76 483.333333333 V 383.333333333"
       style="opacity:1;stroke:#1b46ff;stroke-width:0.25" />
    <path
       style="stroke-linejoin:round;stroke:#000000;stroke-width:1.0;stroke-linecap:round;fill:none"
       id="_"
       d="M1949.93 450.0C1949.93 450.0 1978.72 450.0 1978.72 450.0"
       transform="matrix(1,0,0.17632698,1,-80,0)" />
    <path
       id="lv_0002_0012"
       d="M 1950 483.333333333 V 383.333333333"
       style="opacity:1;stroke:#00aa88;stroke-width:0.25" />
    <path
       id="rv_0002_0012"
       d="M 1978.72 483.333333333 V 383.333333333"
       style="opacity:1;stroke:#1b46ff;stroke-width:0.25" />
    <path
       style="stroke-linejoin:round;stroke:#000000;stroke-width:1.0;stroke-linecap:round;fill:none"
       id="`"
       d="M2110.72 419.38C2110.72 419.38 2113.74 423.65 2113.74 423.65"
       transform="matrix(1,0,0.17632698,1,-80,0)" />
    <path
       id="lv_0002_0013"
       d="M 2100 483.333333333 V 383.333333333"
       style="opacity:1;stroke:#00aa88;stroke-width:0.25" />
    <path
       id="rv_0002_0013"
       d="M 2113.74 483.333333333 V 383.333333333"
       style="opacity:1;stroke:#1b46ff;stroke-width:0.25" />
    <path
       style="fill:none;stroke:#000000;stroke-width:1;stroke-linecap:round;stroke-linejoin:round"
       id="a"
       d="M 2273.98,436.62 C 2273.98,436.62 2261.27,437.06 2261.27,437.06 2261.27,437.06 2256.38,437.77 2256.12,441.6 2256.12,441.6 2255.41,446.48 2255.41,446.48 2255.14,447.7 2256.22,450.71 2259.58,449.86 2261.73,449.35 2261.78,449.66 2272.47,445.77 M 2258.87,427.56 C 2258.87,427.56 2271.04,426.31 2271.04,426.31 2272.73,426.06 2275.62,427.39 2275.04,430.93 2275.04,430.93 2271.78,450 2271.78,450"
       transform="matrix(1,0,0.17632698,1,-80,0)"
       inkscape:connector-curvature="0" />
    <path
       id="lv_0002_0014"
       d="M 2250 483.333333333 V 383.333333333"
       style="opacity:1;stroke:#00aa88;stroke-width:0.25" />
    <path
       id="rv_0002_0014"
       d="M 2275.12 483.333333333 V 383.333333333"
       style="opacity:1;stroke:#1b46ff;stroke-width:0.25" />
    <path
       style="stroke-linejoin:round;stroke:#000000;stroke-width:1.0;stroke-linecap:round;fill:none"
       id="b"
       d="M2412.39 412.94C2412.39 412.94 2404.85 450.0 2404.85 450.0M2409.18 428.83C2409.18 428.83 2422.31 424.75 2424.2 426.64C2424.2 426.64 2427.17 428.09 2426.34 434.74C2426.02 437.31 2425.14 446.98 2419.61 449.94C2417.76 450.07 2413.33 450.5 2405.85 445.86"
       transform="matrix(1,0,0.17632698,1,-80,0)" />
    <path
       id="lv_0002_0015"
       d="M 2400 483.333333333 V 383.333333333"
       style="opacity:1;stroke:#00aa88;stroke-width:0.25" />
    <path
       id="rv_0002_0015"
       d="M 2426.48 483.333333333 V 383.333333333"
       style="opacity:1;stroke:#1b46ff;stroke-width:0.25" />
    <path
       style="stroke-linejoin:round;stroke:#000000;stroke-width:1.0;stroke-linecap:round;fill:none"
       id="c"
       d="M2576.64 427.37C2576.64 427.37 2566.31 426.08 2564.25 426.52C2563.03 426.78 2560.51 427.99 2559.76 430.21C2559.14 432.04 2555.06 441.02 2556.96 447.36C2557.41 448.84 2559.14 450.3 2562.16 449.98C2562.16 449.98 2572.82 448.82 2572.82 448.82"
       transform="matrix(1,0,0.17632698,1,-80,0)" />
    <path
       id="lv_0002_0016"
       d="M 2550 483.333333333 V 383.333333333"
       style="opacity:1;stroke:#00aa88;stroke-width:0.25" />
    <path
       id="rv_0002_0016"
       d="M 2576.64 483.333333333 V 383.333333333"
       style="opacity:1;stroke:#1b46ff;stroke-width:0.25" />
    <path
       style="stroke-linejoin:round;stroke:#000000;stroke-width:1.0;stroke-linecap:round;fill:none"
       id="d"
       d="M2730.13 413.13C2730.13 413.13 2723.37 450.0 2723.37 450.0M2727.24 428.71C2727.52 428.28 2718.67 425.19 2714.98 426.32C2709.6 427.98 2705.31 435.05 2707.38 447.18C2707.44 447.5 2708.79 450.84 2714.58 449.76C2714.58 449.76 2724.03 445.99 2724.03 445.99"
       transform="matrix(1,0,0.17632698,1,-80,0)" />
    <path
       id="lv_0002_0017"
       d="M 2700 483.333333333 V 383.333333333"
       style="opacity:1;stroke:#00aa88;stroke-width:0.25" />
    <path
       id="rv_0002_0017"
       d="M 2730.13 483.333333333 V 383.333333333"
       style="opacity:1;stroke:#1b46ff;stroke-width:0.25" />
    <path
       style="stroke-linejoin:round;stroke:#000000;stroke-width:1.0;stroke-linecap:round;fill:none"
       id="e"
       d="M2856.57 438.3C2856.57 438.3 2866.62 438.9 2870.84 438.43C2873.0 438.19 2874.79 437.8 2875.49 433.84C2875.49 433.84 2877.58 427.82 2870.46 426.89C2867.98 426.56 2862.73 426.07 2860.66 428.9C2858.69 431.59 2853.79 443.69 2856.51 447.75C2857.69 449.5 2859.5 449.98 2862.59 450.0C2865.17 450.02 2868.63 449.71 2873.35 449.57"
       transform="matrix(1,0,0.17632698,1,-80,0)" />
    <path
       id="lv_0002_0018"
       d="M 2850 483.333333333 V 383.333333333"
       style="opacity:1;stroke:#00aa88;stroke-width:0.25" />
    <path
       id="rv_0002_0018"
       d="M 2875.77 483.333333333 V 383.333333333"
       style="opacity:1;stroke:#1b46ff;stroke-width:0.25" />
    <path
       style="stroke-linejoin:round;stroke:#000000;stroke-width:1.0;stroke-linecap:round;fill:none"
       id="f"
       d="M3025.75 414.51C3025.75 414.51 3016.05 411.52 3014.94 416.83C3014.94 416.83 3007.95 450.0 3007.95 450.0M3006.58 427.08C3006.58 427.08 3021.04 427.08 3021.04 427.08"
       transform="matrix(1,0,0.17632698,1,-80,0)" />
    <path
       id="lv_0002_0019"
       d="M 3000 483.333333333 V 383.333333333"
       style="opacity:1;stroke:#00aa88;stroke-width:0.25" />
    <path
       id="rv_0002_0019"
       d="M 3025.75 483.333333333 V 383.333333333"
       style="opacity:1;stroke:#1b46ff;stroke-width:0.25" />
    <path
       style="stroke-linejoin:round;stroke:#000000;stroke-width:1.0;stroke-linecap:round;fill:none"
       id="g"
       d="M3180.8 426.48C3180.8 426.48 3165.65 426.48 3165.65 426.48C3165.65 426.48 3159.81 426.61 3158.43 432.01C3158.43 432.01 3155.54 440.93 3162.39 441.81C3162.39 441.81 3170.74 442.95 3173.01 440.37C3175.36 437.68 3177.22 431.26 3174.58 426.61M3160.63 441.31C3160.63 441.31 3154.91 442.82 3155.29 445.71C3155.59 448.0 3154.03 449.6 3159.62 449.48C3159.62 449.48 3165.91 449.19 3168.92 449.35C3170.5 449.44 3172.91 449.07 3172.06 454.76C3171.83 456.34 3171.89 458.08 3170.56 460.79C3169.62 462.68 3168.17 463.24 3165.03 463.24C3165.03 463.24 3156.54 463.24 3156.54 463.24C3156.54 463.24 3152.33 463.05 3152.77 458.97C3152.77 458.97 3154.53 450.23 3156.54 449.23"
       transform="matrix(1,0,0.17632698,1,-80,0)" />
    <path
       id="lv_0002_0020"
       d="M 3150 483.333333333 V 383.333333333"
       style="opacity:1;stroke:#00aa88;stroke-width:0.25" />
    <path
       id="rv_0002_0020"
       d="M 3180.8 483.333333333 V 383.333333333"
       style="opacity:1;stroke:#1b46ff;stroke-width:0.25" />
    <path
       style="stroke-linejoin:round;stroke:#000000;stroke-width:1.0;stroke-linecap:round;fill:none"
       id="h"
       d="M3312.59 412.66C3312.59 412.66 3305.17 450.0 3305.17 450.0M3309.13 430.5C3309.13 430.5 3319.81 426.36 3321.63 426.04C3323.46 425.73 3327.73 426.67 3326.28 433.52C3326.28 433.52 3323.22 450.0 3323.22 450.0"
       transform="matrix(1,0,0.17632698,1,-80,0)" />
    <path
       id="lv_0002_0021"
       d="M 3300 483.333333333 V 383.333333333"
       style="opacity:1;stroke:#00aa88;stroke-width:0.25" />
    <path
       id="rv_0002_0021"
       d="M 3326.58 483.333333333 V 383.333333333"
       style="opacity:1;stroke:#1b46ff;stroke-width:0.25" />
    <path
       style="stroke-linejoin:round;stroke:#000000;stroke-width:1.0;stroke-linecap:round;fill:none"
       id="i"
       d="M3459.83 425.79C3459.83 425.79 3455.23 450.0 3455.23 450.0M3461.4 417.63C3461.4 417.63 3462.44 417.63 3462.44 417.63C3462.87 417.63 3463.14 417.97 3463.04 418.4C3463.04 418.4 3462.74 419.77 3462.74 419.77C3462.65 420.2 3462.22 420.55 3461.8 420.55C3461.8 420.55 3460.75 420.55 3460.75 420.55C3460.33 420.55 3460.06 420.2 3460.15 419.77C3460.15 419.77 3460.45 418.4 3460.45 418.4C3460.55 417.97 3460.97 417.63 3461.4 417.63C3461.4 417.63 3461.4 417.63 3461.4 417.63"
       transform="matrix(1,0,0.17632698,1,-80,0)" />
    <path
       id="lv_0002_0022"
       d="M 3450 483.333333333 V 383.333333333"
       style="opacity:1;stroke:#00aa88;stroke-width:0.25" />
    <path
       id="rv_0002_0022"
       d="M 3463.06 483.333333333 V 383.333333333"
       style="opacity:1;stroke:#1b46ff;stroke-width:0.25" />
    <path
       style="stroke-linejoin:round;stroke:#000000;stroke-width:1.0;stroke-linecap:round;fill:none"
       id="j"
       d="M3610.53 425.6C3610.53 425.6 3604.31 462.99 3602.36 464.12M3611.86 417.63C3611.86 417.63 3612.9 417.63 3612.9 417.63C3613.33 417.63 3613.6 417.97 3613.5 418.4C3613.5 418.4 3613.2 419.77 3613.2 419.77C3613.11 420.2 3612.68 420.55 3612.25 420.55C3612.25 420.55 3611.21 420.55 3611.21 420.55C3610.78 420.55 3610.51 420.2 3610.61 419.77C3610.61 419.77 3610.91 418.4 3610.91 418.4C3611.0 417.97 3611.43 417.63 3611.86 417.63C3611.86 417.63 3611.86 417.63 3611.86 417.63"
       transform="matrix(1,0,0.17632698,1,-80,0)" />
    <path
       id="lv_0002_0023"
       d="M 3600 483.333333333 V 383.333333333"
       style="opacity:1;stroke:#00aa88;stroke-width:0.25" />
    <path
       id="rv_0002_0023"
       d="M 3613.52 483.333333333 V 383.333333333"
       style="opacity:1;stroke:#1b46ff;stroke-width:0.25" />
    <path
       style="stroke-linejoin:round;stroke:#000000;stroke-width:1.0;stroke-linecap:round;fill:none"
       id="k"
       d="M3762.43 412.91C3762.43 412.91 3755.34 450.0 3755.34 450.0M3776.0 425.48C3776.0 425.48 3768.64 431.78 3764.88 434.97C3763.29 436.31 3761.17 436.41 3758.03 436.1M3763.31 435.91C3763.31 435.91 3771.54 450.0 3771.54 450.0"
       transform="matrix(1,0,0.17632698,1,-80,0)" />
    <path
       id="lv_0002_0024"
       d="M 3750 483.333333333 V 383.333333333"
       style="opacity:1;stroke:#00aa88;stroke-width:0.25" />
    <path
       id="rv_0002_0024"
       d="M 3776.0 483.333333333 V 383.333333333"
       style="opacity:1;stroke:#1b46ff;stroke-width:0.25" />
    <path
       id="h_3"
       d="M 0 600 H 3900"
       style="opacity:1;stroke:#ff0066;stroke-width:0.25" />
    <path
       style="stroke-linejoin:round;stroke:#000000;stroke-width:1.0;stroke-linecap:round;fill:none"
       id="l"
       d="M162.45 562.95C162.45 562.95 159.16 581.75 156.48 595.75C155.97 598.42 157.42 599.45 163.39 600.08" transform="matrix(1,0,0.17632698,1,-106,0)"/>
    <path
       id="lv_0003_0000"
       d="M 150 633.333333333 V 533.333333333"
       style="opacity:1;stroke:#00aa88;stroke-width:0.25" />
    <path
       id="rv_0003_0000"
       d="M 163.39 633.333333333 V 533.333333333"
       style="opacity:1;stroke:#1b46ff;stroke-width:0.25" />
    <path
       style="stroke-linejoin:round;stroke:#000000;stroke-width:1.0;stroke-linecap:round;fill:none"
       id="m"
       d="M309.54 575.52C309.54 575.52 305.01 600.0 305.01 600.0M308.52 581.07C308.52 581.07 318.24 576.69 320.69 576.45C322.57 576.26 327.0 577.91 326.02 582.45C326.02 582.45 322.89 600.0 322.89 600.0M326.15 580.98C326.15 580.98 335.64 576.63 338.68 576.58C340.81 576.55 344.59 577.2 343.26 583.69C343.26 583.69 340.11 600.0 340.11 600.0"
       transform="matrix(1,0,0.17632698,1,-106,0)"/>
    <path
       id="lv_0003_0001"
       d="M 300 633.333333333 V 533.333333333"
       style="opacity:1;stroke:#00aa88;stroke-width:0.25" />
    <path
       id="rv_0003_0001"
       d="M 343.54 633.333333333 V 533.333333333"
       style="opacity:1;stroke:#1b46ff;stroke-width:0.25" />
    <path
       style="stroke-linejoin:round;stroke:#000000;stroke-width:1.0;stroke-linecap:round;fill:none"
       id="n"
       d="M459.64 575.52C459.64 575.52 455.32 600.0 455.32 600.0M458.8 580.89C458.8 580.89 469.0 576.79 471.19 576.45C473.9 576.03 477.32 576.68 475.95 584.0C475.95 584.0 472.98 600.0 472.98 600.0"
       transform="matrix(1,0,0.17632698,1,-106,0)"/>
    <path
       id="lv_0003_0002"
       d="M 450 633.333333333 V 533.333333333"
       style="opacity:1;stroke:#00aa88;stroke-width:0.25" />
    <path
       id="rv_0003_0002"
       d="M 476.26 633.333333333 V 533.333333333"
       style="opacity:1;stroke:#1b46ff;stroke-width:0.25" />
    <path
       style="stroke-linejoin:round;stroke:#000000;stroke-width:1.0;stroke-linecap:round;fill:none"
       id="o"
       d="M616.31 576.33C612.67 576.69 610.66 576.83 608.59 582.24C607.46 585.17 602.68 599.75 611.16 600.0C617.04 600.17 621.41 600.75 624.73 593.92C626.1 591.11 626.99 580.92 626.74 579.72C626.51 578.57 624.67 575.52 616.31 576.33C616.31 576.33 616.31 576.33 616.31 576.33"
       transform="matrix(1,0,0.17632698,1,-106,0)"/>
    <path
       id="lv_0003_0003"
       d="M 600 633.333333333 V 533.333333333"
       style="opacity:1;stroke:#00aa88;stroke-width:0.25" />
    <path
       id="rv_0003_0003"
       d="M 626.78 633.333333333 V 533.333333333"
       style="opacity:1;stroke:#1b46ff;stroke-width:0.25" />
    <path
       style="stroke-linejoin:round;stroke:#000000;stroke-width:1.0;stroke-linecap:round;fill:none"
       id="p"
       d="M759.66 575.64C759.66 575.64 752.44 614.6 752.44 614.6M758.85 580.1C758.85 580.1 769.36 576.48 771.41 576.27C774.24 575.98 776.85 577.5 775.75 585.63C775.31 588.9 773.86 595.46 772.73 597.0C771.34 598.9 769.46 601.97 755.58 597.88" transform="matrix(1,0,0.17632698,1,-106,0)"/>
    <path
       id="lv_0003_0004"
       d="M 750 633.333333333 V 533.333333333"
       style="opacity:1;stroke:#00aa88;stroke-width:0.25" />
    <path
       id="rv_0003_0004"
       d="M 776.0 633.333333333 V 533.333333333"
       style="opacity:1;stroke:#1b46ff;stroke-width:0.25" />
    <path
       style="stroke-linejoin:round;stroke:#000000;stroke-width:1.0;stroke-linecap:round;fill:none"
       id="q"
       d="M926.84 577.44C926.84 577.44 920.71 575.67 916.09 576.37C913.09 576.82 910.55 578.26 908.18 584.1C907.15 586.61 903.43 596.49 909.31 599.55C910.46 600.15 918.36 600.68 922.82 598.23M926.84 577.44C926.84 577.44 919.86 614.32 919.86 614.32" transform="matrix(1,0,0.17632698,1,-106,0)"/>
    <path
       id="lv_0003_0005"
       d="M 900 633.333333333 V 533.333333333"
       style="opacity:1;stroke:#00aa88;stroke-width:0.25" />
    <path
       id="rv_0003_0005"
       d="M 926.84 633.333333333 V 533.333333333"
       style="opacity:1;stroke:#1b46ff;stroke-width:0.25" />
    <path
       style="stroke-linejoin:round;stroke:#000000;stroke-width:1.0;stroke-linecap:round;fill:none"
       id="r"
       d="M1059.7 575.61C1059.7 575.61 1054.86 600.0 1054.86 600.0M1058.57 581.52C1058.57 581.52 1068.74 574.36 1074.21 577.06" transform="matrix(1,0,0.17632698,1,-106,0)"/>
    <path
       id="lv_0003_0006"
       d="M 1050 633.333333333 V 533.333333333"
       style="opacity:1;stroke:#00aa88;stroke-width:0.25" />
    <path
       id="rv_0003_0006"
       d="M 1074.21 633.333333333 V 533.333333333"
       style="opacity:1;stroke:#1b46ff;stroke-width:0.25" />
    <path
       style="stroke-linejoin:round;stroke:#000000;stroke-width:1.0;stroke-linecap:round;fill:none"
       id="s"
       d="M1226.1 577.19C1218.92 576.56 1210.31 574.09 1208.2 580.01C1207.77 582.22 1207.32 584.16 1207.44 586.36C1207.59 588.96 1210.84 588.31 1214.98 588.37C1217.58 588.41 1223.14 587.75 1222.65 592.33C1222.36 595.06 1222.19 600.5 1215.67 600.0C1215.67 600.0 1204.18 599.11 1204.18 599.11" transform="matrix(1,0,0.17632698,1,-106,0)"/>
    <path
       id="lv_0003_0007"
       d="M 1200 633.333333333 V 533.333333333"
       style="opacity:1;stroke:#00aa88;stroke-width:0.25" />
    <path
       id="rv_0003_0007"
       d="M 1226.1 633.333333333 V 533.333333333"
       style="opacity:1;stroke:#1b46ff;stroke-width:0.25" />
    <path
       style="stroke-linejoin:round;stroke:#000000;stroke-width:1.0;stroke-linecap:round;fill:none"
       id="t"
       d="M1364.93 567.95C1364.93 567.95 1359.58 593.9 1359.47 595.66C1359.34 597.59 1360.04 600.34 1366.5 600.0M1356.32 577.0C1356.32 577.0 1371.53 577.0 1371.53 577.0" transform="matrix(1,0,0.17632698,1,-106,0)"/>
    <path
       id="lv_0003_0008"
       d="M 1350 633.333333333 V 533.333333333"
       style="opacity:1;stroke:#00aa88;stroke-width:0.25" />
    <path
       id="rv_0003_0008"
       d="M 1371.53 633.333333333 V 533.333333333"
       style="opacity:1;stroke:#1b46ff;stroke-width:0.25" />
    <path
       style="stroke-linejoin:round;stroke:#000000;stroke-width:1.0;stroke-linecap:round;fill:none"
       id="u"
       d="M1509.48 575.49C1509.48 575.49 1506.22 589.43 1505.96 595.03C1505.84 597.6 1507.34 600.56 1511.86 599.99C1514.41 599.67 1520.6 597.23 1523.49 595.41M1527.19 575.43C1527.19 575.43 1522.73 600.0 1522.73 600.0" transform="matrix(1,0,0.17632698,1,-106,0)"/>
    <path
       id="lv_0003_0009"
       d="M 1500 633.333333333 V 533.333333333"
       style="opacity:1;stroke:#00aa88;stroke-width:0.25" />
    <path
       id="rv_0003_0009"
       d="M 1527.19 633.333333333 V 533.333333333"
       style="opacity:1;stroke:#1b46ff;stroke-width:0.25" />
    <path
       style="stroke-linejoin:round;stroke:#000000;stroke-width:1.0;stroke-linecap:round;fill:none"
       id="v"
       d="M1658.56 575.53C1658.56 575.53 1662.84 600.0 1662.84 600.0C1662.84 600.0 1664.72 600.0 1664.72 600.0C1664.72 600.0 1678.6 575.46 1678.6 575.46" transform="matrix(1,0,0.17632698,1,-106,0)"/>
    <path
       id="lv_0003_0010"
       d="M 1650 633.333333333 V 533.333333333"
       style="opacity:1;stroke:#00aa88;stroke-width:0.25" />
    <path
       id="rv_0003_0010"
       d="M 1678.6 633.333333333 V 533.333333333"
       style="opacity:1;stroke:#1b46ff;stroke-width:0.25" />
    <path
       style="stroke-linejoin:round;stroke:#000000;stroke-width:1.0;stroke-linecap:round;fill:none"
       id="w"
       d="M1808.5 575.53C1808.5 575.53 1812.15 600.0 1812.15 600.0C1812.15 600.0 1813.6 600.0 1813.6 600.0C1813.6 600.0 1826.53 575.46 1826.53 575.46M1822.33 583.32C1822.33 583.32 1827.07 600.0 1827.07 600.0C1827.07 600.0 1828.52 600.0 1828.52 600.0C1828.52 600.0 1841.93 575.53 1841.93 575.53" transform="matrix(1,0,0.17632698,1,-106,0)"/>
    <path
       id="lv_0003_0011"
       d="M 1800 633.333333333 V 533.333333333"
       style="opacity:1;stroke:#00aa88;stroke-width:0.25" />
    <path
       id="rv_0003_0011"
       d="M 1841.93 633.333333333 V 533.333333333"
       style="opacity:1;stroke:#1b46ff;stroke-width:0.25" />
    <path
       style="stroke-linejoin:round;stroke:#000000;stroke-width:1.0;stroke-linecap:round;fill:none"
       id="x"
       d="M1959.39 575.59C1959.39 575.59 1972.15 600.0 1972.15 600.0M1977.24 575.53C1977.24 575.53 1954.93 600.0 1954.93 600.0" transform="matrix(1,0,0.17632698,1,-106,0)"/>
    <path
       id="lv_0003_0012"
       d="M 1950 633.333333333 V 533.333333333"
       style="opacity:1;stroke:#00aa88;stroke-width:0.25" />
    <path
       id="rv_0003_0012"
       d="M 1977.24 633.333333333 V 533.333333333"
       style="opacity:1;stroke:#1b46ff;stroke-width:0.25" />
    <path
       style="stroke-linejoin:round;stroke:#000000;stroke-width:1.0;stroke-linecap:round;fill:none"
       id="y"
       d="M2108.4 575.46C2108.4 575.46 2109.6 589.87 2110.91 596.95C2111.3 599.08 2112.42 600.25 2116.44 600.0M2129.38 575.46C2129.38 575.46 2109.03 614.29 2109.03 614.29" transform="matrix(1,0,0.17632698,1,-106,0)"/>
    <path
       id="lv_0003_0013"
       d="M 2100 633.333333333 V 533.333333333"
       style="opacity:1;stroke:#00aa88;stroke-width:0.25" />
    <path
       id="rv_0003_0013"
       d="M 2129.38 633.333333333 V 533.333333333"
       style="opacity:1;stroke:#1b46ff;stroke-width:0.25" />
    <path
       style="stroke-linejoin:round;stroke:#000000;stroke-width:1.0;stroke-linecap:round;fill:none"
       id="z"
       d="M2257.02 576.97C2257.02 576.97 2274.87 576.97 2274.87 576.97C2274.87 576.97 2254.07 600.0 2254.07 600.0C2254.07 600.0 2271.22 600.0 2271.22 600.0" transform="matrix(1,0,0.17632698,1,-106,0)"/>
    <path
       id="lv_0003_0014"
       d="M 2250 633.333333333 V 533.333333333"
       style="opacity:1;stroke:#00aa88;stroke-width:0.25" />
    <path
       id="rv_0003_0014"
       d="M 2274.87 633.333333333 V 533.333333333"
       style="opacity:1;stroke:#1b46ff;stroke-width:0.25" />
    <path
       style="stroke-linejoin:round;stroke:#000000;stroke-width:1.0;stroke-linecap:round;fill:none"
       id=""
       d="M2405.12 600.075C2405.12 600.075 2423.16 566.305 2423.16 566.305C2423.16 566.305 2425.125 566.305 2425.125 566.305C2425.125 566.305 2429.945 600.075 2429.945 600.075M2410.965 589.455C2410.965 589.455 2428.35 589.37 2428.35 589.37M2433.89 558.47C2433.81 558.785 2433.595 559.085 2433.29 559.31C2432.99 559.53 2432.625 559.655 2432.28 559.655C2431.56 559.655 2431.11 559.125 2431.28 558.47C2431.36 558.155 2431.575 557.855 2431.88 557.635C2432.18 557.415 2432.545 557.29 2432.89 557.29C2433.235 557.29 2433.535 557.415 2433.725 557.635C2433.91 557.855 2433.97 558.155 2433.89 558.47C2433.89 558.47 2433.89 558.47 2433.89 558.47M2421.075 558.47C2420.995 558.785 2420.78 559.085 2420.475 559.31C2420.175 559.53 2419.81 559.655 2419.465 559.655C2418.74 559.655 2418.295 559.125 2418.465 558.47C2418.545 558.155 2418.76 557.855 2419.06 557.635C2419.365 557.415 2419.73 557.29 2420.075 557.29C2420.42 557.29 2420.72 557.415 2420.91 557.635C2421.095 557.855 2421.155 558.155 2421.075 558.47C2421.075 558.47 2421.075 558.47 2421.075 558.47" transform="matrix(1,0,0.17632698,1,-106,0)"/>
    <path
       id="lv_0003_0015"
       d="M 2400 633.333333333 V 533.333333333"
       style="opacity:1;stroke:#00aa88;stroke-width:0.25" />
    <path
       id="rv_0003_0015"
       d="M 2433.925 633.333333333 V 533.333333333"
       style="opacity:1;stroke:#1b46ff;stroke-width:0.25" />
    <path
       style="stroke-linejoin:round;stroke:#000000;stroke-width:1.0;stroke-linecap:round;fill:none"
       id=""
       d="M2584.025 572.39C2584.785 580.02 2581.795 590.535 2580.255 593.06C2577.49 597.585 2576.855 597.39 2573.405 598.715C2572.18 599.19 2569.865 599.425 2567.625 599.435C2565.66 599.45 2563.745 599.29 2562.66 598.97C2558.2 597.65 2558.075 593.315 2558.075 593.315C2556.44 586.655 2561.155 574.15 2561.155 574.15C2563.73 566.8 2570.39 566.485 2570.39 566.485C2570.39 566.485 2575.73 565.92 2577.55 566.42C2577.55 566.42 2583.51 567.245 2584.025 572.39C2584.025 572.39 2584.025 572.39 2584.025 572.39M2583.625 558.41C2583.46 559.065 2582.735 559.595 2582.015 559.595C2581.67 559.595 2581.37 559.47 2581.18 559.245C2580.995 559.025 2580.935 558.725 2581.015 558.41C2581.095 558.095 2581.31 557.795 2581.615 557.575C2581.915 557.35 2582.28 557.23 2582.625 557.23C2583.35 557.23 2583.795 557.755 2583.625 558.41C2583.625 558.41 2583.625 558.41 2583.625 558.41M2570.86 558.41C2570.69 559.065 2569.97 559.595 2569.25 559.595C2568.9 559.595 2568.6 559.47 2568.415 559.245C2568.225 559.025 2568.165 558.725 2568.25 558.41C2568.33 558.095 2568.545 557.795 2568.845 557.575C2569.15 557.35 2569.515 557.23 2569.86 557.23C2570.58 557.23 2571.03 557.755 2570.86 558.41C2570.86 558.41 2570.86 558.41 2570.86 558.41" transform="matrix(1,0,0.17632698,1,-106,0)"/>
    <path
       id="lv_0003_0016"
       d="M 2550 633.333333333 V 533.333333333"
       style="opacity:1;stroke:#00aa88;stroke-width:0.25" />
    <path
       id="rv_0003_0016"
       d="M 2584.145 633.333333333 V 533.333333333"
       style="opacity:1;stroke:#1b46ff;stroke-width:0.25" />
    <path
       style="stroke-linejoin:round;stroke:#000000;stroke-width:1.0;stroke-linecap:round;fill:none"
       id=""
       d="M2712.965 565.625C2712.965 565.625 2708.315 591.95 2708.315 591.95C2708.13 593.395 2708.32 598.295 2712.21 599.49C2712.21 599.49 2722.39 599.49 2722.39 599.49C2723.87 599.34 2729.245 597.51 2730.41 591.865C2730.41 591.865 2735.745 565.625 2735.745 565.625M2720.77 558.5C2720.6 559.155 2719.88 559.685 2719.16 559.685C2718.815 559.685 2718.515 559.56 2718.325 559.335C2718.14 559.115 2718.08 558.815 2718.16 558.5C2718.24 558.185 2718.455 557.885 2718.755 557.665C2719.06 557.44 2719.425 557.315 2719.77 557.315C2720.49 557.315 2720.94 557.845 2720.77 558.5C2720.77 558.5 2720.77 558.5 2720.77 558.5M2733.625 558.5C2733.46 559.155 2732.735 559.685 2732.015 559.685C2731.67 559.685 2731.37 559.56 2731.18 559.335C2730.995 559.115 2730.935 558.815 2731.015 558.5C2731.095 558.185 2731.31 557.885 2731.615 557.665C2731.915 557.44 2732.28 557.315 2732.625 557.315C2733.35 557.315 2733.795 557.845 2733.625 558.5C2733.625 558.5 2733.625 558.5 2733.625 558.5" transform="matrix(1,0,0.17632698,1,-106,0)"/>
    <path
       id="lv_0003_0017"
       d="M 2700 633.333333333 V 533.333333333"
       style="opacity:1;stroke:#00aa88;stroke-width:0.25" />
    <path
       id="rv_0003_0017"
       d="M 2735.745 633.333333333 V 533.333333333"
       style="opacity:1;stroke:#1b46ff;stroke-width:0.25" />
    <path
       style="stroke-linejoin:round;stroke:#000000;stroke-width:1.0;stroke-linecap:round;fill:none"
       id=""
       d="M2879.57 568.855C2879.57 568.855 2880.05 575.095 2870.535 581.0C2867.34 582.98 2867.5 587.16 2873.57 588.23C2876.145 588.685 2877.23 589.305 2876.875 592.07C2876.66 593.745 2875.695 600.16 2870.18 599.57C2870.18 599.57 2862.68 598.77 2862.68 598.77M2855.075 599.98C2855.075 599.98 2858.775 579.82 2860.76 571.195C2861.525 567.845 2863.84 564.66 2868.57 564.48C2872.0 564.355 2879.68 563.14 2879.57 568.855" transform="matrix(1,0,0.17632698,1,-106,0)"/>
    <path
       id="lv_0003_0018"
       d="M 2850 633.333333333 V 533.333333333"
       style="opacity:1;stroke:#00aa88;stroke-width:0.25" />
    <path
       id="rv_0003_0018"
       d="M 2879.575 633.333333333 V 533.333333333"
       style="opacity:1;stroke:#1b46ff;stroke-width:0.25" />
    <path
       style="stroke-linejoin:round;stroke:#000000;stroke-width:1.0;stroke-linecap:round;fill:none"
       id=""
       d="M3023.95 586.165C3023.95 586.165 3011.24 586.61 3011.24 586.61C3011.24 586.61 3006.355 587.32 3006.09 591.14C3006.09 591.14 3005.375 596.03 3005.375 596.03C3005.11 597.245 3006.195 600.25 3009.555 599.405C3011.695 598.89 3011.755 599.2 3022.435 595.32M3008.84 577.105C3008.84 577.105 3021.015 575.86 3021.015 575.86C3022.705 575.605 3025.59 576.94 3025.015 580.48C3025.015 580.48 3021.75 599.545 3021.75 599.545M3014.725 568.215C3014.56 568.87 3013.835 569.4 3013.115 569.4C3012.77 569.4 3012.47 569.275 3012.28 569.05C3012.095 568.83 3012.035 568.53 3012.115 568.215C3012.195 567.9 3012.41 567.6 3012.715 567.38C3013.015 567.155 3013.38 567.03 3013.725 567.03C3014.445 567.03 3014.895 567.56 3014.725 568.215C3014.725 568.215 3014.725 568.215 3014.725 568.215M3027.45 568.215C3027.28 568.87 3026.56 569.4 3025.84 569.4C3025.495 569.4 3025.195 569.275 3025.005 569.05C3024.815 568.83 3024.76 568.53 3024.84 568.215C3024.92 567.9 3025.135 567.6 3025.435 567.38C3025.74 567.155 3026.105 567.03 3026.45 567.03C3027.17 567.03 3027.62 567.56 3027.45 568.215C3027.45 568.215 3027.45 568.215 3027.45 568.215" transform="matrix(1,0,0.17632698,1,-106,0)"/>
    <path
       id="lv_0003_0019"
       d="M 3000 633.333333333 V 533.333333333"
       style="opacity:1;stroke:#00aa88;stroke-width:0.25" />
    <path
       id="rv_0003_0019"
       d="M 3027.485 633.333333333 V 533.333333333"
       style="opacity:1;stroke:#1b46ff;stroke-width:0.25" />
    <path
       style="stroke-linejoin:round;stroke:#000000;stroke-width:1.0;stroke-linecap:round;fill:none"
       id=""
       d="M3166.625 576.34C3162.985 576.695 3160.97 576.845 3158.895 582.245C3157.77 585.18 3152.99 599.76 3161.47 600.01C3167.35 600.185 3171.725 600.755 3175.045 593.935C3176.41 591.125 3177.295 580.93 3177.055 579.735C3176.82 578.585 3174.98 575.525 3166.625 576.34C3166.625 576.34 3166.625 576.34 3166.625 576.34M3165.68 568.5C3165.51 569.155 3164.79 569.685 3164.07 569.685C3163.35 569.685 3162.9 569.155 3163.07 568.5C3163.24 567.845 3163.96 567.315 3164.68 567.315C3165.4 567.315 3165.85 567.845 3165.68 568.5C3165.68 568.5 3165.68 568.5 3165.68 568.5M3178.495 568.5C3178.325 569.155 3177.605 569.685 3176.88 569.685C3176.16 569.685 3175.715 569.155 3175.88 568.5C3176.05 567.845 3176.77 567.315 3177.495 567.315C3178.215 567.315 3178.66 567.845 3178.495 568.5C3178.495 568.5 3178.495 568.5 3178.495 568.5" transform="matrix(1,0,0.17632698,1,-106,0)"/>
    <path
       id="lv_0003_0020"
       d="M 3150 633.333333333 V 533.333333333"
       style="opacity:1;stroke:#00aa88;stroke-width:0.25" />
    <path
       id="rv_0003_0020"
       d="M 3178.53 633.333333333 V 533.333333333"
       style="opacity:1;stroke:#1b46ff;stroke-width:0.25" />
    <path
       style="stroke-linejoin:round;stroke:#000000;stroke-width:1.0;stroke-linecap:round;fill:none"
       id=""
       d="M3309.69 575.555C3309.69 575.555 3306.435 589.5 3306.17 595.095C3306.05 597.665 3307.555 600.625 3312.08 600.06C3314.63 599.74 3320.81 597.295 3323.7 595.47M3327.41 575.49C3327.41 575.49 3322.94 600.065 3322.94 600.065M3314.87 568.54C3314.7 569.195 3313.98 569.725 3313.26 569.725C3312.54 569.725 3312.09 569.195 3312.26 568.54C3312.43 567.89 3313.15 567.36 3313.87 567.36C3314.59 567.36 3315.04 567.89 3314.87 568.54C3314.87 568.54 3314.87 568.54 3314.87 568.54M3327.595 568.54C3327.425 569.195 3326.705 569.725 3325.985 569.725C3325.265 569.725 3324.815 569.195 3324.985 568.54C3325.15 567.89 3325.875 567.36 3326.595 567.36C3327.315 567.36 3327.765 567.89 3327.595 568.54C3327.595 568.54 3327.595 568.54 3327.595 568.54" transform="matrix(1,0,0.17632698,1,-106,0)"/>
    <path
       id="lv_0003_0021"
       d="M 3300 633.333333333 V 533.333333333"
       style="opacity:1;stroke:#00aa88;stroke-width:0.25" />
    <path
       id="rv_0003_0021"
       d="M 3327.63 633.333333333 V 533.333333333"
       style="opacity:1;stroke:#1b46ff;stroke-width:0.25" />
  </g>
</svg>
