<?xml version="1.0" encoding="UTF-8"?><!DOCTYPE svg  PUBLIC '-//W3C//DTD SVG 1.1//EN'  'http://www.w3.org/Graphics/SVG/1.1/DTD/svg11.dtd'><svg xmlns="http://www.w3.org/2000/svg" xmlns:xlink="http://www.w3.org/1999/xlink" version="1.1"><defs><font horiz-adv-x="250.0" id="Hershey-Sans 1-stroke"><font-face font-family="Hershey-Sans 1-stroke" units-per-em="500.0" ascent="400.0" descent="-100.0" cap-height="250.0" x-height="150.0"/><missing-glyph horiz-adv-x="250.0"/><glyph unicode=" " glyph-name="space" horiz-adv-x="250.0"/><glyph unicode="$" glyph-name="$" d="M 133.33 416.67 L 133.33 -66.67 M 200 416.67 L 200 -66.67 M 283.33 300 L 250 333.33 L 200 350 L 133.33 350 L 83.33 333.33 L 50 300 L 50 266.67 L 66.67 233.33 L 83.33 216.67 L 116.67 200 L 216.67 166.67 L 250 150 L 266.67 133.33 L 283.33 100 L 283.33 50 L 250 16.67 L 200 -0 L 133.33 -0 L 83.33 16.67 L 50 50" horiz-adv-x="333.33"/><glyph unicode="(" glyph-name="(" d="M 183.3 416.67 L 150 383.33 L 116.7 333.33 L 83.3 266.67 L 66.7 183.33 L 66.7 116.67 L 83.3 33.33 L 116.7 -33.33 L 150 -83.33 L 183.3 -116.67" horiz-adv-x="233.33"/><glyph unicode="," glyph-name="," d="M 83.3 66.67 L 66.7 50 L 50 66.67 L 66.7 83.33 L 83.3 66.67 L 83.3 33.33 L 50 -0" horiz-adv-x="133.33"/><glyph unicode="0" glyph-name="0" d="M 150 350 L 100 333.33 L 66.7 283.33 L 50 200 L 50 150 L 66.7 66.67 L 100 16.67 L 150 -0 L 183.3 -0 L 233.3 16.67 L 266.7 66.67 L 283.3 150 L 283.3 200 L 266.7 283.33 L 233.3 333.33 L 183.3 350 Z" horiz-adv-x="333.33"/><glyph unicode="4" glyph-name="4" d="M 216.7 350 L 50 116.67 L 300 116.67 M 216.7 350 L 216.7 -0" horiz-adv-x="333.33"/><glyph unicode="8" glyph-name="8" d="M 133.33 350 L 83.33 333.33 L 66.67 300 L 66.67 266.67 L 83.33 233.33 L 116.67 216.67 L 183.33 200 L 233.33 183.33 L 266.67 150 L 283.33 116.67 L 283.33 66.67 L 266.67 33.33 L 250 16.67 L 200 -0 L 133.33 -0 L 83.33 16.67 L 66.67 33.33 L 50 66.67 L 50 116.67 L 66.67 150 L 100 183.33 L 150 200 L 216.67 216.67 L 250 233.33 L 266.67 266.67 L 266.67 300 L 250 333.33 L 200 350 Z" horiz-adv-x="333.33"/><glyph unicode="&lt;" glyph-name="&lt;" d="M 333.3 300 L 66.7 150 L 333.3 -0" horiz-adv-x="400.0"/><glyph unicode="@" glyph-name="@" d="M 300 216.67 L 283.3 250 L 250 266.67 L 200 266.67 L 166.7 250 L 150 233.33 L 133.3 183.33 L 133.3 133.33 L 150 100 L 183.3 83.33 L 233.3 83.33 L 266.7 100 L 283.3 133.33 M 200 266.67 L 166.7 233.33 L 150 183.33 L 150 133.33 L 166.7 100 L 183.3 83.33 M 300 266.67 L 283.3 133.33 L 283.3 100 L 316.7 83.33 L 350 83.33 L 383.3 116.67 L 400 166.67 L 400 200 L 383.3 250 L 366.7 283.33 L 333.3 316.67 L 300 333.33 L 250 350 L 200 350 L 150 333.33 L 116.7 316.67 L 83.3 283.33 L 66.7 250 L 50 200 L 50 150 L 66.7 100 L 83.3 66.67 L 116.7 33.33 L 150 16.67 L 200 -0 L 250 -0 L 300 16.67 L 333.3 33.33 L 350 50 M 316.7 266.67 L 300 133.33 L 300 100 L 316.7 83.33" horiz-adv-x="450.0"/><glyph unicode="D" glyph-name="D" d="M 66.7 350 L 66.7 -0 M 66.7 350 L 183.3 350 L 233.3 333.33 L 266.7 300 L 283.3 266.67 L 300 216.67 L 300 133.33 L 283.3 83.33 L 266.7 50 L 233.3 16.67 L 183.3 -0 L 66.7 -0" horiz-adv-x="350.0"/><glyph unicode="H" glyph-name="H" d="M 66.7 350 L 66.7 -0 M 300 350 L 300 -0 M 66.7 183.33 L 300 183.33" horiz-adv-x="366.67"/><glyph unicode="L" glyph-name="L" d="M 66.67 350 L 66.67 -0 M 66.67 -0 L 266.67 -0" horiz-adv-x="283.33"/><glyph unicode="P" glyph-name="P" d="M 66.67 350 L 66.67 -0 M 66.67 350 L 216.67 350 L 266.67 333.33 L 283.33 316.67 L 300 283.33 L 300 233.33 L 283.33 200 L 266.67 183.33 L 216.67 166.67 L 66.67 166.67" horiz-adv-x="350.0"/><glyph unicode="T" glyph-name="T" d="M 133.3 350 L 133.3 -0 M 16.7 350 L 250 350" horiz-adv-x="266.67"/><glyph unicode="X" glyph-name="X" d="M 50 350 L 283.3 -0 M 283.3 350 L 50 -0" horiz-adv-x="333.33"/><glyph unicode="\" glyph-name="\" d="M 0 350 L 233.3 -50" horiz-adv-x="233.33"/><glyph unicode="`" glyph-name="`" d="M 83.33 266.67 L 50 233.33 L 50 200 L 66.67 183.33 L 83.33 200 L 66.67 216.67 L 50 200" horiz-adv-x="133.33"/><glyph unicode="d" glyph-name="d" d="M 250 350 L 250 -0 M 250 183.33 L 216.67 216.67 L 183.33 233.33 L 133.33 233.33 L 100 216.67 L 66.67 183.33 L 50 133.33 L 50 100 L 66.67 50 L 100 16.67 L 133.33 -0 L 183.33 -0 L 216.67 16.67 L 250 50" horiz-adv-x="316.67"/><glyph unicode="h" glyph-name="h" d="M 66.7 350 L 66.7 -0 M 66.7 166.67 L 116.7 216.67 L 150 233.33 L 200 233.33 L 233.3 216.67 L 250 166.67 L 250 -0" horiz-adv-x="316.67"/><glyph unicode="l" glyph-name="l" d="M 66.7 350 L 66.7 -0" horiz-adv-x="133.33"/><glyph unicode="p" glyph-name="p" d="M 66.7 233.33 L 66.7 -116.67 M 66.7 183.33 L 100 216.67 L 133.3 233.33 L 183.3 233.33 L 216.7 216.67 L 250 183.33 L 266.7 133.33 L 266.7 100 L 250 50 L 216.7 16.67 L 183.3 -0 L 133.3 -0 L 100 16.67 L 66.7 50" horiz-adv-x="316.67"/><glyph unicode="t" glyph-name="t" d="M 83.3 350 L 83.3 66.67 L 100 16.67 L 133.3 -0 L 166.7 -0 M 33.3 233.33 L 150 233.33" horiz-adv-x="200.0"/><glyph unicode="x" glyph-name="x" d="M 50 233.33 L 233.33 -0 M 233.33 233.33 L 50 -0" horiz-adv-x="283.33"/><glyph unicode="|" glyph-name="|" d="M 66.7 416.67 L 66.7 -116.67" horiz-adv-x="133.33"/><glyph unicode="#" glyph-name="#" d="M 183.33 416.67 L 66.67 -116.67 M 283.33 416.67 L 166.67 -116.67 M 66.67 200 L 300 200 M 50 100 L 283.33 100" horiz-adv-x="350.0"/><glyph unicode="'" glyph-name="'" d="M 83.3 316.67 L 66.7 333.33 L 83.3 350 L 100 333.33 L 100 300 L 83.3 266.67 L 66.7 250" horiz-adv-x="166.67"/><glyph unicode="+" glyph-name="+" d="M 216.7 300 L 216.7 -0 M 66.7 150 L 366.7 150" horiz-adv-x="433.33"/><glyph unicode="/" glyph-name="/" d="M 333.3 416.67 L 33.3 -116.67" horiz-adv-x="366.67"/><glyph unicode="3" glyph-name="3" d="M 83.3 350 L 266.7 350 L 166.7 216.67 L 216.7 216.67 L 250 200 L 266.7 183.33 L 283.3 133.33 L 283.3 100 L 266.7 50 L 233.3 16.67 L 183.3 -0 L 133.3 -0 L 83.3 16.67 L 66.7 33.33 L 50 66.67" horiz-adv-x="333.33"/><glyph unicode="7" glyph-name="7" d="M 283.33 350 L 116.67 -0 M 50 350 L 283.33 350" horiz-adv-x="333.33"/><glyph unicode=";" glyph-name=";" d="M 66.67 200 L 50 183.33 L 66.67 166.67 L 83.33 183.33 Z M 83.33 66.67 L 66.67 50 L 50 66.67 L 66.67 83.33 L 83.33 66.67 L 83.33 33.33 L 50 -0" horiz-adv-x="133.33"/><glyph unicode="?" glyph-name="?" d="M 50 266.67 L 50 283.33 L 66.7 316.67 L 83.3 333.33 L 116.7 350 L 183.3 350 L 216.7 333.33 L 233.3 316.67 L 250 283.33 L 250 250 L 233.3 216.67 L 216.7 200 L 150 166.67 L 150 116.67 M 150 33.33 L 133.3 16.67 L 150 -0 L 166.7 16.67 Z" horiz-adv-x="300.0"/><glyph unicode="C" glyph-name="C" d="M 300 266.67 L 283.3 300 L 250 333.33 L 216.7 350 L 150 350 L 116.7 333.33 L 83.3 300 L 66.7 266.67 L 50 216.67 L 50 133.33 L 66.7 83.33 L 83.3 50 L 116.7 16.67 L 150 -0 L 216.7 -0 L 250 16.67 L 283.3 50 L 300 83.33" horiz-adv-x="350.0"/><glyph unicode="G" glyph-name="G" d="M 300 266.67 L 283.3 300 L 250 333.33 L 216.7 350 L 150 350 L 116.7 333.33 L 83.3 300 L 66.7 266.67 L 50 216.67 L 50 133.33 L 66.7 83.33 L 83.3 50 L 116.7 16.67 L 150 -0 L 216.7 -0 L 250 16.67 L 283.3 50 L 300 83.33 L 300 133.33 M 216.7 133.33 L 300 133.33" horiz-adv-x="350.0"/><glyph unicode="K" glyph-name="K" d="M 66.67 350 L 66.67 -0 M 300 350 L 66.67 116.67 M 150 200 L 300 -0" horiz-adv-x="350.0"/><glyph unicode="O" glyph-name="O" d="M 150 350 L 116.67 333.33 L 83.33 300 L 66.67 266.67 L 50 216.67 L 50 133.33 L 66.67 83.33 L 83.33 50 L 116.67 16.67 L 150 -0 L 216.67 -0 L 250 16.67 L 283.33 50 L 300 83.33 L 316.67 133.33 L 316.67 216.67 L 300 266.67 L 283.33 300 L 250 333.33 L 216.67 350 Z" horiz-adv-x="366.67"/><glyph unicode="S" glyph-name="S" d="M 283.3 300 L 250 333.33 L 200 350 L 133.3 350 L 83.3 333.33 L 50 300 L 50 266.67 L 66.7 233.33 L 83.3 216.67 L 116.7 200 L 216.7 166.67 L 250 150 L 266.7 133.33 L 283.3 100 L 283.3 50 L 250 16.67 L 200 -0 L 133.3 -0 L 83.3 16.67 L 50 50" horiz-adv-x="333.33"/><glyph unicode="W" glyph-name="W" d="M 33.3 350 L 116.7 -0 M 200 350 L 116.7 -0 M 200 350 L 283.3 -0 M 366.7 350 L 283.3 -0" horiz-adv-x="400.0"/><glyph unicode="[" glyph-name="[" d="M 66.7 416.67 L 66.7 -116.67 M 83.3 416.67 L 83.3 -116.67 M 66.7 416.67 L 183.3 416.67 M 66.7 -116.67 L 183.3 -116.67" horiz-adv-x="233.33"/><glyph unicode="_" glyph-name="_" d="M 0 -116.67 L 300 -116.67" horiz-adv-x="300.0"/><glyph unicode="c" glyph-name="c" d="M 250 183.33 L 216.67 216.67 L 183.33 233.33 L 133.33 233.33 L 100 216.67 L 66.67 183.33 L 50 133.33 L 50 100 L 66.67 50 L 100 16.67 L 133.33 -0 L 183.33 -0 L 216.67 16.67 L 250 50" horiz-adv-x="300.0"/><glyph unicode="g" glyph-name="g" d="M 250 233.33 L 250 -33.33 L 233.3 -83.33 L 216.7 -100 L 183.3 -116.67 L 133.3 -116.67 L 100 -100 M 250 183.33 L 216.7 216.67 L 183.3 233.33 L 133.3 233.33 L 100 216.67 L 66.7 183.33 L 50 133.33 L 50 100 L 66.7 50 L 100 16.67 L 133.3 -0 L 183.3 -0 L 216.7 16.67 L 250 50" horiz-adv-x="316.67"/><glyph unicode="k" glyph-name="k" d="M 66.7 350 L 66.7 -0 M 233.3 233.33 L 66.7 66.67 M 133.3 133.33 L 250 -0" horiz-adv-x="283.33"/><glyph unicode="o" glyph-name="o" d="M 133.3 233.33 L 100 216.67 L 66.7 183.33 L 50 133.33 L 50 100 L 66.7 50 L 100 16.67 L 133.3 -0 L 183.3 -0 L 216.7 16.67 L 250 50 L 266.7 100 L 266.7 133.33 L 250 183.33 L 216.7 216.67 L 183.3 233.33 Z" horiz-adv-x="316.67"/><glyph unicode="s" glyph-name="s" d="M 233.3 183.33 L 216.7 216.67 L 166.7 233.33 L 116.7 233.33 L 66.7 216.67 L 50 183.33 L 66.7 150 L 100 133.33 L 183.3 116.67 L 216.7 100 L 233.3 66.67 L 233.3 50 L 216.7 16.67 L 166.7 -0 L 116.7 -0 L 66.7 16.67 L 50 50" horiz-adv-x="283.33"/><glyph unicode="w" glyph-name="w" d="M 50 233.33 L 116.67 -0 M 183.33 233.33 L 116.67 -0 M 183.33 233.33 L 250 -0 M 316.67 233.33 L 250 -0" horiz-adv-x="366.67"/><glyph unicode="{" glyph-name="{" d="M 150 416.67 L 116.7 400 L 100 383.33 L 83.3 350 L 83.3 316.67 L 100 283.33 L 116.7 266.67 L 133.3 233.33 L 133.3 200 L 100 166.67 M 116.7 400 L 100 366.67 L 100 333.33 L 116.7 300 L 133.3 283.33 L 150 250 L 150 216.67 L 133.3 183.33 L 66.7 150 L 133.3 116.67 L 150 83.33 L 150 50 L 133.3 16.67 L 116.7 -0 L 100 -33.33 L 100 -66.67 L 116.7 -100 M 100 133.33 L 133.3 100 L 133.3 66.67 L 116.7 33.33 L 100 16.67 L 83.3 -16.67 L 83.3 -50 L 100 -83.33 L 116.7 -100 L 150 -116.67" horiz-adv-x="233.33"/><glyph unicode="" glyph-name="" d="M 0 350 L 0 -0 L 16.7 -0 L 16.7 350 L 33.3 350 L 33.3 -0 L 50 -0 L 50 350 L 66.7 350 L 66.7 -0 L 83.3 -0 L 83.3 350 L 100 350 L 100 -0 L 116.7 -0 L 116.7 350 L 133.3 350 L 133.3 -0 L 150 -0 L 150 350 L 166.7 350 L 166.7 -0 L 183.3 -0 L 183.3 350 L 200 350 L 200 -0 L 216.7 -0 L 216.7 350 L 233.3 350 L 233.3 -0 L 250 -0 L 250 350 L 266.7 350 L 266.7 -0" horiz-adv-x="266.67"/><glyph unicode="&quot;" glyph-name="&quot;" d="M 66.67 350 L 66.67 233.33 M 200 350 L 200 233.33" horiz-adv-x="266.67"/><glyph unicode="&amp;" glyph-name="&amp;" d="M 383.33 200 L 383.33 216.67 L 366.67 233.33 L 350 233.33 L 333.33 216.67 L 316.67 183.33 L 283.33 100 L 250 50 L 216.67 16.67 L 183.33 -0 L 116.67 -0 L 83.33 16.67 L 66.67 33.33 L 50 66.67 L 50 100 L 66.67 133.33 L 83.33 150 L 200 216.67 L 216.67 233.33 L 233.33 266.67 L 233.33 300 L 216.67 333.33 L 183.33 350 L 150 333.33 L 133.33 300 L 133.33 266.67 L 150 216.67 L 183.33 166.67 L 266.67 50 L 300 16.67 L 333.33 -0 L 366.67 -0 L 383.33 16.67 L 383.33 33.33" horiz-adv-x="433.33"/><glyph unicode="*" glyph-name="*" d="M 133.3 250 L 133.3 50 M 50 200 L 216.7 100 M 216.7 200 L 50 100" horiz-adv-x="266.67"/><glyph unicode="." glyph-name="." d="M 66.7 83.33 L 50 66.67 L 66.7 50 L 83.3 66.67 Z" horiz-adv-x="133.33"/><glyph unicode="2" glyph-name="2" d="M 66.7 266.67 L 66.7 283.33 L 83.3 316.67 L 100 333.33 L 133.3 350 L 200 350 L 233.3 333.33 L 250 316.67 L 266.7 283.33 L 266.7 250 L 250 216.67 L 216.7 166.67 L 50 -0 L 283.3 -0" horiz-adv-x="333.33"/><glyph unicode="6" glyph-name="6" d="M 266.67 300 L 250 333.33 L 200 350 L 166.67 350 L 116.67 333.33 L 83.33 283.33 L 66.67 200 L 66.67 116.67 L 83.33 50 L 116.67 16.67 L 166.67 -0 L 183.33 -0 L 233.33 16.67 L 266.67 50 L 283.33 100 L 283.33 116.67 L 266.67 166.67 L 233.33 200 L 183.33 216.67 L 166.67 216.67 L 116.67 200 L 83.33 166.67 L 66.67 116.67" horiz-adv-x="333.33"/><glyph unicode=":" glyph-name=":" d="M 66.67 200 L 50 183.33 L 66.67 166.67 L 83.33 183.33 Z M 66.67 83.33 L 50 66.67 L 66.67 50 L 83.33 66.67 Z" horiz-adv-x="133.33"/><glyph unicode="&gt;" glyph-name="&gt;" d="M 66.7 300 L 333.3 150 L 66.7 -0" horiz-adv-x="400.0"/><glyph unicode="B" glyph-name="B" d="M 66.7 350 L 66.7 -0 M 66.7 350 L 216.7 350 L 266.7 333.33 L 283.3 316.67 L 300 283.33 L 300 250 L 283.3 216.67 L 266.7 200 L 216.7 183.33 M 66.7 183.33 L 216.7 183.33 L 266.7 166.67 L 283.3 150 L 300 116.67 L 300 66.67 L 283.3 33.33 L 266.7 16.67 L 216.7 -0 L 66.7 -0" horiz-adv-x="350.0"/><glyph unicode="F" glyph-name="F" d="M 66.7 350 L 66.7 -0 M 66.7 350 L 283.3 350 M 66.7 183.33 L 200 183.33" horiz-adv-x="300.0"/><glyph unicode="J" glyph-name="J" d="M 200 350 L 200 83.33 L 183.3 33.33 L 166.7 16.67 L 133.3 -0 L 100 -0 L 66.7 16.67 L 50 33.33 L 33.3 83.33 L 33.3 116.67" horiz-adv-x="266.67"/><glyph unicode="N" glyph-name="N" d="M 66.67 350 L 66.67 -0 M 66.67 350 L 300 -0 M 300 350 L 300 -0" horiz-adv-x="366.67"/><glyph unicode="R" glyph-name="R" d="M 66.7 350 L 66.7 -0 M 66.7 350 L 216.7 350 L 266.7 333.33 L 283.3 316.67 L 300 283.33 L 300 250 L 283.3 216.67 L 266.7 200 L 216.7 183.33 L 66.7 183.33 M 183.3 183.33 L 300 -0" horiz-adv-x="350.0"/><glyph unicode="V" glyph-name="V" d="M 16.7 350 L 150 -0 M 283.3 350 L 150 -0" horiz-adv-x="300.0"/><glyph unicode="Z" glyph-name="Z" d="M 283.3 350 L 50 -0 M 50 350 L 283.3 350 M 50 -0 L 283.3 -0" horiz-adv-x="333.33"/><glyph unicode="^" glyph-name="^" d="M 133.3 383.33 L 0 150 M 133.3 383.33 L 266.7 150" horiz-adv-x="266.67"/><glyph unicode="b" glyph-name="b" d="M 66.67 350 L 66.67 -0 M 66.67 183.33 L 100 216.67 L 133.33 233.33 L 183.33 233.33 L 216.67 216.67 L 250 183.33 L 266.67 133.33 L 266.67 100 L 250 50 L 216.67 16.67 L 183.33 -0 L 133.33 -0 L 100 16.67 L 66.67 50" horiz-adv-x="316.67"/><glyph unicode="f" glyph-name="f" d="M 166.7 350 L 133.3 350 L 100 333.33 L 83.3 283.33 L 83.3 -0 M 33.3 233.33 L 150 233.33" horiz-adv-x="200.0"/><glyph unicode="j" glyph-name="j" d="M 83.3 350 L 100 333.33 L 116.7 350 L 100 366.67 Z M 100 233.33 L 100 -50 L 83.3 -100 L 50 -116.67 L 16.7 -116.67" horiz-adv-x="166.67"/><glyph unicode="n" glyph-name="n" d="M 66.7 233.33 L 66.7 -0 M 66.7 166.67 L 116.7 216.67 L 150 233.33 L 200 233.33 L 233.3 216.67 L 250 166.67 L 250 -0" horiz-adv-x="316.67"/><glyph unicode="r" glyph-name="r" d="M 66.7 233.33 L 66.7 -0 M 66.7 133.33 L 83.3 183.33 L 116.7 216.67 L 150 233.33 L 200 233.33" horiz-adv-x="216.67"/><glyph unicode="v" glyph-name="v" d="M 33.33 233.33 L 133.33 -0 M 233.33 233.33 L 133.33 -0" horiz-adv-x="266.67"/><glyph unicode="z" glyph-name="z" d="M 233.33 233.33 L 50 -0 M 50 233.33 L 233.33 233.33 M 50 -0 L 233.33 -0" horiz-adv-x="283.33"/><glyph unicode="~" glyph-name="~" d="M 50 100 L 50 133.33 L 66.7 183.33 L 100 200 L 133.3 200 L 166.7 183.33 L 233.3 133.33 L 266.7 116.67 L 300 116.67 L 333.3 133.33 L 350 166.67 M 50 133.33 L 66.7 166.67 L 100 183.33 L 133.3 183.33 L 166.7 166.67 L 233.3 116.67 L 266.7 100 L 300 100 L 333.3 116.67 L 350 166.67 L 350 200" horiz-adv-x="400.0"/><glyph unicode="!" glyph-name="!" d="M 83.33 350 L 83.33 116.67 M 83.33 33.33 L 66.67 16.67 L 83.33 -0 L 100 16.67 Z" horiz-adv-x="166.67"/><glyph unicode="%" glyph-name="%" d="M 350 350 L 50 -0 M 133.33 350 L 166.67 316.67 L 166.67 283.33 L 150 250 L 116.67 233.33 L 83.33 233.33 L 50 266.67 L 50 300 L 66.67 333.33 L 100 350 L 133.33 350 L 166.67 333.33 L 216.67 316.67 L 266.67 316.67 L 316.67 333.33 L 350 350 M 283.33 116.67 L 250 100 L 233.33 66.67 L 233.33 33.33 L 266.67 -0 L 300 -0 L 333.33 16.67 L 350 50 L 350 83.33 L 316.67 116.67 Z" horiz-adv-x="400.0"/><glyph unicode=")" glyph-name=")" d="M 50 416.67 L 83.3 383.33 L 116.7 333.33 L 150 266.67 L 166.7 183.33 L 166.7 116.67 L 150 33.33 L 116.7 -33.33 L 83.3 -83.33 L 50 -116.67" horiz-adv-x="233.33"/><glyph unicode="-" glyph-name="-" d="M 66.7 150 L 366.7 150" horiz-adv-x="433.33"/><glyph unicode="1" glyph-name="1" d="M 100 283.33 L 133.3 300 L 183.3 350 L 183.3 -0" horiz-adv-x="333.33"/><glyph unicode="5" glyph-name="5" d="M 250 350 L 83.3 350 L 66.7 200 L 83.3 216.67 L 133.3 233.33 L 183.3 233.33 L 233.3 216.67 L 266.7 183.33 L 283.3 133.33 L 283.3 100 L 266.7 50 L 233.3 16.67 L 183.3 -0 L 133.3 -0 L 83.3 16.67 L 66.7 33.33 L 50 66.67" horiz-adv-x="333.33"/><glyph unicode="9" glyph-name="9" d="M 266.67 233.33 L 250 183.33 L 216.67 150 L 166.67 133.33 L 150 133.33 L 100 150 L 66.67 183.33 L 50 233.33 L 50 250 L 66.67 300 L 100 333.33 L 150 350 L 166.67 350 L 216.67 333.33 L 250 300 L 266.67 233.33 L 266.67 150 L 250 66.67 L 216.67 16.67 L 166.67 -0 L 133.33 -0 L 83.33 16.67 L 66.67 50" horiz-adv-x="333.33"/><glyph unicode="=" glyph-name="=" d="M 66.7 200 L 366.7 200 M 66.7 100 L 366.7 100" horiz-adv-x="433.33"/><glyph unicode="A" glyph-name="A" d="M 150 350 L 16.7 -0 M 150 350 L 283.3 -0 M 66.7 116.67 L 233.3 116.67" horiz-adv-x="300.0"/><glyph unicode="E" glyph-name="E" d="M 66.7 350 L 66.7 -0 M 66.7 350 L 283.3 350 M 66.7 183.33 L 200 183.33 M 66.7 -0 L 283.3 -0" horiz-adv-x="316.67"/><glyph unicode="I" glyph-name="I" d="M 66.7 350 L 66.7 -0" horiz-adv-x="133.33"/><glyph unicode="M" glyph-name="M" d="M 66.67 350 L 66.67 -0 M 66.67 350 L 200 -0 M 333.33 350 L 200 -0 M 333.33 350 L 333.33 -0" horiz-adv-x="400.0"/><glyph unicode="Q" glyph-name="Q" d="M 150 350 L 116.7 333.33 L 83.3 300 L 66.7 266.67 L 50 216.67 L 50 133.33 L 66.7 83.33 L 83.3 50 L 116.7 16.67 L 150 -0 L 216.7 -0 L 250 16.67 L 283.3 50 L 300 83.33 L 316.7 133.33 L 316.7 216.67 L 300 266.67 L 283.3 300 L 250 333.33 L 216.7 350 Z M 200 66.67 L 300 -33.33" horiz-adv-x="366.67"/><glyph unicode="U" glyph-name="U" d="M 66.7 350 L 66.7 100 L 83.3 50 L 116.7 16.67 L 166.7 -0 L 200 -0 L 250 16.67 L 283.3 50 L 300 100 L 300 350" horiz-adv-x="366.67"/><glyph unicode="Y" glyph-name="Y" d="M 16.7 350 L 150 183.33 L 150 -0 M 283.3 350 L 150 183.33" horiz-adv-x="300.0"/><glyph unicode="]" glyph-name="]" d="M 150 416.67 L 150 -116.67 M 166.7 416.67 L 166.7 -116.67 M 50 416.67 L 166.7 416.67 M 50 -116.67 L 166.7 -116.67" horiz-adv-x="233.33"/><glyph unicode="a" glyph-name="a" d="M 250 233.33 L 250 -0 M 250 183.33 L 216.67 216.67 L 183.33 233.33 L 133.33 233.33 L 100 216.67 L 66.67 183.33 L 50 133.33 L 50 100 L 66.67 50 L 100 16.67 L 133.33 -0 L 183.33 -0 L 216.67 16.67 L 250 50" horiz-adv-x="316.67"/><glyph unicode="e" glyph-name="e" d="M 50 133.33 L 250 133.33 L 250 166.67 L 233.33 200 L 216.67 216.67 L 183.33 233.33 L 133.33 233.33 L 100 216.67 L 66.67 183.33 L 50 133.33 L 50 100 L 66.67 50 L 100 16.67 L 133.33 -0 L 183.33 -0 L 216.67 16.67 L 250 50" horiz-adv-x="300.0"/><glyph unicode="i" glyph-name="i" d="M 50 350 L 66.7 333.33 L 83.3 350 L 66.7 366.67 Z M 66.7 233.33 L 66.7 -0" horiz-adv-x="133.33"/><glyph unicode="m" glyph-name="m" d="M 66.7 233.33 L 66.7 -0 M 66.7 166.67 L 116.7 216.67 L 150 233.33 L 200 233.33 L 233.3 216.67 L 250 166.67 L 250 -0 M 250 166.67 L 300 216.67 L 333.3 233.33 L 383.3 233.33 L 416.7 216.67 L 433.3 166.67 L 433.3 -0" horiz-adv-x="500.0"/><glyph unicode="q" glyph-name="q" d="M 250 233.33 L 250 -116.67 M 250 183.33 L 216.7 216.67 L 183.3 233.33 L 133.3 233.33 L 100 216.67 L 66.7 183.33 L 50 133.33 L 50 100 L 66.7 50 L 100 16.67 L 133.3 -0 L 183.3 -0 L 216.7 16.67 L 250 50" horiz-adv-x="316.67"/><glyph unicode="u" glyph-name="u" d="M 66.67 233.33 L 66.67 66.67 L 83.33 16.67 L 116.67 -0 L 166.67 -0 L 200 16.67 L 250 66.67 M 250 233.33 L 250 -0" horiz-adv-x="316.67"/><glyph unicode="y" glyph-name="y" d="M 33.33 233.33 L 133.33 -0 M 233.33 233.33 L 133.33 -0 L 100 -66.67 L 66.67 -100 L 33.33 -116.67 L 16.67 -116.67" horiz-adv-x="266.67"/><glyph unicode="}" glyph-name="}" d="M 83.3 416.67 L 116.7 400 L 133.3 383.33 L 150 350 L 150 316.67 L 133.3 283.33 L 116.7 266.67 L 100 233.33 L 100 200 L 133.3 166.67 M 116.7 400 L 133.3 366.67 L 133.3 333.33 L 116.7 300 L 100 283.33 L 83.3 250 L 83.3 216.67 L 100 183.33 L 166.7 150 L 100 116.67 L 83.3 83.33 L 83.3 50 L 100 16.67 L 116.7 -0 L 133.3 -33.33 L 133.3 -66.67 L 116.7 -100 M 133.3 133.33 L 100 100 L 100 66.67 L 116.7 33.33 L 133.3 16.67 L 150 -16.67 L 150 -50 L 133.3 -83.33 L 116.7 -100 L 83.3 -116.67" horiz-adv-x="233.33"/><glyph unicode="ß" glyph-name="B" d="M 66.7 272.55 L 66.7 -26.4 M 67 273.28 C 87.6 306.9 121.1 358.84 177 354.56 C 196.1 353.19 210.7 352.77 241.7 333.34 L 258.3 316.66 L 275 283.34 L 275 250 L 258.3 216.66 C 239.6 177.63 157 196.09 156 183.34 C 198 172.57 254.6 178.73 283.3 150 L 300 116.66 L 300 66.66 L 283.3 33.34 L 266.7 16.66 L 216.7 -0 C 132.2 -10.04 111 25.81 82 82.7" horiz-adv-x="350.0"/><glyph unicode="Ä" glyph-name="Ä" d="M 198.3 479.56 L 181.6 462.89 L 198.3 446.22 L 215 462.89 Z M 150 350 L 16.7 -0 M 150 350 L 283.3 -0 M 66.7 116.66 L 233.3 116.66 M 98.6 479.56 L 81.9 462.89 L 98.6 446.22 L 115.3 462.89 Z" horiz-adv-x="300.0"/><glyph unicode="Ü" glyph-name="Ü" d="M 237.1 481.32 L 220.5 464.65 L 237.1 447.99 L 253.8 464.65 Z M 135.7 481.32 L 119 464.65 L 135.7 447.99 L 152.4 464.65 Z M 66.7 350 L 66.7 100 L 83.3 50 L 116.7 16.66 L 166.7 -0 L 200 -0 L 250 16.66 L 283.3 50 L 300 100 L 300 350" horiz-adv-x="366.67"/><glyph unicode="Ö" glyph-name="Ö" d="M 225.2 480.84 L 208.5 464.16 L 225.2 447.5 L 241.9 464.16 Z M 123.8 480.84 L 107.1 464.16 L 123.8 447.5 L 140.5 464.16 Z M 150 350 L 116.7 333.34 L 83.3 300 L 66.7 266.66 L 50 216.66 L 50 133.34 L 66.7 83.34 L 83.3 50 L 116.7 16.66 L 150 -0 L 216.7 -0 L 250 16.66 L 283.3 50 L 300 83.34 L 316.7 133.34 L 316.7 216.66 L 300 266.66 L 283.3 300 L 250 333.34 L 216.7 350 Z" horiz-adv-x="366.67"/><glyph unicode="ä" glyph-name="ä" d="M 215.1 365.77 L 198.4 349.1 L 215.1 332.44 L 231.8 349.1 Z M 113.7 365.77 L 97 349.1 L 113.7 332.44 L 130.3 349.1 Z M 250 183.35 L 216.7 216.65 L 183.3 233.35 L 133.3 233.35 L 100 216.65 L 66.7 183.35 L 50 133.35 L 50 100 L 66.7 50 L 100 16.65 L 133.3 -0 L 183.3 -0 L 216.7 16.65 L 250 50 M 250 233.35 L 250 -0" horiz-adv-x="316.67"/><glyph unicode="ö" glyph-name="ö" d="M 207 366.89 L 190.4 350.22 L 207 333.56 L 223.7 350.22 Z M 105.6 366.89 L 89 350.22 L 105.6 333.56 L 122.3 350.22 Z M 133.3 233.35 L 100 216.65 L 66.7 183.35 L 50 133.35 L 50 100 L 66.7 50 L 100 16.65 L 133.3 -0 L 183.3 -0 L 216.7 16.65 L 250 50 L 266.7 100 L 266.7 133.35 L 250 183.35 L 216.7 216.65 L 183.3 233.35 Z" horiz-adv-x="316.67"/><glyph unicode="ü" glyph-name="ü" d="M 210.4 367.23 L 193.7 350.56 L 210.4 333.89 L 227.1 350.56 Z M 109 367.23 L 92.3 350.56 L 109 333.89 L 125.7 350.56 Z M 66.7 233.35 L 66.7 66.65 L 83.3 16.65 L 116.7 -0 L 166.7 -0 L 200 16.65 L 250 66.65 M 250 233.35 L 250 -0" horiz-adv-x="316.67"/></font>
</defs>
</svg>
